<svg xmlns="http://www.w3.org/2000/svg" xmlns:xlink="http://www.w3.org/1999/xlink" width="500" zoomAndPan="magnify" viewBox="0 0 375 374.999991" height="500" preserveAspectRatio="xMidYMid meet" version="1.0"><defs><g/><clipPath id="4ca00d54ea"><path d="M 68 109.050781 L 73 109.050781 L 73 114 L 68 114 Z M 68 109.050781 " clip-rule="nonzero"/></clipPath><clipPath id="311bb9af1d"><path d="M 18.140625 118 L 59 118 L 59 163 L 18.140625 163 Z M 18.140625 118 " clip-rule="nonzero"/></clipPath><clipPath id="7b66b868d8"><path d="M 80 118 L 121.394531 118 L 121.394531 164 L 80 164 Z M 80 118 " clip-rule="nonzero"/></clipPath></defs><g clip-path="url(#4ca00d54ea)"><path fill="#545454" d="M 72.167969 113.539062 C 72.164062 113.539062 72.164062 113.539062 72.160156 113.539062 C 71.367188 113.507812 70.574219 113.492188 69.773438 113.492188 C 69.441406 113.492188 69.109375 113.496094 68.78125 113.503906 C 68.550781 113.507812 68.359375 113.328125 68.359375 113.097656 L 68.359375 111.171875 C 68.359375 110.582031 68.59375 110.050781 68.976562 109.675781 C 69.363281 109.292969 69.894531 109.050781 70.476562 109.050781 C 71.058594 109.050781 71.589844 109.292969 71.972656 109.671875 C 72.355469 110.054688 72.59375 110.585938 72.59375 111.167969 L 72.59375 113.128906 C 72.59375 113.363281 72.402344 113.550781 72.167969 113.539062 Z M 72.167969 113.539062 " fill-opacity="1" fill-rule="evenodd"/></g><path fill="#545454" d="M 69.773438 117.078125 C 75.300781 117.078125 80.433594 122.378906 84.265625 130.949219 C 87.976562 139.246094 90.386719 150.503906 90.738281 163.046875 C 90.746094 163.359375 90.417969 163.566406 90.140625 163.421875 C 89.058594 162.871094 87.796875 162.386719 86.375 161.964844 C 83.566406 161.132812 80.070312 160.507812 76.175781 160.175781 L 76.175781 160.160156 L 75.144531 160.097656 C 74.925781 160.082031 74.707031 160.066406 74.488281 160.050781 C 72.953125 159.960938 71.367188 159.90625 69.742188 159.90625 C 69.195312 159.90625 68.65625 159.914062 68.117188 159.921875 C 67.570312 159.933594 67.03125 159.953125 66.496094 159.972656 C 66.191406 159.984375 65.886719 159.996094 65.585938 160.015625 L 64.769531 160.050781 L 64.769531 160.066406 C 60.539062 160.335938 56.71875 160.953125 53.644531 161.808594 C 53.464844 161.855469 53.285156 161.910156 53.105469 161.960938 C 51.710938 162.375 50.460938 162.855469 49.394531 163.398438 C 49.117188 163.535156 48.789062 163.332031 48.796875 163.019531 C 49.15625 150.484375 51.5625 139.238281 55.269531 130.945312 C 59.109375 122.378906 64.246094 117.078125 69.773438 117.078125 Z M 69.773438 117.078125 " fill-opacity="1" fill-rule="evenodd"/><g clip-path="url(#311bb9af1d)"><path fill="#545454" d="M 32.988281 131.515625 C 39.824219 125.03125 48.558594 120.34375 58.335938 118.269531 C 58.726562 118.1875 59 118.65625 58.722656 118.949219 C 56.199219 121.628906 53.929688 125.207031 52.015625 129.492188 C 48.167969 138.09375 45.660156 149.644531 45.238281 162.449219 C 45.230469 162.757812 44.898438 162.949219 44.628906 162.792969 C 44.160156 162.527344 43.65625 162.273438 43.125 162.039062 C 40.109375 160.726562 35.984375 159.910156 31.476562 159.910156 C 27.171875 159.910156 23.214844 160.65625 20.238281 161.871094 C 19.652344 162.113281 19.097656 162.371094 18.585938 162.652344 C 18.296875 162.808594 17.949219 162.585938 17.976562 162.261719 C 18.996094 150.292969 24.542969 139.527344 32.988281 131.515625 Z M 32.988281 131.515625 " fill-opacity="1" fill-rule="evenodd"/></g><g clip-path="url(#7b66b868d8)"><path fill="#545454" d="M 80.820312 118.949219 C 80.546875 118.65625 80.816406 118.1875 81.207031 118.269531 C 90.984375 120.34375 99.71875 125.03125 106.554688 131.515625 C 114.957031 139.484375 120.488281 150.175781 121.550781 162.070312 C 121.582031 162.398438 121.234375 162.621094 120.941406 162.464844 C 120.417969 162.179688 119.851562 161.914062 119.25 161.671875 C 116.289062 160.476562 112.363281 159.746094 108.089844 159.746094 C 103.578125 159.746094 99.457031 160.5625 96.441406 161.878906 C 95.664062 162.21875 94.957031 162.59375 94.320312 163.003906 C 93.953125 149.976562 91.425781 138.21875 87.523438 129.492188 C 85.613281 125.207031 83.347656 121.628906 80.820312 118.949219 Z M 80.820312 118.949219 " fill-opacity="1" fill-rule="evenodd"/></g><path fill="#545454" d="M 68.765625 163.5 C 69.09375 163.496094 69.417969 163.496094 69.75 163.496094 C 70.714844 163.496094 71.664062 163.511719 72.597656 163.542969 L 72.597656 202.011719 C 72.597656 202.917969 72.785156 203.789062 73.125 204.585938 C 73.46875 205.410156 73.976562 206.148438 74.597656 206.765625 C 75.234375 207.390625 75.992188 207.898438 76.835938 208.238281 C 77.648438 208.570312 78.535156 208.753906 79.460938 208.753906 C 80.386719 208.753906 81.277344 208.570312 82.089844 208.238281 C 82.929688 207.898438 83.691406 207.390625 84.324219 206.765625 C 84.949219 206.148438 85.457031 205.410156 85.808594 204.585938 C 86.140625 203.792969 86.328125 202.921875 86.328125 202.011719 L 86.328125 199.695312 C 86.328125 199.105469 86.5625 198.574219 86.945312 198.199219 C 87.328125 197.816406 87.859375 197.578125 88.441406 197.578125 C 89.027344 197.578125 89.558594 197.816406 89.9375 198.199219 C 90.320312 198.578125 90.558594 199.109375 90.558594 199.695312 L 90.558594 202.011719 C 90.558594 203.5 90.261719 204.914062 89.71875 206.195312 C 89.152344 207.539062 88.320312 208.753906 87.285156 209.773438 C 86.253906 210.789062 85.03125 211.605469 83.679688 212.164062 C 82.386719 212.695312 80.960938 212.988281 79.460938 212.988281 C 77.957031 212.988281 76.53125 212.695312 75.242188 212.164062 C 73.890625 211.609375 72.664062 210.789062 71.636719 209.777344 C 70.601562 208.753906 69.765625 207.539062 69.203125 206.199219 C 68.660156 204.917969 68.363281 203.503906 68.363281 202.015625 L 68.363281 163.914062 C 68.363281 163.6875 68.539062 163.503906 68.765625 163.5 Z M 68.765625 163.5 " fill-opacity="1" fill-rule="evenodd"/><g fill="#737373" fill-opacity="1"><g transform="translate(89.655577, 210.038425)"><g><path d="M 25.234375 -19.046875 C 26.703125 -19.046875 28.019531 -18.738281 29.1875 -18.125 C 30.351562 -17.507812 31.269531 -16.597656 31.9375 -15.390625 C 32.613281 -14.191406 32.953125 -12.742188 32.953125 -11.046875 L 32.953125 0 L 29.109375 0 L 29.109375 -10.46875 C 29.109375 -12.144531 28.6875 -13.429688 27.84375 -14.328125 C 27.007812 -15.222656 25.863281 -15.671875 24.40625 -15.671875 C 22.957031 -15.671875 21.804688 -15.222656 20.953125 -14.328125 C 20.109375 -13.429688 19.6875 -12.144531 19.6875 -10.46875 L 19.6875 0 L 15.84375 0 L 15.84375 -10.46875 C 15.84375 -12.144531 15.421875 -13.429688 14.578125 -14.328125 C 13.742188 -15.222656 12.601562 -15.671875 11.15625 -15.671875 C 9.695312 -15.671875 8.539062 -15.222656 7.6875 -14.328125 C 6.84375 -13.429688 6.421875 -12.144531 6.421875 -10.46875 L 6.421875 0 L 2.546875 0 L 2.546875 -18.734375 L 6.421875 -18.734375 L 6.421875 -16.59375 C 7.054688 -17.363281 7.859375 -17.960938 8.828125 -18.390625 C 9.804688 -18.828125 10.851562 -19.046875 11.96875 -19.046875 C 13.46875 -19.046875 14.804688 -18.726562 15.984375 -18.09375 C 17.160156 -17.457031 18.066406 -16.535156 18.703125 -15.328125 C 19.265625 -16.460938 20.144531 -17.363281 21.34375 -18.03125 C 22.550781 -18.707031 23.847656 -19.046875 25.234375 -19.046875 Z M 25.234375 -19.046875 "/></g></g></g><g fill="#737373" fill-opacity="1"><g transform="translate(124.977524, 210.038425)"><g><path d="M 6.421875 -15.953125 C 7.078125 -16.859375 7.976562 -17.597656 9.125 -18.171875 C 10.269531 -18.753906 11.546875 -19.046875 12.953125 -19.046875 C 14.609375 -19.046875 16.101562 -18.644531 17.4375 -17.84375 C 18.78125 -17.050781 19.835938 -15.925781 20.609375 -14.46875 C 21.378906 -13.007812 21.765625 -11.335938 21.765625 -9.453125 C 21.765625 -7.566406 21.378906 -5.878906 20.609375 -4.390625 C 19.835938 -2.910156 18.773438 -1.753906 17.421875 -0.921875 C 16.078125 -0.0976562 14.585938 0.3125 12.953125 0.3125 C 11.503906 0.3125 10.21875 0.03125 9.09375 -0.53125 C 7.96875 -1.101562 7.078125 -1.832031 6.421875 -2.71875 L 6.421875 0 L 2.546875 0 L 2.546875 -25.15625 L 6.421875 -25.15625 Z M 17.8125 -9.453125 C 17.8125 -10.742188 17.546875 -11.859375 17.015625 -12.796875 C 16.484375 -13.742188 15.78125 -14.457031 14.90625 -14.9375 C 14.03125 -15.425781 13.097656 -15.671875 12.109375 -15.671875 C 11.128906 -15.671875 10.203125 -15.421875 9.328125 -14.921875 C 8.460938 -14.421875 7.757812 -13.695312 7.21875 -12.75 C 6.6875 -11.800781 6.421875 -10.679688 6.421875 -9.390625 C 6.421875 -8.097656 6.6875 -6.96875 7.21875 -6 C 7.757812 -5.039062 8.460938 -4.3125 9.328125 -3.8125 C 10.203125 -3.3125 11.128906 -3.0625 12.109375 -3.0625 C 13.097656 -3.0625 14.03125 -3.316406 14.90625 -3.828125 C 15.78125 -4.335938 16.484375 -5.078125 17.015625 -6.046875 C 17.546875 -7.023438 17.8125 -8.160156 17.8125 -9.453125 Z M 17.8125 -9.453125 "/></g></g></g><g fill="#737373" fill-opacity="1"><g transform="translate(148.026884, 210.038425)"><g><path d="M 6.421875 -16.015625 C 6.992188 -16.960938 7.75 -17.703125 8.6875 -18.234375 C 9.625 -18.773438 10.738281 -19.046875 12.03125 -19.046875 L 12.03125 -15.03125 L 11.046875 -15.03125 C 9.523438 -15.03125 8.375 -14.644531 7.59375 -13.875 C 6.8125 -13.101562 6.421875 -11.765625 6.421875 -9.859375 L 6.421875 0 L 2.546875 0 L 2.546875 -18.734375 L 6.421875 -18.734375 Z M 6.421875 -16.015625 "/></g></g></g><g fill="#737373" fill-opacity="1"><g transform="translate(161.081388, 210.038425)"><g><path d="M 19.71875 -9.828125 C 19.71875 -9.117188 19.671875 -8.484375 19.578125 -7.921875 L 5.265625 -7.921875 C 5.378906 -6.421875 5.9375 -5.21875 6.9375 -4.3125 C 7.9375 -3.40625 9.160156 -2.953125 10.609375 -2.953125 C 12.691406 -2.953125 14.164062 -3.828125 15.03125 -5.578125 L 19.203125 -5.578125 C 18.640625 -3.847656 17.613281 -2.429688 16.125 -1.328125 C 14.644531 -0.234375 12.804688 0.3125 10.609375 0.3125 C 8.816406 0.3125 7.210938 -0.0859375 5.796875 -0.890625 C 4.378906 -1.703125 3.269531 -2.835938 2.46875 -4.296875 C 1.664062 -5.765625 1.265625 -7.460938 1.265625 -9.390625 C 1.265625 -11.316406 1.65625 -13.007812 2.4375 -14.46875 C 3.21875 -15.925781 4.316406 -17.050781 5.734375 -17.84375 C 7.148438 -18.644531 8.773438 -19.046875 10.609375 -19.046875 C 12.378906 -19.046875 13.953125 -18.660156 15.328125 -17.890625 C 16.710938 -17.117188 17.789062 -16.035156 18.5625 -14.640625 C 19.332031 -13.242188 19.71875 -11.640625 19.71875 -9.828125 Z M 15.671875 -11.046875 C 15.648438 -12.472656 15.140625 -13.617188 14.140625 -14.484375 C 13.140625 -15.347656 11.90625 -15.78125 10.4375 -15.78125 C 9.101562 -15.78125 7.957031 -15.351562 7 -14.5 C 6.050781 -13.644531 5.484375 -12.492188 5.296875 -11.046875 Z M 15.671875 -11.046875 "/></g></g></g><g fill="#737373" fill-opacity="1"><g transform="translate(182.056988, 210.038425)"><g><path d="M 6.421875 -25.15625 L 6.421875 0 L 2.546875 0 L 2.546875 -25.15625 Z M 6.421875 -25.15625 "/></g></g></g><g fill="#737373" fill-opacity="1"><g transform="translate(191.031959, 210.038425)"><g><path d="M 6.421875 -25.15625 L 6.421875 0 L 2.546875 0 L 2.546875 -25.15625 Z M 6.421875 -25.15625 "/></g></g></g><g fill="#737373" fill-opacity="1"><g transform="translate(200.00693, 210.038425)"><g><path d="M 1.265625 -9.453125 C 1.265625 -11.335938 1.65625 -13.003906 2.4375 -14.453125 C 3.21875 -15.898438 4.28125 -17.023438 5.625 -17.828125 C 6.976562 -18.640625 8.46875 -19.046875 10.09375 -19.046875 C 11.570312 -19.046875 12.859375 -18.753906 13.953125 -18.171875 C 15.054688 -17.597656 15.9375 -16.878906 16.59375 -16.015625 L 16.59375 -18.734375 L 20.5 -18.734375 L 20.5 0 L 16.59375 0 L 16.59375 -2.78125 C 15.9375 -1.90625 15.039062 -1.171875 13.90625 -0.578125 C 12.769531 0.015625 11.476562 0.3125 10.03125 0.3125 C 8.414062 0.3125 6.941406 -0.0976562 5.609375 -0.921875 C 4.273438 -1.753906 3.21875 -2.910156 2.4375 -4.390625 C 1.65625 -5.878906 1.265625 -7.566406 1.265625 -9.453125 Z M 16.59375 -9.390625 C 16.59375 -10.679688 16.328125 -11.800781 15.796875 -12.75 C 15.265625 -13.695312 14.566406 -14.421875 13.703125 -14.921875 C 12.835938 -15.421875 11.90625 -15.671875 10.90625 -15.671875 C 9.914062 -15.671875 8.988281 -15.425781 8.125 -14.9375 C 7.257812 -14.457031 6.5625 -13.742188 6.03125 -12.796875 C 5.5 -11.859375 5.234375 -10.742188 5.234375 -9.453125 C 5.234375 -8.160156 5.5 -7.023438 6.03125 -6.046875 C 6.5625 -5.078125 7.265625 -4.335938 8.140625 -3.828125 C 9.015625 -3.316406 9.9375 -3.0625 10.90625 -3.0625 C 11.90625 -3.0625 12.835938 -3.3125 13.703125 -3.8125 C 14.566406 -4.3125 15.265625 -5.039062 15.796875 -6 C 16.328125 -6.96875 16.59375 -8.097656 16.59375 -9.390625 Z M 16.59375 -9.390625 "/></g></g></g><g fill="#737373" fill-opacity="1"><g transform="translate(223.056291, 210.038425)"><g/></g></g><g fill="#737373" fill-opacity="1"><g transform="translate(231.895283, 210.038425)"><g><path d="M 19.078125 -16.59375 C 19.078125 -15.394531 18.789062 -14.257812 18.21875 -13.1875 C 17.65625 -12.125 16.75 -11.257812 15.5 -10.59375 C 14.257812 -9.925781 12.660156 -9.59375 10.703125 -9.59375 L 6.421875 -9.59375 L 6.421875 0 L 2.546875 0 L 2.546875 -23.625 L 10.703125 -23.625 C 12.523438 -23.625 14.0625 -23.3125 15.3125 -22.6875 C 16.570312 -22.070312 17.515625 -21.226562 18.140625 -20.15625 C 18.765625 -19.09375 19.078125 -17.90625 19.078125 -16.59375 Z M 10.703125 -12.75 C 12.179688 -12.75 13.28125 -13.082031 14 -13.75 C 14.726562 -14.414062 15.09375 -15.363281 15.09375 -16.59375 C 15.09375 -19.175781 13.628906 -20.46875 10.703125 -20.46875 L 6.421875 -20.46875 L 6.421875 -12.75 Z M 10.703125 -12.75 "/></g></g></g><g fill="#737373" fill-opacity="1"><g transform="translate(252.122966, 210.038425)"><g><path d="M 6.421875 -25.15625 L 6.421875 0 L 2.546875 0 L 2.546875 -25.15625 Z M 6.421875 -25.15625 "/></g></g></g><g fill="#737373" fill-opacity="1"><g transform="translate(261.097937, 210.038425)"><g><path d="M 1.265625 -9.453125 C 1.265625 -11.335938 1.65625 -13.003906 2.4375 -14.453125 C 3.21875 -15.898438 4.28125 -17.023438 5.625 -17.828125 C 6.976562 -18.640625 8.46875 -19.046875 10.09375 -19.046875 C 11.570312 -19.046875 12.859375 -18.753906 13.953125 -18.171875 C 15.054688 -17.597656 15.9375 -16.878906 16.59375 -16.015625 L 16.59375 -18.734375 L 20.5 -18.734375 L 20.5 0 L 16.59375 0 L 16.59375 -2.78125 C 15.9375 -1.90625 15.039062 -1.171875 13.90625 -0.578125 C 12.769531 0.015625 11.476562 0.3125 10.03125 0.3125 C 8.414062 0.3125 6.941406 -0.0976562 5.609375 -0.921875 C 4.273438 -1.753906 3.21875 -2.910156 2.4375 -4.390625 C 1.65625 -5.878906 1.265625 -7.566406 1.265625 -9.453125 Z M 16.59375 -9.390625 C 16.59375 -10.679688 16.328125 -11.800781 15.796875 -12.75 C 15.265625 -13.695312 14.566406 -14.421875 13.703125 -14.921875 C 12.835938 -15.421875 11.90625 -15.671875 10.90625 -15.671875 C 9.914062 -15.671875 8.988281 -15.425781 8.125 -14.9375 C 7.257812 -14.457031 6.5625 -13.742188 6.03125 -12.796875 C 5.5 -11.859375 5.234375 -10.742188 5.234375 -9.453125 C 5.234375 -8.160156 5.5 -7.023438 6.03125 -6.046875 C 6.5625 -5.078125 7.265625 -4.335938 8.140625 -3.828125 C 9.015625 -3.316406 9.9375 -3.0625 10.90625 -3.0625 C 11.90625 -3.0625 12.835938 -3.3125 13.703125 -3.8125 C 14.566406 -4.3125 15.265625 -5.039062 15.796875 -6 C 16.328125 -6.96875 16.59375 -8.097656 16.59375 -9.390625 Z M 16.59375 -9.390625 "/></g></g></g><g fill="#737373" fill-opacity="1"><g transform="translate(284.147309, 210.038425)"><g><path d="M 1.265625 -9.390625 C 1.265625 -11.316406 1.65625 -13.007812 2.4375 -14.46875 C 3.21875 -15.925781 4.296875 -17.050781 5.671875 -17.84375 C 7.054688 -18.644531 8.644531 -19.046875 10.4375 -19.046875 C 12.707031 -19.046875 14.582031 -18.503906 16.0625 -17.421875 C 17.550781 -16.347656 18.554688 -14.8125 19.078125 -12.8125 L 14.890625 -12.8125 C 14.546875 -13.75 14 -14.476562 13.25 -15 C 12.507812 -15.519531 11.570312 -15.78125 10.4375 -15.78125 C 8.851562 -15.78125 7.585938 -15.21875 6.640625 -14.09375 C 5.703125 -12.96875 5.234375 -11.398438 5.234375 -9.390625 C 5.234375 -7.367188 5.703125 -5.789062 6.640625 -4.65625 C 7.585938 -3.519531 8.851562 -2.953125 10.4375 -2.953125 C 12.675781 -2.953125 14.160156 -3.941406 14.890625 -5.921875 L 19.078125 -5.921875 C 18.535156 -4.015625 17.515625 -2.5 16.015625 -1.375 C 14.515625 -0.25 12.65625 0.3125 10.4375 0.3125 C 8.644531 0.3125 7.054688 -0.0859375 5.671875 -0.890625 C 4.296875 -1.703125 3.21875 -2.835938 2.4375 -4.296875 C 1.65625 -5.765625 1.265625 -7.460938 1.265625 -9.390625 Z M 1.265625 -9.390625 "/></g></g></g><g fill="#737373" fill-opacity="1"><g transform="translate(304.544982, 210.038425)"><g><path d="M 19.71875 -9.828125 C 19.71875 -9.117188 19.671875 -8.484375 19.578125 -7.921875 L 5.265625 -7.921875 C 5.378906 -6.421875 5.9375 -5.21875 6.9375 -4.3125 C 7.9375 -3.40625 9.160156 -2.953125 10.609375 -2.953125 C 12.691406 -2.953125 14.164062 -3.828125 15.03125 -5.578125 L 19.203125 -5.578125 C 18.640625 -3.847656 17.613281 -2.429688 16.125 -1.328125 C 14.644531 -0.234375 12.804688 0.3125 10.609375 0.3125 C 8.816406 0.3125 7.210938 -0.0859375 5.796875 -0.890625 C 4.378906 -1.703125 3.269531 -2.835938 2.46875 -4.296875 C 1.664062 -5.765625 1.265625 -7.460938 1.265625 -9.390625 C 1.265625 -11.316406 1.65625 -13.007812 2.4375 -14.46875 C 3.21875 -15.925781 4.316406 -17.050781 5.734375 -17.84375 C 7.148438 -18.644531 8.773438 -19.046875 10.609375 -19.046875 C 12.378906 -19.046875 13.953125 -18.660156 15.328125 -17.890625 C 16.710938 -17.117188 17.789062 -16.035156 18.5625 -14.640625 C 19.332031 -13.242188 19.71875 -11.640625 19.71875 -9.828125 Z M 15.671875 -11.046875 C 15.648438 -12.472656 15.140625 -13.617188 14.140625 -14.484375 C 13.140625 -15.347656 11.90625 -15.78125 10.4375 -15.78125 C 9.101562 -15.78125 7.957031 -15.351562 7 -14.5 C 6.050781 -13.644531 5.484375 -12.492188 5.296875 -11.046875 Z M 15.671875 -11.046875 "/></g></g></g><g fill="#737373" fill-opacity="1"><g transform="translate(9.002615, 260.294983)"><g><path d="M 0.859375 -5.5 C 0.859375 -6.632812 1.082031 -7.625 1.53125 -8.46875 C 1.988281 -9.3125 2.617188 -9.96875 3.421875 -10.4375 C 4.234375 -10.90625 5.160156 -11.140625 6.203125 -11.140625 C 7.546875 -11.140625 8.65625 -10.8125 9.53125 -10.15625 C 10.40625 -9.507812 10.984375 -8.601562 11.265625 -7.4375 L 9.296875 -7.4375 C 9.109375 -8.101562 8.742188 -8.628906 8.203125 -9.015625 C 7.671875 -9.398438 7.003906 -9.59375 6.203125 -9.59375 C 5.160156 -9.59375 4.316406 -9.234375 3.671875 -8.515625 C 3.035156 -7.804688 2.71875 -6.800781 2.71875 -5.5 C 2.71875 -4.175781 3.035156 -3.15625 3.671875 -2.4375 C 4.316406 -1.71875 5.160156 -1.359375 6.203125 -1.359375 C 7.003906 -1.359375 7.671875 -1.546875 8.203125 -1.921875 C 8.734375 -2.296875 9.097656 -2.828125 9.296875 -3.515625 L 11.265625 -3.515625 C 10.960938 -2.398438 10.375 -1.503906 9.5 -0.828125 C 8.625 -0.148438 7.523438 0.1875 6.203125 0.1875 C 5.160156 0.1875 4.234375 -0.046875 3.421875 -0.515625 C 2.617188 -0.984375 1.988281 -1.644531 1.53125 -2.5 C 1.082031 -3.351562 0.859375 -4.351562 0.859375 -5.5 Z M 0.859375 -5.5 "/></g></g></g><g fill="#737373" fill-opacity="1"><g transform="translate(21.137826, 260.294983)"><g><path d="M 6.3125 0.1875 C 5.289062 0.1875 4.363281 -0.046875 3.53125 -0.515625 C 2.695312 -0.984375 2.039062 -1.644531 1.5625 -2.5 C 1.09375 -3.363281 0.859375 -4.363281 0.859375 -5.5 C 0.859375 -6.625 1.097656 -7.613281 1.578125 -8.46875 C 2.066406 -9.332031 2.734375 -9.992188 3.578125 -10.453125 C 4.421875 -10.910156 5.363281 -11.140625 6.40625 -11.140625 C 7.4375 -11.140625 8.375 -10.910156 9.21875 -10.453125 C 10.0625 -9.992188 10.722656 -9.335938 11.203125 -8.484375 C 11.691406 -7.628906 11.9375 -6.632812 11.9375 -5.5 C 11.9375 -4.363281 11.6875 -3.363281 11.1875 -2.5 C 10.6875 -1.644531 10.007812 -0.984375 9.15625 -0.515625 C 8.300781 -0.046875 7.351562 0.1875 6.3125 0.1875 Z M 6.3125 -1.421875 C 6.96875 -1.421875 7.582031 -1.570312 8.15625 -1.875 C 8.726562 -2.1875 9.191406 -2.648438 9.546875 -3.265625 C 9.898438 -3.878906 10.078125 -4.625 10.078125 -5.5 C 10.078125 -6.375 9.90625 -7.117188 9.5625 -7.734375 C 9.21875 -8.347656 8.765625 -8.804688 8.203125 -9.109375 C 7.640625 -9.410156 7.03125 -9.5625 6.375 -9.5625 C 5.707031 -9.5625 5.097656 -9.410156 4.546875 -9.109375 C 3.992188 -8.804688 3.550781 -8.347656 3.21875 -7.734375 C 2.882812 -7.117188 2.71875 -6.375 2.71875 -5.5 C 2.71875 -4.601562 2.878906 -3.847656 3.203125 -3.234375 C 3.535156 -2.617188 3.972656 -2.160156 4.515625 -1.859375 C 5.066406 -1.566406 5.664062 -1.421875 6.3125 -1.421875 Z M 6.3125 -1.421875 "/></g></g></g><g fill="#737373" fill-opacity="1"><g transform="translate(33.932778, 260.294983)"><g><path d="M 6.875 -11.15625 C 8.207031 -11.15625 9.285156 -10.75 10.109375 -9.9375 C 10.941406 -9.132812 11.359375 -7.972656 11.359375 -6.453125 L 11.359375 0 L 9.5625 0 L 9.5625 -6.203125 C 9.5625 -7.296875 9.285156 -8.128906 8.734375 -8.703125 C 8.191406 -9.285156 7.445312 -9.578125 6.5 -9.578125 C 5.539062 -9.578125 4.773438 -9.273438 4.203125 -8.671875 C 3.640625 -8.078125 3.359375 -7.207031 3.359375 -6.0625 L 3.359375 0 L 1.546875 0 L 1.546875 -10.953125 L 3.359375 -10.953125 L 3.359375 -9.40625 C 3.722656 -9.957031 4.210938 -10.382812 4.828125 -10.6875 C 5.453125 -11 6.132812 -11.15625 6.875 -11.15625 Z M 6.875 -11.15625 "/></g></g></g><g fill="#737373" fill-opacity="1"><g transform="translate(46.72773, 260.294983)"><g><path d="M 3.765625 -9.453125 L 3.765625 -3 C 3.765625 -2.46875 3.875 -2.09375 4.09375 -1.875 C 4.320312 -1.65625 4.71875 -1.546875 5.28125 -1.546875 L 6.625 -1.546875 L 6.625 0 L 4.984375 0 C 3.960938 0 3.195312 -0.234375 2.6875 -0.703125 C 2.1875 -1.171875 1.9375 -1.9375 1.9375 -3 L 1.9375 -9.453125 L 0.515625 -9.453125 L 0.515625 -10.953125 L 1.9375 -10.953125 L 1.9375 -13.71875 L 3.765625 -13.71875 L 3.765625 -10.953125 L 6.625 -10.953125 L 6.625 -9.453125 Z M 3.765625 -9.453125 "/></g></g></g><g fill="#737373" fill-opacity="1"><g transform="translate(54.004856, 260.294983)"><g><path d="M 3.359375 -9.1875 C 3.679688 -9.8125 4.140625 -10.296875 4.734375 -10.640625 C 5.328125 -10.984375 6.050781 -11.15625 6.90625 -11.15625 L 6.90625 -9.28125 L 6.421875 -9.28125 C 4.378906 -9.28125 3.359375 -8.171875 3.359375 -5.953125 L 3.359375 0 L 1.546875 0 L 1.546875 -10.953125 L 3.359375 -10.953125 Z M 3.359375 -9.1875 "/></g></g></g><g fill="#737373" fill-opacity="1"><g transform="translate(61.461917, 260.294983)"><g><path d="M 6.3125 0.1875 C 5.289062 0.1875 4.363281 -0.046875 3.53125 -0.515625 C 2.695312 -0.984375 2.039062 -1.644531 1.5625 -2.5 C 1.09375 -3.363281 0.859375 -4.363281 0.859375 -5.5 C 0.859375 -6.625 1.097656 -7.613281 1.578125 -8.46875 C 2.066406 -9.332031 2.734375 -9.992188 3.578125 -10.453125 C 4.421875 -10.910156 5.363281 -11.140625 6.40625 -11.140625 C 7.4375 -11.140625 8.375 -10.910156 9.21875 -10.453125 C 10.0625 -9.992188 10.722656 -9.335938 11.203125 -8.484375 C 11.691406 -7.628906 11.9375 -6.632812 11.9375 -5.5 C 11.9375 -4.363281 11.6875 -3.363281 11.1875 -2.5 C 10.6875 -1.644531 10.007812 -0.984375 9.15625 -0.515625 C 8.300781 -0.046875 7.351562 0.1875 6.3125 0.1875 Z M 6.3125 -1.421875 C 6.96875 -1.421875 7.582031 -1.570312 8.15625 -1.875 C 8.726562 -2.1875 9.191406 -2.648438 9.546875 -3.265625 C 9.898438 -3.878906 10.078125 -4.625 10.078125 -5.5 C 10.078125 -6.375 9.90625 -7.117188 9.5625 -7.734375 C 9.21875 -8.347656 8.765625 -8.804688 8.203125 -9.109375 C 7.640625 -9.410156 7.03125 -9.5625 6.375 -9.5625 C 5.707031 -9.5625 5.097656 -9.410156 4.546875 -9.109375 C 3.992188 -8.804688 3.550781 -8.347656 3.21875 -7.734375 C 2.882812 -7.117188 2.71875 -6.375 2.71875 -5.5 C 2.71875 -4.601562 2.878906 -3.847656 3.203125 -3.234375 C 3.535156 -2.617188 3.972656 -2.160156 4.515625 -1.859375 C 5.066406 -1.566406 5.664062 -1.421875 6.3125 -1.421875 Z M 6.3125 -1.421875 "/></g></g></g><g fill="#737373" fill-opacity="1"><g transform="translate(74.256869, 260.294983)"><g><path d="M 3.359375 -14.796875 L 3.359375 0 L 1.546875 0 L 1.546875 -14.796875 Z M 3.359375 -14.796875 "/></g></g></g><g fill="#737373" fill-opacity="1"><g transform="translate(79.174933, 260.294983)"><g><path d="M 2.125 0.125 C 1.769531 0.125 1.472656 0.00390625 1.234375 -0.234375 C 0.992188 -0.472656 0.875 -0.769531 0.875 -1.125 C 0.875 -1.46875 0.992188 -1.757812 1.234375 -2 C 1.472656 -2.238281 1.769531 -2.359375 2.125 -2.359375 C 2.457031 -2.359375 2.738281 -2.238281 2.96875 -2 C 3.195312 -1.757812 3.3125 -1.46875 3.3125 -1.125 C 3.3125 -0.769531 3.195312 -0.472656 2.96875 -0.234375 C 2.738281 0.00390625 2.457031 0.125 2.125 0.125 Z M 2.125 0.125 "/></g></g></g><g fill="#737373" fill-opacity="1"><g transform="translate(83.373278, 260.294983)"><g><path d="M 2.125 0.125 C 1.769531 0.125 1.472656 0.00390625 1.234375 -0.234375 C 0.992188 -0.472656 0.875 -0.769531 0.875 -1.125 C 0.875 -1.46875 0.992188 -1.757812 1.234375 -2 C 1.472656 -2.238281 1.769531 -2.359375 2.125 -2.359375 C 2.457031 -2.359375 2.738281 -2.238281 2.96875 -2 C 3.195312 -1.757812 3.3125 -1.46875 3.3125 -1.125 C 3.3125 -0.769531 3.195312 -0.472656 2.96875 -0.234375 C 2.738281 0.00390625 2.457031 0.125 2.125 0.125 Z M 2.125 0.125 "/></g></g></g><g fill="#737373" fill-opacity="1"><g transform="translate(87.571623, 260.294983)"><g><path d="M 2.125 0.125 C 1.769531 0.125 1.472656 0.00390625 1.234375 -0.234375 C 0.992188 -0.472656 0.875 -0.769531 0.875 -1.125 C 0.875 -1.46875 0.992188 -1.757812 1.234375 -2 C 1.472656 -2.238281 1.769531 -2.359375 2.125 -2.359375 C 2.457031 -2.359375 2.738281 -2.238281 2.96875 -2 C 3.195312 -1.757812 3.3125 -1.46875 3.3125 -1.125 C 3.3125 -0.769531 3.195312 -0.472656 2.96875 -0.234375 C 2.738281 0.00390625 2.457031 0.125 2.125 0.125 Z M 2.125 0.125 "/></g></g></g><g fill="#737373" fill-opacity="1"><g transform="translate(9.002615, 288.044981)"><g/></g></g><g fill="#737373" fill-opacity="1"><g transform="translate(14.340505, 288.044981)"><g/></g></g><g fill="#737373" fill-opacity="1"><g transform="translate(19.678396, 288.044981)"><g/></g></g><g fill="#737373" fill-opacity="1"><g transform="translate(25.022145, 288.044981)"><g><path d="M 6.3125 0.1875 C 5.289062 0.1875 4.363281 -0.046875 3.53125 -0.515625 C 2.695312 -0.984375 2.039062 -1.644531 1.5625 -2.5 C 1.09375 -3.363281 0.859375 -4.363281 0.859375 -5.5 C 0.859375 -6.625 1.097656 -7.613281 1.578125 -8.46875 C 2.066406 -9.332031 2.734375 -9.992188 3.578125 -10.453125 C 4.421875 -10.910156 5.363281 -11.140625 6.40625 -11.140625 C 7.4375 -11.140625 8.375 -10.910156 9.21875 -10.453125 C 10.0625 -9.992188 10.722656 -9.335938 11.203125 -8.484375 C 11.691406 -7.628906 11.9375 -6.632812 11.9375 -5.5 C 11.9375 -4.363281 11.6875 -3.363281 11.1875 -2.5 C 10.6875 -1.644531 10.007812 -0.984375 9.15625 -0.515625 C 8.300781 -0.046875 7.351562 0.1875 6.3125 0.1875 Z M 6.3125 -1.421875 C 6.96875 -1.421875 7.582031 -1.570312 8.15625 -1.875 C 8.726562 -2.1875 9.191406 -2.648438 9.546875 -3.265625 C 9.898438 -3.878906 10.078125 -4.625 10.078125 -5.5 C 10.078125 -6.375 9.90625 -7.117188 9.5625 -7.734375 C 9.21875 -8.347656 8.765625 -8.804688 8.203125 -9.109375 C 7.640625 -9.410156 7.03125 -9.5625 6.375 -9.5625 C 5.707031 -9.5625 5.097656 -9.410156 4.546875 -9.109375 C 3.992188 -8.804688 3.550781 -8.347656 3.21875 -7.734375 C 2.882812 -7.117188 2.71875 -6.375 2.71875 -5.5 C 2.71875 -4.601562 2.878906 -3.847656 3.203125 -3.234375 C 3.535156 -2.617188 3.972656 -2.160156 4.515625 -1.859375 C 5.066406 -1.566406 5.664062 -1.421875 6.3125 -1.421875 Z M 6.3125 -1.421875 "/></g></g></g><g fill="#737373" fill-opacity="1"><g transform="translate(37.817097, 288.044981)"><g><path d="M 16.140625 -10.953125 L 12.71875 0 L 10.84375 0 L 8.203125 -8.703125 L 5.5625 0 L 3.6875 0 L 0.234375 -10.953125 L 2.09375 -10.953125 L 4.625 -1.765625 L 7.34375 -10.953125 L 9.203125 -10.953125 L 11.859375 -1.734375 L 14.34375 -10.953125 Z M 16.140625 -10.953125 "/></g></g></g><g fill="#737373" fill-opacity="1"><g transform="translate(54.210631, 288.044981)"><g><path d="M 6.875 -11.15625 C 8.207031 -11.15625 9.285156 -10.75 10.109375 -9.9375 C 10.941406 -9.132812 11.359375 -7.972656 11.359375 -6.453125 L 11.359375 0 L 9.5625 0 L 9.5625 -6.203125 C 9.5625 -7.296875 9.285156 -8.128906 8.734375 -8.703125 C 8.191406 -9.285156 7.445312 -9.578125 6.5 -9.578125 C 5.539062 -9.578125 4.773438 -9.273438 4.203125 -8.671875 C 3.640625 -8.078125 3.359375 -7.207031 3.359375 -6.0625 L 3.359375 0 L 1.546875 0 L 1.546875 -10.953125 L 3.359375 -10.953125 L 3.359375 -9.40625 C 3.722656 -9.957031 4.210938 -10.382812 4.828125 -10.6875 C 5.453125 -11 6.132812 -11.15625 6.875 -11.15625 Z M 6.875 -11.15625 "/></g></g></g><g fill="#737373" fill-opacity="1"><g transform="translate(67.005583, 288.044981)"><g><path d="M 11.546875 -5.90625 C 11.546875 -5.550781 11.523438 -5.179688 11.484375 -4.796875 L 2.71875 -4.796875 C 2.78125 -3.722656 3.148438 -2.878906 3.828125 -2.265625 C 4.503906 -1.660156 5.320312 -1.359375 6.28125 -1.359375 C 7.0625 -1.359375 7.71875 -1.539062 8.25 -1.90625 C 8.78125 -2.269531 9.148438 -2.757812 9.359375 -3.375 L 11.3125 -3.375 C 11.019531 -2.320312 10.429688 -1.460938 9.546875 -0.796875 C 8.671875 -0.140625 7.582031 0.1875 6.28125 0.1875 C 5.238281 0.1875 4.304688 -0.046875 3.484375 -0.515625 C 2.671875 -0.984375 2.03125 -1.644531 1.5625 -2.5 C 1.09375 -3.363281 0.859375 -4.363281 0.859375 -5.5 C 0.859375 -6.632812 1.082031 -7.628906 1.53125 -8.484375 C 1.988281 -9.335938 2.628906 -9.992188 3.453125 -10.453125 C 4.273438 -10.910156 5.21875 -11.140625 6.28125 -11.140625 C 7.320312 -11.140625 8.238281 -10.910156 9.03125 -10.453125 C 9.832031 -10.003906 10.453125 -9.382812 10.890625 -8.59375 C 11.328125 -7.800781 11.546875 -6.90625 11.546875 -5.90625 Z M 9.65625 -6.28125 C 9.65625 -6.96875 9.5 -7.5625 9.1875 -8.0625 C 8.882812 -8.5625 8.46875 -8.941406 7.9375 -9.203125 C 7.414062 -9.460938 6.835938 -9.59375 6.203125 -9.59375 C 5.273438 -9.59375 4.488281 -9.300781 3.84375 -8.71875 C 3.195312 -8.132812 2.828125 -7.320312 2.734375 -6.28125 Z M 9.65625 -6.28125 "/></g></g></g><g fill="#737373" fill-opacity="1"><g transform="translate(79.40069, 288.044981)"><g><path d="M 3.359375 -9.1875 C 3.679688 -9.8125 4.140625 -10.296875 4.734375 -10.640625 C 5.328125 -10.984375 6.050781 -11.15625 6.90625 -11.15625 L 6.90625 -9.28125 L 6.421875 -9.28125 C 4.378906 -9.28125 3.359375 -8.171875 3.359375 -5.953125 L 3.359375 0 L 1.546875 0 L 1.546875 -10.953125 L 3.359375 -10.953125 Z M 3.359375 -9.1875 "/></g></g></g><g fill="#737373" fill-opacity="1"><g transform="translate(86.857751, 288.044981)"><g><path d="M 5.421875 0.1875 C 4.578125 0.1875 3.820312 0.0390625 3.15625 -0.25 C 2.488281 -0.539062 1.960938 -0.941406 1.578125 -1.453125 C 1.191406 -1.960938 0.976562 -2.550781 0.9375 -3.21875 L 2.8125 -3.21875 C 2.875 -2.675781 3.132812 -2.226562 3.59375 -1.875 C 4.050781 -1.53125 4.65625 -1.359375 5.40625 -1.359375 C 6.09375 -1.359375 6.632812 -1.507812 7.03125 -1.8125 C 7.4375 -2.125 7.640625 -2.515625 7.640625 -2.984375 C 7.640625 -3.460938 7.425781 -3.816406 7 -4.046875 C 6.570312 -4.285156 5.910156 -4.515625 5.015625 -4.734375 C 4.203125 -4.953125 3.539062 -5.171875 3.03125 -5.390625 C 2.519531 -5.609375 2.078125 -5.929688 1.703125 -6.359375 C 1.335938 -6.796875 1.15625 -7.367188 1.15625 -8.078125 C 1.15625 -8.640625 1.320312 -9.148438 1.65625 -9.609375 C 1.988281 -10.078125 2.460938 -10.445312 3.078125 -10.71875 C 3.691406 -11 4.394531 -11.140625 5.1875 -11.140625 C 6.394531 -11.140625 7.367188 -10.832031 8.109375 -10.21875 C 8.859375 -9.601562 9.257812 -8.765625 9.3125 -7.703125 L 7.5 -7.703125 C 7.457031 -8.273438 7.226562 -8.734375 6.8125 -9.078125 C 6.394531 -9.421875 5.832031 -9.59375 5.125 -9.59375 C 4.46875 -9.59375 3.945312 -9.453125 3.5625 -9.171875 C 3.175781 -8.898438 2.984375 -8.535156 2.984375 -8.078125 C 2.984375 -7.722656 3.097656 -7.425781 3.328125 -7.1875 C 3.566406 -6.957031 3.859375 -6.769531 4.203125 -6.625 C 4.554688 -6.488281 5.050781 -6.332031 5.6875 -6.15625 C 6.46875 -5.945312 7.101562 -5.738281 7.59375 -5.53125 C 8.09375 -5.320312 8.519531 -5.007812 8.875 -4.59375 C 9.226562 -4.1875 9.410156 -3.648438 9.421875 -2.984375 C 9.421875 -2.378906 9.253906 -1.835938 8.921875 -1.359375 C 8.585938 -0.878906 8.113281 -0.5 7.5 -0.21875 C 6.894531 0.0507812 6.203125 0.1875 5.421875 0.1875 Z M 5.421875 0.1875 "/></g></g></g><g fill="#737373" fill-opacity="1"><g transform="translate(97.293629, 288.044981)"><g><path d="M 6.984375 -11.15625 C 7.804688 -11.15625 8.550781 -10.976562 9.21875 -10.625 C 9.882812 -10.269531 10.40625 -9.738281 10.78125 -9.03125 C 11.164062 -8.332031 11.359375 -7.472656 11.359375 -6.453125 L 11.359375 0 L 9.5625 0 L 9.5625 -6.203125 C 9.5625 -7.296875 9.285156 -8.128906 8.734375 -8.703125 C 8.191406 -9.285156 7.445312 -9.578125 6.5 -9.578125 C 5.539062 -9.578125 4.773438 -9.273438 4.203125 -8.671875 C 3.640625 -8.078125 3.359375 -7.207031 3.359375 -6.0625 L 3.359375 0 L 1.546875 0 L 1.546875 -14.796875 L 3.359375 -14.796875 L 3.359375 -9.40625 C 3.722656 -9.957031 4.21875 -10.382812 4.84375 -10.6875 C 5.476562 -11 6.191406 -11.15625 6.984375 -11.15625 Z M 6.984375 -11.15625 "/></g></g></g><g fill="#737373" fill-opacity="1"><g transform="translate(110.088581, 288.044981)"><g><path d="M 2.484375 -12.734375 C 2.128906 -12.734375 1.832031 -12.851562 1.59375 -13.09375 C 1.351562 -13.332031 1.234375 -13.628906 1.234375 -13.984375 C 1.234375 -14.328125 1.351562 -14.617188 1.59375 -14.859375 C 1.832031 -15.097656 2.128906 -15.21875 2.484375 -15.21875 C 2.816406 -15.21875 3.097656 -15.097656 3.328125 -14.859375 C 3.566406 -14.617188 3.6875 -14.328125 3.6875 -13.984375 C 3.6875 -13.628906 3.566406 -13.332031 3.328125 -13.09375 C 3.097656 -12.851562 2.816406 -12.734375 2.484375 -12.734375 Z M 3.359375 -10.953125 L 3.359375 0 L 1.546875 0 L 1.546875 -10.953125 Z M 3.359375 -10.953125 "/></g></g></g><g fill="#737373" fill-opacity="1"><g transform="translate(115.006645, 288.044981)"><g><path d="M 3.359375 -8.9375 C 3.722656 -9.5625 4.257812 -10.082031 4.96875 -10.5 C 5.6875 -10.925781 6.515625 -11.140625 7.453125 -11.140625 C 8.429688 -11.140625 9.316406 -10.90625 10.109375 -10.4375 C 10.898438 -9.96875 11.519531 -9.3125 11.96875 -8.46875 C 12.425781 -7.625 12.65625 -6.640625 12.65625 -5.515625 C 12.65625 -4.410156 12.425781 -3.425781 11.96875 -2.5625 C 11.519531 -1.695312 10.898438 -1.019531 10.109375 -0.53125 C 9.316406 -0.0507812 8.429688 0.1875 7.453125 0.1875 C 6.523438 0.1875 5.703125 -0.0195312 4.984375 -0.4375 C 4.273438 -0.863281 3.734375 -1.390625 3.359375 -2.015625 L 3.359375 5.203125 L 1.546875 5.203125 L 1.546875 -10.953125 L 3.359375 -10.953125 Z M 10.796875 -5.515625 C 10.796875 -6.347656 10.628906 -7.066406 10.296875 -7.671875 C 9.960938 -8.285156 9.507812 -8.753906 8.9375 -9.078125 C 8.375 -9.398438 7.753906 -9.5625 7.078125 -9.5625 C 6.410156 -9.5625 5.789062 -9.394531 5.21875 -9.0625 C 4.65625 -8.738281 4.203125 -8.265625 3.859375 -7.640625 C 3.523438 -7.023438 3.359375 -6.3125 3.359375 -5.5 C 3.359375 -4.675781 3.523438 -3.953125 3.859375 -3.328125 C 4.203125 -2.710938 4.65625 -2.238281 5.21875 -1.90625 C 5.789062 -1.582031 6.410156 -1.421875 7.078125 -1.421875 C 7.753906 -1.421875 8.375 -1.582031 8.9375 -1.90625 C 9.507812 -2.238281 9.960938 -2.710938 10.296875 -3.328125 C 10.628906 -3.953125 10.796875 -4.679688 10.796875 -5.515625 Z M 10.796875 -5.515625 "/></g></g></g><g fill="#737373" fill-opacity="1"><g transform="translate(128.521315, 288.044981)"><g><path d="M 2.125 0.125 C 1.769531 0.125 1.472656 0.00390625 1.234375 -0.234375 C 0.992188 -0.472656 0.875 -0.769531 0.875 -1.125 C 0.875 -1.46875 0.992188 -1.757812 1.234375 -2 C 1.472656 -2.238281 1.769531 -2.359375 2.125 -2.359375 C 2.457031 -2.359375 2.738281 -2.238281 2.96875 -2 C 3.195312 -1.757812 3.3125 -1.46875 3.3125 -1.125 C 3.3125 -0.769531 3.195312 -0.472656 2.96875 -0.234375 C 2.738281 0.00390625 2.457031 0.125 2.125 0.125 Z M 2.125 0.125 "/></g></g></g><g fill="#737373" fill-opacity="1"><g transform="translate(132.71966, 288.044981)"><g><path d="M 2.125 0.125 C 1.769531 0.125 1.472656 0.00390625 1.234375 -0.234375 C 0.992188 -0.472656 0.875 -0.769531 0.875 -1.125 C 0.875 -1.46875 0.992188 -1.757812 1.234375 -2 C 1.472656 -2.238281 1.769531 -2.359375 2.125 -2.359375 C 2.457031 -2.359375 2.738281 -2.238281 2.96875 -2 C 3.195312 -1.757812 3.3125 -1.46875 3.3125 -1.125 C 3.3125 -0.769531 3.195312 -0.472656 2.96875 -0.234375 C 2.738281 0.00390625 2.457031 0.125 2.125 0.125 Z M 2.125 0.125 "/></g></g></g><g fill="#737373" fill-opacity="1"><g transform="translate(136.918005, 288.044981)"><g><path d="M 2.125 0.125 C 1.769531 0.125 1.472656 0.00390625 1.234375 -0.234375 C 0.992188 -0.472656 0.875 -0.769531 0.875 -1.125 C 0.875 -1.46875 0.992188 -1.757812 1.234375 -2 C 1.472656 -2.238281 1.769531 -2.359375 2.125 -2.359375 C 2.457031 -2.359375 2.738281 -2.238281 2.96875 -2 C 3.195312 -1.757812 3.3125 -1.46875 3.3125 -1.125 C 3.3125 -0.769531 3.195312 -0.472656 2.96875 -0.234375 C 2.738281 0.00390625 2.457031 0.125 2.125 0.125 Z M 2.125 0.125 "/></g></g></g><g fill="#737373" fill-opacity="1"><g transform="translate(9.002615, 315.794979)"><g/></g></g><g fill="#737373" fill-opacity="1"><g transform="translate(14.340505, 315.794979)"><g/></g></g><g fill="#737373" fill-opacity="1"><g transform="translate(19.678396, 315.794979)"><g/></g></g><g fill="#737373" fill-opacity="1"><g transform="translate(25.016286, 315.794979)"><g/></g></g><g fill="#737373" fill-opacity="1"><g transform="translate(30.354176, 315.794979)"><g/></g></g><g fill="#737373" fill-opacity="1"><g transform="translate(35.692066, 315.794979)"><g/></g></g><g fill="#737373" fill-opacity="1"><g transform="translate(41.029957, 315.794979)"><g><path d="M 5.421875 0.1875 C 4.578125 0.1875 3.820312 0.0390625 3.15625 -0.25 C 2.488281 -0.539062 1.960938 -0.941406 1.578125 -1.453125 C 1.191406 -1.960938 0.976562 -2.550781 0.9375 -3.21875 L 2.8125 -3.21875 C 2.875 -2.675781 3.132812 -2.226562 3.59375 -1.875 C 4.050781 -1.53125 4.65625 -1.359375 5.40625 -1.359375 C 6.09375 -1.359375 6.632812 -1.507812 7.03125 -1.8125 C 7.4375 -2.125 7.640625 -2.515625 7.640625 -2.984375 C 7.640625 -3.460938 7.425781 -3.816406 7 -4.046875 C 6.570312 -4.285156 5.910156 -4.515625 5.015625 -4.734375 C 4.203125 -4.953125 3.539062 -5.171875 3.03125 -5.390625 C 2.519531 -5.609375 2.078125 -5.929688 1.703125 -6.359375 C 1.335938 -6.796875 1.15625 -7.367188 1.15625 -8.078125 C 1.15625 -8.640625 1.320312 -9.148438 1.65625 -9.609375 C 1.988281 -10.078125 2.460938 -10.445312 3.078125 -10.71875 C 3.691406 -11 4.394531 -11.140625 5.1875 -11.140625 C 6.394531 -11.140625 7.367188 -10.832031 8.109375 -10.21875 C 8.859375 -9.601562 9.257812 -8.765625 9.3125 -7.703125 L 7.5 -7.703125 C 7.457031 -8.273438 7.226562 -8.734375 6.8125 -9.078125 C 6.394531 -9.421875 5.832031 -9.59375 5.125 -9.59375 C 4.46875 -9.59375 3.945312 -9.453125 3.5625 -9.171875 C 3.175781 -8.898438 2.984375 -8.535156 2.984375 -8.078125 C 2.984375 -7.722656 3.097656 -7.425781 3.328125 -7.1875 C 3.566406 -6.957031 3.859375 -6.769531 4.203125 -6.625 C 4.554688 -6.488281 5.050781 -6.332031 5.6875 -6.15625 C 6.46875 -5.945312 7.101562 -5.738281 7.59375 -5.53125 C 8.09375 -5.320312 8.519531 -5.007812 8.875 -4.59375 C 9.226562 -4.1875 9.410156 -3.648438 9.421875 -2.984375 C 9.421875 -2.378906 9.253906 -1.835938 8.921875 -1.359375 C 8.585938 -0.878906 8.113281 -0.5 7.5 -0.21875 C 6.894531 0.0507812 6.203125 0.1875 5.421875 0.1875 Z M 5.421875 0.1875 "/></g></g></g><g fill="#737373" fill-opacity="1"><g transform="translate(51.465835, 315.794979)"><g><path d="M 6.984375 -11.15625 C 7.804688 -11.15625 8.550781 -10.976562 9.21875 -10.625 C 9.882812 -10.269531 10.40625 -9.738281 10.78125 -9.03125 C 11.164062 -8.332031 11.359375 -7.472656 11.359375 -6.453125 L 11.359375 0 L 9.5625 0 L 9.5625 -6.203125 C 9.5625 -7.296875 9.285156 -8.128906 8.734375 -8.703125 C 8.191406 -9.285156 7.445312 -9.578125 6.5 -9.578125 C 5.539062 -9.578125 4.773438 -9.273438 4.203125 -8.671875 C 3.640625 -8.078125 3.359375 -7.207031 3.359375 -6.0625 L 3.359375 0 L 1.546875 0 L 1.546875 -14.796875 L 3.359375 -14.796875 L 3.359375 -9.40625 C 3.722656 -9.957031 4.21875 -10.382812 4.84375 -10.6875 C 5.476562 -11 6.191406 -11.15625 6.984375 -11.15625 Z M 6.984375 -11.15625 "/></g></g></g><g fill="#737373" fill-opacity="1"><g transform="translate(64.260787, 315.794979)"><g><path d="M 0.859375 -5.515625 C 0.859375 -6.640625 1.082031 -7.625 1.53125 -8.46875 C 1.988281 -9.3125 2.613281 -9.96875 3.40625 -10.4375 C 4.195312 -10.90625 5.082031 -11.140625 6.0625 -11.140625 C 7.019531 -11.140625 7.851562 -10.929688 8.5625 -10.515625 C 9.269531 -10.109375 9.796875 -9.585938 10.140625 -8.953125 L 10.140625 -10.953125 L 11.984375 -10.953125 L 11.984375 0 L 10.140625 0 L 10.140625 -2.046875 C 9.773438 -1.398438 9.234375 -0.863281 8.515625 -0.4375 C 7.804688 -0.0195312 6.984375 0.1875 6.046875 0.1875 C 5.066406 0.1875 4.179688 -0.0507812 3.390625 -0.53125 C 2.609375 -1.019531 1.988281 -1.695312 1.53125 -2.5625 C 1.082031 -3.425781 0.859375 -4.410156 0.859375 -5.515625 Z M 10.140625 -5.5 C 10.140625 -6.320312 9.972656 -7.039062 9.640625 -7.65625 C 9.304688 -8.269531 8.851562 -8.738281 8.28125 -9.0625 C 7.71875 -9.394531 7.097656 -9.5625 6.421875 -9.5625 C 5.742188 -9.5625 5.125 -9.398438 4.5625 -9.078125 C 4 -8.753906 3.550781 -8.285156 3.21875 -7.671875 C 2.882812 -7.066406 2.71875 -6.347656 2.71875 -5.515625 C 2.71875 -4.679688 2.882812 -3.953125 3.21875 -3.328125 C 3.550781 -2.710938 4 -2.238281 4.5625 -1.90625 C 5.125 -1.582031 5.742188 -1.421875 6.421875 -1.421875 C 7.097656 -1.421875 7.71875 -1.582031 8.28125 -1.90625 C 8.851562 -2.238281 9.304688 -2.710938 9.640625 -3.328125 C 9.972656 -3.953125 10.140625 -4.675781 10.140625 -5.5 Z M 10.140625 -5.5 "/></g></g></g><g fill="#737373" fill-opacity="1"><g transform="translate(77.775457, 315.794979)"><g><path d="M 3.359375 -9.1875 C 3.679688 -9.8125 4.140625 -10.296875 4.734375 -10.640625 C 5.328125 -10.984375 6.050781 -11.15625 6.90625 -11.15625 L 6.90625 -9.28125 L 6.421875 -9.28125 C 4.378906 -9.28125 3.359375 -8.171875 3.359375 -5.953125 L 3.359375 0 L 1.546875 0 L 1.546875 -10.953125 L 3.359375 -10.953125 Z M 3.359375 -9.1875 "/></g></g></g><g fill="#737373" fill-opacity="1"><g transform="translate(85.232519, 315.794979)"><g><path d="M 11.546875 -5.90625 C 11.546875 -5.550781 11.523438 -5.179688 11.484375 -4.796875 L 2.71875 -4.796875 C 2.78125 -3.722656 3.148438 -2.878906 3.828125 -2.265625 C 4.503906 -1.660156 5.320312 -1.359375 6.28125 -1.359375 C 7.0625 -1.359375 7.71875 -1.539062 8.25 -1.90625 C 8.78125 -2.269531 9.148438 -2.757812 9.359375 -3.375 L 11.3125 -3.375 C 11.019531 -2.320312 10.429688 -1.460938 9.546875 -0.796875 C 8.671875 -0.140625 7.582031 0.1875 6.28125 0.1875 C 5.238281 0.1875 4.304688 -0.046875 3.484375 -0.515625 C 2.671875 -0.984375 2.03125 -1.644531 1.5625 -2.5 C 1.09375 -3.363281 0.859375 -4.363281 0.859375 -5.5 C 0.859375 -6.632812 1.082031 -7.628906 1.53125 -8.484375 C 1.988281 -9.335938 2.628906 -9.992188 3.453125 -10.453125 C 4.273438 -10.910156 5.21875 -11.140625 6.28125 -11.140625 C 7.320312 -11.140625 8.238281 -10.910156 9.03125 -10.453125 C 9.832031 -10.003906 10.453125 -9.382812 10.890625 -8.59375 C 11.328125 -7.800781 11.546875 -6.90625 11.546875 -5.90625 Z M 9.65625 -6.28125 C 9.65625 -6.96875 9.5 -7.5625 9.1875 -8.0625 C 8.882812 -8.5625 8.46875 -8.941406 7.9375 -9.203125 C 7.414062 -9.460938 6.835938 -9.59375 6.203125 -9.59375 C 5.273438 -9.59375 4.488281 -9.300781 3.84375 -8.71875 C 3.195312 -8.132812 2.828125 -7.320312 2.734375 -6.28125 Z M 9.65625 -6.28125 "/></g></g></g><g fill="#737373" fill-opacity="1"><g transform="translate(97.627625, 315.794979)"><g><path d="M 0.859375 -5.515625 C 0.859375 -6.640625 1.082031 -7.625 1.53125 -8.46875 C 1.988281 -9.3125 2.613281 -9.96875 3.40625 -10.4375 C 4.195312 -10.90625 5.082031 -11.140625 6.0625 -11.140625 C 7.019531 -11.140625 7.851562 -10.929688 8.5625 -10.515625 C 9.269531 -10.109375 9.796875 -9.585938 10.140625 -8.953125 L 10.140625 -10.953125 L 11.984375 -10.953125 L 11.984375 0 L 10.140625 0 L 10.140625 -2.046875 C 9.773438 -1.398438 9.234375 -0.863281 8.515625 -0.4375 C 7.804688 -0.0195312 6.984375 0.1875 6.046875 0.1875 C 5.066406 0.1875 4.179688 -0.0507812 3.390625 -0.53125 C 2.609375 -1.019531 1.988281 -1.695312 1.53125 -2.5625 C 1.082031 -3.425781 0.859375 -4.410156 0.859375 -5.515625 Z M 10.140625 -5.5 C 10.140625 -6.320312 9.972656 -7.039062 9.640625 -7.65625 C 9.304688 -8.269531 8.851562 -8.738281 8.28125 -9.0625 C 7.71875 -9.394531 7.097656 -9.5625 6.421875 -9.5625 C 5.742188 -9.5625 5.125 -9.398438 4.5625 -9.078125 C 4 -8.753906 3.550781 -8.285156 3.21875 -7.671875 C 2.882812 -7.066406 2.71875 -6.347656 2.71875 -5.515625 C 2.71875 -4.679688 2.882812 -3.953125 3.21875 -3.328125 C 3.550781 -2.710938 4 -2.238281 4.5625 -1.90625 C 5.125 -1.582031 5.742188 -1.421875 6.421875 -1.421875 C 7.097656 -1.421875 7.71875 -1.582031 8.28125 -1.90625 C 8.851562 -2.238281 9.304688 -2.710938 9.640625 -3.328125 C 9.972656 -3.953125 10.140625 -4.675781 10.140625 -5.5 Z M 10.140625 -5.5 "/></g></g></g><g fill="#737373" fill-opacity="1"><g transform="translate(111.142296, 315.794979)"><g><path d="M 3.359375 -8.921875 C 3.734375 -9.578125 4.28125 -10.109375 5 -10.515625 C 5.71875 -10.929688 6.535156 -11.140625 7.453125 -11.140625 C 8.441406 -11.140625 9.328125 -10.90625 10.109375 -10.4375 C 10.898438 -9.96875 11.519531 -9.3125 11.96875 -8.46875 C 12.425781 -7.625 12.65625 -6.640625 12.65625 -5.515625 C 12.65625 -4.410156 12.425781 -3.425781 11.96875 -2.5625 C 11.519531 -1.695312 10.898438 -1.019531 10.109375 -0.53125 C 9.316406 -0.0507812 8.429688 0.1875 7.453125 0.1875 C 6.515625 0.1875 5.6875 -0.0195312 4.96875 -0.4375 C 4.257812 -0.851562 3.722656 -1.378906 3.359375 -2.015625 L 3.359375 0 L 1.546875 0 L 1.546875 -14.796875 L 3.359375 -14.796875 Z M 10.796875 -5.515625 C 10.796875 -6.347656 10.628906 -7.066406 10.296875 -7.671875 C 9.960938 -8.285156 9.507812 -8.753906 8.9375 -9.078125 C 8.375 -9.398438 7.753906 -9.5625 7.078125 -9.5625 C 6.410156 -9.5625 5.789062 -9.394531 5.21875 -9.0625 C 4.65625 -8.738281 4.203125 -8.265625 3.859375 -7.640625 C 3.523438 -7.023438 3.359375 -6.3125 3.359375 -5.5 C 3.359375 -4.675781 3.523438 -3.953125 3.859375 -3.328125 C 4.203125 -2.710938 4.65625 -2.238281 5.21875 -1.90625 C 5.789062 -1.582031 6.410156 -1.421875 7.078125 -1.421875 C 7.753906 -1.421875 8.375 -1.582031 8.9375 -1.90625 C 9.507812 -2.238281 9.960938 -2.710938 10.296875 -3.328125 C 10.628906 -3.953125 10.796875 -4.679688 10.796875 -5.515625 Z M 10.796875 -5.515625 "/></g></g></g><g fill="#737373" fill-opacity="1"><g transform="translate(124.656966, 315.794979)"><g><path d="M 2.484375 -12.734375 C 2.128906 -12.734375 1.832031 -12.851562 1.59375 -13.09375 C 1.351562 -13.332031 1.234375 -13.628906 1.234375 -13.984375 C 1.234375 -14.328125 1.351562 -14.617188 1.59375 -14.859375 C 1.832031 -15.097656 2.128906 -15.21875 2.484375 -15.21875 C 2.816406 -15.21875 3.097656 -15.097656 3.328125 -14.859375 C 3.566406 -14.617188 3.6875 -14.328125 3.6875 -13.984375 C 3.6875 -13.628906 3.566406 -13.332031 3.328125 -13.09375 C 3.097656 -12.851562 2.816406 -12.734375 2.484375 -12.734375 Z M 3.359375 -10.953125 L 3.359375 0 L 1.546875 0 L 1.546875 -10.953125 Z M 3.359375 -10.953125 "/></g></g></g><g fill="#737373" fill-opacity="1"><g transform="translate(129.57503, 315.794979)"><g><path d="M 3.359375 -14.796875 L 3.359375 0 L 1.546875 0 L 1.546875 -14.796875 Z M 3.359375 -14.796875 "/></g></g></g><g fill="#737373" fill-opacity="1"><g transform="translate(134.493094, 315.794979)"><g><path d="M 2.484375 -12.734375 C 2.128906 -12.734375 1.832031 -12.851562 1.59375 -13.09375 C 1.351562 -13.332031 1.234375 -13.628906 1.234375 -13.984375 C 1.234375 -14.328125 1.351562 -14.617188 1.59375 -14.859375 C 1.832031 -15.097656 2.128906 -15.21875 2.484375 -15.21875 C 2.816406 -15.21875 3.097656 -15.097656 3.328125 -14.859375 C 3.566406 -14.617188 3.6875 -14.328125 3.6875 -13.984375 C 3.6875 -13.628906 3.566406 -13.332031 3.328125 -13.09375 C 3.097656 -12.851562 2.816406 -12.734375 2.484375 -12.734375 Z M 3.359375 -10.953125 L 3.359375 0 L 1.546875 0 L 1.546875 -10.953125 Z M 3.359375 -10.953125 "/></g></g></g><g fill="#737373" fill-opacity="1"><g transform="translate(139.411158, 315.794979)"><g><path d="M 3.765625 -9.453125 L 3.765625 -3 C 3.765625 -2.46875 3.875 -2.09375 4.09375 -1.875 C 4.320312 -1.65625 4.71875 -1.546875 5.28125 -1.546875 L 6.625 -1.546875 L 6.625 0 L 4.984375 0 C 3.960938 0 3.195312 -0.234375 2.6875 -0.703125 C 2.1875 -1.171875 1.9375 -1.9375 1.9375 -3 L 1.9375 -9.453125 L 0.515625 -9.453125 L 0.515625 -10.953125 L 1.9375 -10.953125 L 1.9375 -13.71875 L 3.765625 -13.71875 L 3.765625 -10.953125 L 6.625 -10.953125 L 6.625 -9.453125 Z M 3.765625 -9.453125 "/></g></g></g><g fill="#737373" fill-opacity="1"><g transform="translate(146.688283, 315.794979)"><g><path d="M 10.984375 -10.953125 L 4.375 5.15625 L 2.5 5.15625 L 4.65625 -0.125 L 0.234375 -10.953125 L 2.265625 -10.953125 L 5.703125 -2.078125 L 9.09375 -10.953125 Z M 10.984375 -10.953125 "/></g></g></g><g fill="#737373" fill-opacity="1"><g transform="translate(157.943845, 315.794979)"><g/></g></g><g fill="#000000" fill-opacity="1"><g transform="translate(163.291667, 315.794979)"><g><path d="M 6.3125 0.1875 C 5.289062 0.1875 4.363281 -0.046875 3.53125 -0.515625 C 2.695312 -0.984375 2.039062 -1.644531 1.5625 -2.5 C 1.09375 -3.363281 0.859375 -4.363281 0.859375 -5.5 C 0.859375 -6.625 1.097656 -7.613281 1.578125 -8.46875 C 2.066406 -9.332031 2.734375 -9.992188 3.578125 -10.453125 C 4.421875 -10.910156 5.363281 -11.140625 6.40625 -11.140625 C 7.4375 -11.140625 8.375 -10.910156 9.21875 -10.453125 C 10.0625 -9.992188 10.722656 -9.335938 11.203125 -8.484375 C 11.691406 -7.628906 11.9375 -6.632812 11.9375 -5.5 C 11.9375 -4.363281 11.6875 -3.363281 11.1875 -2.5 C 10.6875 -1.644531 10.007812 -0.984375 9.15625 -0.515625 C 8.300781 -0.046875 7.351562 0.1875 6.3125 0.1875 Z M 6.3125 -1.421875 C 6.96875 -1.421875 7.582031 -1.570312 8.15625 -1.875 C 8.726562 -2.1875 9.191406 -2.648438 9.546875 -3.265625 C 9.898438 -3.878906 10.078125 -4.625 10.078125 -5.5 C 10.078125 -6.375 9.90625 -7.117188 9.5625 -7.734375 C 9.21875 -8.347656 8.765625 -8.804688 8.203125 -9.109375 C 7.640625 -9.410156 7.03125 -9.5625 6.375 -9.5625 C 5.707031 -9.5625 5.097656 -9.410156 4.546875 -9.109375 C 3.992188 -8.804688 3.550781 -8.347656 3.21875 -7.734375 C 2.882812 -7.117188 2.71875 -6.375 2.71875 -5.5 C 2.71875 -4.601562 2.878906 -3.847656 3.203125 -3.234375 C 3.535156 -2.617188 3.972656 -2.160156 4.515625 -1.859375 C 5.066406 -1.566406 5.664062 -1.421875 6.3125 -1.421875 Z M 6.3125 -1.421875 "/></g></g></g><g fill="#000000" fill-opacity="1"><g transform="translate(176.086619, 315.794979)"><g><path d="M 6 -9.453125 L 3.703125 -9.453125 L 3.703125 0 L 1.875 0 L 1.875 -9.453125 L 0.453125 -9.453125 L 0.453125 -10.953125 L 1.875 -10.953125 L 1.875 -11.734375 C 1.875 -12.960938 2.191406 -13.859375 2.828125 -14.421875 C 3.460938 -14.992188 4.476562 -15.28125 5.875 -15.28125 L 5.875 -13.765625 C 5.082031 -13.765625 4.519531 -13.601562 4.1875 -13.28125 C 3.863281 -12.96875 3.703125 -12.453125 3.703125 -11.734375 L 3.703125 -10.953125 L 6 -10.953125 Z M 6 -9.453125 "/></g></g></g><g fill="#000000" fill-opacity="1"><g transform="translate(182.664019, 315.794979)"><g/></g></g><g fill="#000000" fill-opacity="1"><g transform="translate(188.001909, 315.794979)"><g><path d="M 10.984375 -10.953125 L 4.375 5.15625 L 2.5 5.15625 L 4.65625 -0.125 L 0.234375 -10.953125 L 2.265625 -10.953125 L 5.703125 -2.078125 L 9.09375 -10.953125 Z M 10.984375 -10.953125 "/></g></g></g><g fill="#000000" fill-opacity="1"><g transform="translate(199.257471, 315.794979)"><g><path d="M 6.3125 0.1875 C 5.289062 0.1875 4.363281 -0.046875 3.53125 -0.515625 C 2.695312 -0.984375 2.039062 -1.644531 1.5625 -2.5 C 1.09375 -3.363281 0.859375 -4.363281 0.859375 -5.5 C 0.859375 -6.625 1.097656 -7.613281 1.578125 -8.46875 C 2.066406 -9.332031 2.734375 -9.992188 3.578125 -10.453125 C 4.421875 -10.910156 5.363281 -11.140625 6.40625 -11.140625 C 7.4375 -11.140625 8.375 -10.910156 9.21875 -10.453125 C 10.0625 -9.992188 10.722656 -9.335938 11.203125 -8.484375 C 11.691406 -7.628906 11.9375 -6.632812 11.9375 -5.5 C 11.9375 -4.363281 11.6875 -3.363281 11.1875 -2.5 C 10.6875 -1.644531 10.007812 -0.984375 9.15625 -0.515625 C 8.300781 -0.046875 7.351562 0.1875 6.3125 0.1875 Z M 6.3125 -1.421875 C 6.96875 -1.421875 7.582031 -1.570312 8.15625 -1.875 C 8.726562 -2.1875 9.191406 -2.648438 9.546875 -3.265625 C 9.898438 -3.878906 10.078125 -4.625 10.078125 -5.5 C 10.078125 -6.375 9.90625 -7.117188 9.5625 -7.734375 C 9.21875 -8.347656 8.765625 -8.804688 8.203125 -9.109375 C 7.640625 -9.410156 7.03125 -9.5625 6.375 -9.5625 C 5.707031 -9.5625 5.097656 -9.410156 4.546875 -9.109375 C 3.992188 -8.804688 3.550781 -8.347656 3.21875 -7.734375 C 2.882812 -7.117188 2.71875 -6.375 2.71875 -5.5 C 2.71875 -4.601562 2.878906 -3.847656 3.203125 -3.234375 C 3.535156 -2.617188 3.972656 -2.160156 4.515625 -1.859375 C 5.066406 -1.566406 5.664062 -1.421875 6.3125 -1.421875 Z M 6.3125 -1.421875 "/></g></g></g><g fill="#000000" fill-opacity="1"><g transform="translate(212.052422, 315.794979)"><g><path d="M 11.265625 -10.953125 L 11.265625 0 L 9.4375 0 L 9.4375 -1.625 C 9.09375 -1.0625 8.609375 -0.625 7.984375 -0.3125 C 7.367188 0 6.6875 0.15625 5.9375 0.15625 C 5.082031 0.15625 4.316406 -0.0195312 3.640625 -0.375 C 2.960938 -0.726562 2.425781 -1.253906 2.03125 -1.953125 C 1.632812 -2.660156 1.4375 -3.523438 1.4375 -4.546875 L 1.4375 -10.953125 L 3.234375 -10.953125 L 3.234375 -4.78125 C 3.234375 -3.695312 3.503906 -2.863281 4.046875 -2.28125 C 4.597656 -1.707031 5.347656 -1.421875 6.296875 -1.421875 C 7.273438 -1.421875 8.039062 -1.71875 8.59375 -2.3125 C 9.15625 -2.914062 9.4375 -3.789062 9.4375 -4.9375 L 9.4375 -10.953125 Z M 11.265625 -10.953125 "/></g></g></g><g fill="#000000" fill-opacity="1"><g transform="translate(224.847374, 315.794979)"><g><path d="M 3.359375 -9.1875 C 3.679688 -9.8125 4.140625 -10.296875 4.734375 -10.640625 C 5.328125 -10.984375 6.050781 -11.15625 6.90625 -11.15625 L 6.90625 -9.28125 L 6.421875 -9.28125 C 4.378906 -9.28125 3.359375 -8.171875 3.359375 -5.953125 L 3.359375 0 L 1.546875 0 L 1.546875 -10.953125 L 3.359375 -10.953125 Z M 3.359375 -9.1875 "/></g></g></g><g fill="#000000" fill-opacity="1"><g transform="translate(232.304436, 315.794979)"><g/></g></g><g fill="#000000" fill-opacity="1"><g transform="translate(237.642326, 315.794979)"><g><path d="M 0.859375 -5.515625 C 0.859375 -6.640625 1.082031 -7.625 1.53125 -8.46875 C 1.988281 -9.3125 2.613281 -9.96875 3.40625 -10.4375 C 4.195312 -10.90625 5.085938 -11.140625 6.078125 -11.140625 C 6.929688 -11.140625 7.722656 -10.941406 8.453125 -10.546875 C 9.191406 -10.148438 9.753906 -9.632812 10.140625 -9 L 10.140625 -14.796875 L 11.984375 -14.796875 L 11.984375 0 L 10.140625 0 L 10.140625 -2.0625 C 9.773438 -1.40625 9.238281 -0.863281 8.53125 -0.4375 C 7.832031 -0.0195312 7.007812 0.1875 6.0625 0.1875 C 5.082031 0.1875 4.195312 -0.0507812 3.40625 -0.53125 C 2.613281 -1.019531 1.988281 -1.695312 1.53125 -2.5625 C 1.082031 -3.425781 0.859375 -4.410156 0.859375 -5.515625 Z M 10.140625 -5.5 C 10.140625 -6.320312 9.972656 -7.039062 9.640625 -7.65625 C 9.304688 -8.269531 8.851562 -8.738281 8.28125 -9.0625 C 7.71875 -9.394531 7.097656 -9.5625 6.421875 -9.5625 C 5.742188 -9.5625 5.125 -9.398438 4.5625 -9.078125 C 4 -8.753906 3.550781 -8.285156 3.21875 -7.671875 C 2.882812 -7.066406 2.71875 -6.347656 2.71875 -5.515625 C 2.71875 -4.679688 2.882812 -3.953125 3.21875 -3.328125 C 3.550781 -2.710938 4 -2.238281 4.5625 -1.90625 C 5.125 -1.582031 5.742188 -1.421875 6.421875 -1.421875 C 7.097656 -1.421875 7.71875 -1.582031 8.28125 -1.90625 C 8.851562 -2.238281 9.304688 -2.710938 9.640625 -3.328125 C 9.972656 -3.953125 10.140625 -4.675781 10.140625 -5.5 Z M 10.140625 -5.5 "/></g></g></g><g fill="#000000" fill-opacity="1"><g transform="translate(251.156996, 315.794979)"><g><path d="M 0.859375 -5.515625 C 0.859375 -6.640625 1.082031 -7.625 1.53125 -8.46875 C 1.988281 -9.3125 2.613281 -9.96875 3.40625 -10.4375 C 4.195312 -10.90625 5.082031 -11.140625 6.0625 -11.140625 C 7.019531 -11.140625 7.851562 -10.929688 8.5625 -10.515625 C 9.269531 -10.109375 9.796875 -9.585938 10.140625 -8.953125 L 10.140625 -10.953125 L 11.984375 -10.953125 L 11.984375 0 L 10.140625 0 L 10.140625 -2.046875 C 9.773438 -1.398438 9.234375 -0.863281 8.515625 -0.4375 C 7.804688 -0.0195312 6.984375 0.1875 6.046875 0.1875 C 5.066406 0.1875 4.179688 -0.0507812 3.390625 -0.53125 C 2.609375 -1.019531 1.988281 -1.695312 1.53125 -2.5625 C 1.082031 -3.425781 0.859375 -4.410156 0.859375 -5.515625 Z M 10.140625 -5.5 C 10.140625 -6.320312 9.972656 -7.039062 9.640625 -7.65625 C 9.304688 -8.269531 8.851562 -8.738281 8.28125 -9.0625 C 7.71875 -9.394531 7.097656 -9.5625 6.421875 -9.5625 C 5.742188 -9.5625 5.125 -9.398438 4.5625 -9.078125 C 4 -8.753906 3.550781 -8.285156 3.21875 -7.671875 C 2.882812 -7.066406 2.71875 -6.347656 2.71875 -5.515625 C 2.71875 -4.679688 2.882812 -3.953125 3.21875 -3.328125 C 3.550781 -2.710938 4 -2.238281 4.5625 -1.90625 C 5.125 -1.582031 5.742188 -1.421875 6.421875 -1.421875 C 7.097656 -1.421875 7.71875 -1.582031 8.28125 -1.90625 C 8.851562 -2.238281 9.304688 -2.710938 9.640625 -3.328125 C 9.972656 -3.953125 10.140625 -4.675781 10.140625 -5.5 Z M 10.140625 -5.5 "/></g></g></g><g fill="#000000" fill-opacity="1"><g transform="translate(264.671667, 315.794979)"><g><path d="M 3.765625 -9.453125 L 3.765625 -3 C 3.765625 -2.46875 3.875 -2.09375 4.09375 -1.875 C 4.320312 -1.65625 4.71875 -1.546875 5.28125 -1.546875 L 6.625 -1.546875 L 6.625 0 L 4.984375 0 C 3.960938 0 3.195312 -0.234375 2.6875 -0.703125 C 2.1875 -1.171875 1.9375 -1.9375 1.9375 -3 L 1.9375 -9.453125 L 0.515625 -9.453125 L 0.515625 -10.953125 L 1.9375 -10.953125 L 1.9375 -13.71875 L 3.765625 -13.71875 L 3.765625 -10.953125 L 6.625 -10.953125 L 6.625 -9.453125 Z M 3.765625 -9.453125 "/></g></g></g><g fill="#000000" fill-opacity="1"><g transform="translate(271.948793, 315.794979)"><g><path d="M 0.859375 -5.515625 C 0.859375 -6.640625 1.082031 -7.625 1.53125 -8.46875 C 1.988281 -9.3125 2.613281 -9.96875 3.40625 -10.4375 C 4.195312 -10.90625 5.082031 -11.140625 6.0625 -11.140625 C 7.019531 -11.140625 7.851562 -10.929688 8.5625 -10.515625 C 9.269531 -10.109375 9.796875 -9.585938 10.140625 -8.953125 L 10.140625 -10.953125 L 11.984375 -10.953125 L 11.984375 0 L 10.140625 0 L 10.140625 -2.046875 C 9.773438 -1.398438 9.234375 -0.863281 8.515625 -0.4375 C 7.804688 -0.0195312 6.984375 0.1875 6.046875 0.1875 C 5.066406 0.1875 4.179688 -0.0507812 3.390625 -0.53125 C 2.609375 -1.019531 1.988281 -1.695312 1.53125 -2.5625 C 1.082031 -3.425781 0.859375 -4.410156 0.859375 -5.515625 Z M 10.140625 -5.5 C 10.140625 -6.320312 9.972656 -7.039062 9.640625 -7.65625 C 9.304688 -8.269531 8.851562 -8.738281 8.28125 -9.0625 C 7.71875 -9.394531 7.097656 -9.5625 6.421875 -9.5625 C 5.742188 -9.5625 5.125 -9.398438 4.5625 -9.078125 C 4 -8.753906 3.550781 -8.285156 3.21875 -7.671875 C 2.882812 -7.066406 2.71875 -6.347656 2.71875 -5.515625 C 2.71875 -4.679688 2.882812 -3.953125 3.21875 -3.328125 C 3.550781 -2.710938 4 -2.238281 4.5625 -1.90625 C 5.125 -1.582031 5.742188 -1.421875 6.421875 -1.421875 C 7.097656 -1.421875 7.71875 -1.582031 8.28125 -1.90625 C 8.851562 -2.238281 9.304688 -2.710938 9.640625 -3.328125 C 9.972656 -3.953125 10.140625 -4.675781 10.140625 -5.5 Z M 10.140625 -5.5 "/></g></g></g><g fill="#000000" fill-opacity="1"><g transform="translate(285.463464, 315.794979)"><g/></g></g><g fill="#000000" fill-opacity="1"><g transform="translate(290.801354, 315.794979)"><g><path d="M 2.484375 -12.734375 C 2.128906 -12.734375 1.832031 -12.851562 1.59375 -13.09375 C 1.351562 -13.332031 1.234375 -13.628906 1.234375 -13.984375 C 1.234375 -14.328125 1.351562 -14.617188 1.59375 -14.859375 C 1.832031 -15.097656 2.128906 -15.21875 2.484375 -15.21875 C 2.816406 -15.21875 3.097656 -15.097656 3.328125 -14.859375 C 3.566406 -14.617188 3.6875 -14.328125 3.6875 -13.984375 C 3.6875 -13.628906 3.566406 -13.332031 3.328125 -13.09375 C 3.097656 -12.851562 2.816406 -12.734375 2.484375 -12.734375 Z M 3.359375 -10.953125 L 3.359375 0 L 1.546875 0 L 1.546875 -10.953125 Z M 3.359375 -10.953125 "/></g></g></g><g fill="#000000" fill-opacity="1"><g transform="translate(295.719418, 315.794979)"><g><path d="M 0.859375 -5.515625 C 0.859375 -6.640625 1.082031 -7.625 1.53125 -8.46875 C 1.988281 -9.3125 2.613281 -9.96875 3.40625 -10.4375 C 4.195312 -10.90625 5.085938 -11.140625 6.078125 -11.140625 C 6.929688 -11.140625 7.722656 -10.941406 8.453125 -10.546875 C 9.191406 -10.148438 9.753906 -9.632812 10.140625 -9 L 10.140625 -14.796875 L 11.984375 -14.796875 L 11.984375 0 L 10.140625 0 L 10.140625 -2.0625 C 9.773438 -1.40625 9.238281 -0.863281 8.53125 -0.4375 C 7.832031 -0.0195312 7.007812 0.1875 6.0625 0.1875 C 5.082031 0.1875 4.195312 -0.0507812 3.40625 -0.53125 C 2.613281 -1.019531 1.988281 -1.695312 1.53125 -2.5625 C 1.082031 -3.425781 0.859375 -4.410156 0.859375 -5.515625 Z M 10.140625 -5.5 C 10.140625 -6.320312 9.972656 -7.039062 9.640625 -7.65625 C 9.304688 -8.269531 8.851562 -8.738281 8.28125 -9.0625 C 7.71875 -9.394531 7.097656 -9.5625 6.421875 -9.5625 C 5.742188 -9.5625 5.125 -9.398438 4.5625 -9.078125 C 4 -8.753906 3.550781 -8.285156 3.21875 -7.671875 C 2.882812 -7.066406 2.71875 -6.347656 2.71875 -5.515625 C 2.71875 -4.679688 2.882812 -3.953125 3.21875 -3.328125 C 3.550781 -2.710938 4 -2.238281 4.5625 -1.90625 C 5.125 -1.582031 5.742188 -1.421875 6.421875 -1.421875 C 7.097656 -1.421875 7.71875 -1.582031 8.28125 -1.90625 C 8.851562 -2.238281 9.304688 -2.710938 9.640625 -3.328125 C 9.972656 -3.953125 10.140625 -4.675781 10.140625 -5.5 Z M 10.140625 -5.5 "/></g></g></g><g fill="#000000" fill-opacity="1"><g transform="translate(309.234088, 315.794979)"><g><path d="M 11.546875 -5.90625 C 11.546875 -5.550781 11.523438 -5.179688 11.484375 -4.796875 L 2.71875 -4.796875 C 2.78125 -3.722656 3.148438 -2.878906 3.828125 -2.265625 C 4.503906 -1.660156 5.320312 -1.359375 6.28125 -1.359375 C 7.0625 -1.359375 7.71875 -1.539062 8.25 -1.90625 C 8.78125 -2.269531 9.148438 -2.757812 9.359375 -3.375 L 11.3125 -3.375 C 11.019531 -2.320312 10.429688 -1.460938 9.546875 -0.796875 C 8.671875 -0.140625 7.582031 0.1875 6.28125 0.1875 C 5.238281 0.1875 4.304688 -0.046875 3.484375 -0.515625 C 2.671875 -0.984375 2.03125 -1.644531 1.5625 -2.5 C 1.09375 -3.363281 0.859375 -4.363281 0.859375 -5.5 C 0.859375 -6.632812 1.082031 -7.628906 1.53125 -8.484375 C 1.988281 -9.335938 2.628906 -9.992188 3.453125 -10.453125 C 4.273438 -10.910156 5.21875 -11.140625 6.28125 -11.140625 C 7.320312 -11.140625 8.238281 -10.910156 9.03125 -10.453125 C 9.832031 -10.003906 10.453125 -9.382812 10.890625 -8.59375 C 11.328125 -7.800781 11.546875 -6.90625 11.546875 -5.90625 Z M 9.65625 -6.28125 C 9.65625 -6.96875 9.5 -7.5625 9.1875 -8.0625 C 8.882812 -8.5625 8.46875 -8.941406 7.9375 -9.203125 C 7.414062 -9.460938 6.835938 -9.59375 6.203125 -9.59375 C 5.273438 -9.59375 4.488281 -9.300781 3.84375 -8.71875 C 3.195312 -8.132812 2.828125 -7.320312 2.734375 -6.28125 Z M 9.65625 -6.28125 "/></g></g></g><g fill="#000000" fill-opacity="1"><g transform="translate(321.629195, 315.794979)"><g><path d="M 6.875 -11.15625 C 8.207031 -11.15625 9.285156 -10.75 10.109375 -9.9375 C 10.941406 -9.132812 11.359375 -7.972656 11.359375 -6.453125 L 11.359375 0 L 9.5625 0 L 9.5625 -6.203125 C 9.5625 -7.296875 9.285156 -8.128906 8.734375 -8.703125 C 8.191406 -9.285156 7.445312 -9.578125 6.5 -9.578125 C 5.539062 -9.578125 4.773438 -9.273438 4.203125 -8.671875 C 3.640625 -8.078125 3.359375 -7.207031 3.359375 -6.0625 L 3.359375 0 L 1.546875 0 L 1.546875 -10.953125 L 3.359375 -10.953125 L 3.359375 -9.40625 C 3.722656 -9.957031 4.210938 -10.382812 4.828125 -10.6875 C 5.453125 -11 6.132812 -11.15625 6.875 -11.15625 Z M 6.875 -11.15625 "/></g></g></g><g fill="#000000" fill-opacity="1"><g transform="translate(334.424147, 315.794979)"><g><path d="M 3.765625 -9.453125 L 3.765625 -3 C 3.765625 -2.46875 3.875 -2.09375 4.09375 -1.875 C 4.320312 -1.65625 4.71875 -1.546875 5.28125 -1.546875 L 6.625 -1.546875 L 6.625 0 L 4.984375 0 C 3.960938 0 3.195312 -0.234375 2.6875 -0.703125 C 2.1875 -1.171875 1.9375 -1.9375 1.9375 -3 L 1.9375 -9.453125 L 0.515625 -9.453125 L 0.515625 -10.953125 L 1.9375 -10.953125 L 1.9375 -13.71875 L 3.765625 -13.71875 L 3.765625 -10.953125 L 6.625 -10.953125 L 6.625 -9.453125 Z M 3.765625 -9.453125 "/></g></g></g><g fill="#000000" fill-opacity="1"><g transform="translate(341.701272, 315.794979)"><g><path d="M 2.484375 -12.734375 C 2.128906 -12.734375 1.832031 -12.851562 1.59375 -13.09375 C 1.351562 -13.332031 1.234375 -13.628906 1.234375 -13.984375 C 1.234375 -14.328125 1.351562 -14.617188 1.59375 -14.859375 C 1.832031 -15.097656 2.128906 -15.21875 2.484375 -15.21875 C 2.816406 -15.21875 3.097656 -15.097656 3.328125 -14.859375 C 3.566406 -14.617188 3.6875 -14.328125 3.6875 -13.984375 C 3.6875 -13.628906 3.566406 -13.332031 3.328125 -13.09375 C 3.097656 -12.851562 2.816406 -12.734375 2.484375 -12.734375 Z M 3.359375 -10.953125 L 3.359375 0 L 1.546875 0 L 1.546875 -10.953125 Z M 3.359375 -10.953125 "/></g></g></g><g fill="#000000" fill-opacity="1"><g transform="translate(346.619336, 315.794979)"><g><path d="M 3.765625 -9.453125 L 3.765625 -3 C 3.765625 -2.46875 3.875 -2.09375 4.09375 -1.875 C 4.320312 -1.65625 4.71875 -1.546875 5.28125 -1.546875 L 6.625 -1.546875 L 6.625 0 L 4.984375 0 C 3.960938 0 3.195312 -0.234375 2.6875 -0.703125 C 2.1875 -1.171875 1.9375 -1.9375 1.9375 -3 L 1.9375 -9.453125 L 0.515625 -9.453125 L 0.515625 -10.953125 L 1.9375 -10.953125 L 1.9375 -13.71875 L 3.765625 -13.71875 L 3.765625 -10.953125 L 6.625 -10.953125 L 6.625 -9.453125 Z M 3.765625 -9.453125 "/></g></g></g><g fill="#000000" fill-opacity="1"><g transform="translate(353.896462, 315.794979)"><g><path d="M 10.984375 -10.953125 L 4.375 5.15625 L 2.5 5.15625 L 4.65625 -0.125 L 0.234375 -10.953125 L 2.265625 -10.953125 L 5.703125 -2.078125 L 9.09375 -10.953125 Z M 10.984375 -10.953125 "/></g></g></g></svg>