<svg xmlns="http://www.w3.org/2000/svg" xmlns:xlink="http://www.w3.org/1999/xlink" width="500" zoomAndPan="magnify" viewBox="0 0 375 374.999991" height="500" preserveAspectRatio="xMidYMid meet" version="1.0"><defs><g/><clipPath id="7a88bd9ea6"><path d="M 164 101.433594 L 169 101.433594 L 169 106 L 164 106 Z M 164 101.433594 " clip-rule="nonzero"/></clipPath><clipPath id="e0ac108c8c"><path d="M 114.125 110 L 155 110 L 155 156 L 114.125 156 Z M 114.125 110 " clip-rule="nonzero"/></clipPath><clipPath id="3b49c47c6e"><path d="M 176 110 L 217.378906 110 L 217.378906 156 L 176 156 Z M 176 110 " clip-rule="nonzero"/></clipPath><clipPath id="b2e7f7e795"><path d="M 164 155 L 187 155 L 187 205.683594 L 164 205.683594 Z M 164 155 " clip-rule="nonzero"/></clipPath></defs><g clip-path="url(#7a88bd9ea6)"><path fill="#1a3c6e" d="M 168.148438 105.921875 C 168.148438 105.921875 168.148438 105.921875 168.144531 105.921875 C 167.351562 105.890625 166.554688 105.875 165.753906 105.875 C 165.421875 105.875 165.09375 105.878906 164.761719 105.886719 C 164.53125 105.890625 164.339844 105.710938 164.339844 105.476562 L 164.339844 103.550781 C 164.339844 102.964844 164.578125 102.433594 164.960938 102.054688 C 165.34375 101.671875 165.875 101.433594 166.457031 101.433594 C 167.042969 101.433594 167.574219 101.671875 167.953125 102.054688 C 168.335938 102.433594 168.574219 102.964844 168.574219 103.550781 L 168.574219 105.511719 C 168.578125 105.746094 168.382812 105.933594 168.148438 105.921875 Z M 168.148438 105.921875 " fill-opacity="1" fill-rule="evenodd"/></g><path fill="#1a3c6e" d="M 165.753906 109.457031 C 171.28125 109.457031 176.417969 114.757812 180.25 123.332031 C 183.957031 131.628906 186.367188 142.886719 186.71875 155.429688 C 186.726562 155.738281 186.402344 155.945312 186.121094 155.804688 C 185.042969 155.253906 183.78125 154.765625 182.359375 154.34375 C 179.546875 153.515625 176.050781 152.890625 172.15625 152.558594 L 172.15625 152.539062 L 171.125 152.476562 C 170.90625 152.460938 170.691406 152.449219 170.46875 152.433594 C 168.933594 152.339844 167.347656 152.289062 165.726562 152.289062 C 165.179688 152.289062 164.636719 152.292969 164.101562 152.304688 C 163.550781 152.316406 163.011719 152.332031 162.476562 152.351562 C 162.171875 152.367188 161.871094 152.378906 161.570312 152.398438 L 160.753906 152.429688 L 160.753906 152.445312 C 156.523438 152.71875 152.699219 153.332031 149.628906 154.1875 C 149.445312 154.238281 149.269531 154.289062 149.089844 154.34375 C 147.691406 154.757812 146.445312 155.238281 145.375 155.777344 C 145.097656 155.917969 144.769531 155.714844 144.78125 155.402344 C 145.136719 142.867188 147.542969 131.621094 151.25 123.328125 C 155.089844 114.757812 160.226562 109.457031 165.753906 109.457031 Z M 165.753906 109.457031 " fill-opacity="1" fill-rule="evenodd"/><g clip-path="url(#e0ac108c8c)"><path fill="#c9a84c" d="M 128.972656 123.894531 C 135.804688 117.414062 144.539062 112.726562 154.316406 110.652344 C 154.710938 110.566406 154.980469 111.039062 154.703125 111.332031 C 152.179688 114.011719 149.914062 117.589844 147.996094 121.875 C 144.148438 130.476562 141.640625 142.023438 141.222656 154.832031 C 141.210938 155.140625 140.878906 155.328125 140.613281 155.175781 C 140.140625 154.90625 139.640625 154.65625 139.105469 154.421875 C 136.089844 153.109375 131.96875 152.292969 127.457031 152.292969 C 123.152344 152.292969 119.199219 153.039062 116.222656 154.253906 C 115.636719 154.496094 115.082031 154.753906 114.566406 155.035156 C 114.28125 155.191406 113.929688 154.96875 113.957031 154.644531 C 114.976562 142.671875 120.523438 131.910156 128.972656 123.894531 Z M 128.972656 123.894531 " fill-opacity="1" fill-rule="evenodd"/></g><g clip-path="url(#3b49c47c6e)"><path fill="#c9a84c" d="M 176.804688 111.332031 C 176.527344 111.039062 176.796875 110.566406 177.1875 110.652344 C 186.96875 112.726562 195.703125 117.414062 202.535156 123.894531 C 210.9375 131.867188 216.472656 142.558594 217.535156 154.453125 C 217.5625 154.78125 217.214844 155.003906 216.925781 154.84375 C 216.398438 154.558594 215.832031 154.296875 215.230469 154.054688 C 212.269531 152.859375 208.347656 152.128906 204.070312 152.128906 C 199.558594 152.128906 195.441406 152.945312 192.421875 154.257812 C 191.648438 154.597656 190.9375 154.972656 190.300781 155.382812 C 189.9375 142.355469 187.410156 130.601562 183.507812 121.875 C 181.59375 117.589844 179.328125 114.011719 176.804688 111.332031 Z M 176.804688 111.332031 " fill-opacity="1" fill-rule="evenodd"/></g><g clip-path="url(#b2e7f7e795)"><path fill="#1a3c6e" d="M 164.746094 155.882812 C 165.074219 155.875 165.402344 155.875 165.730469 155.875 C 166.699219 155.875 167.644531 155.894531 168.578125 155.921875 L 168.578125 194.394531 C 168.578125 195.300781 168.765625 196.171875 169.105469 196.96875 C 169.449219 197.789062 169.957031 198.53125 170.582031 199.144531 C 171.214844 199.773438 171.976562 200.277344 172.816406 200.621094 C 173.628906 200.953125 174.515625 201.132812 175.445312 201.132812 C 176.371094 201.132812 177.257812 200.949219 178.070312 200.621094 C 178.914062 200.277344 179.671875 199.769531 180.308594 199.144531 C 180.933594 198.53125 181.4375 197.789062 181.789062 196.96875 C 182.121094 196.175781 182.308594 195.304688 182.308594 194.394531 L 182.308594 192.074219 C 182.308594 191.488281 182.546875 190.957031 182.929688 190.578125 C 183.308594 190.199219 183.839844 189.960938 184.425781 189.960938 C 185.007812 189.960938 185.539062 190.199219 185.921875 190.578125 C 186.300781 190.960938 186.539062 191.492188 186.539062 192.074219 L 186.539062 194.394531 C 186.539062 195.882812 186.242188 197.296875 185.699219 198.578125 C 185.132812 199.921875 184.300781 201.132812 183.265625 202.15625 C 182.238281 203.167969 181.011719 203.988281 179.660156 204.546875 C 178.367188 205.078125 176.941406 205.371094 175.441406 205.371094 C 173.941406 205.371094 172.515625 205.078125 171.222656 204.546875 C 169.871094 203.992188 168.648438 203.171875 167.617188 202.15625 C 166.582031 201.136719 165.75 199.921875 165.183594 198.582031 C 164.640625 197.300781 164.34375 195.886719 164.34375 194.394531 L 164.34375 156.292969 C 164.34375 156.070312 164.523438 155.882812 164.746094 155.882812 Z M 164.746094 155.882812 " fill-opacity="1" fill-rule="evenodd"/></g><g fill="#1a3c6e" fill-opacity="1"><g transform="translate(186.85546, 204.390983)"><g><path d="M 6.421875 -15.984375 C 7.078125 -16.835938 7.972656 -17.5625 9.109375 -18.15625 C 10.242188 -18.75 11.523438 -19.046875 12.953125 -19.046875 C 14.585938 -19.046875 16.078125 -18.640625 17.421875 -17.828125 C 18.773438 -17.023438 19.835938 -15.898438 20.609375 -14.453125 C 21.378906 -13.003906 21.765625 -11.335938 21.765625 -9.453125 C 21.765625 -7.566406 21.378906 -5.878906 20.609375 -4.390625 C 19.835938 -2.910156 18.773438 -1.753906 17.421875 -0.921875 C 16.078125 -0.0976562 14.585938 0.3125 12.953125 0.3125 C 11.523438 0.3125 10.253906 0.0234375 9.140625 -0.546875 C 8.035156 -1.128906 7.128906 -1.851562 6.421875 -2.71875 L 6.421875 8.90625 L 2.546875 8.90625 L 2.546875 -18.734375 L 6.421875 -18.734375 Z M 17.8125 -9.453125 C 17.8125 -10.742188 17.546875 -11.859375 17.015625 -12.796875 C 16.484375 -13.742188 15.78125 -14.457031 14.90625 -14.9375 C 14.03125 -15.425781 13.097656 -15.671875 12.109375 -15.671875 C 11.128906 -15.671875 10.203125 -15.421875 9.328125 -14.921875 C 8.460938 -14.421875 7.757812 -13.695312 7.21875 -12.75 C 6.6875 -11.800781 6.421875 -10.679688 6.421875 -9.390625 C 6.421875 -8.097656 6.6875 -6.96875 7.21875 -6 C 7.757812 -5.039062 8.460938 -4.3125 9.328125 -3.8125 C 10.203125 -3.3125 11.128906 -3.0625 12.109375 -3.0625 C 13.097656 -3.0625 14.03125 -3.316406 14.90625 -3.828125 C 15.78125 -4.335938 16.484375 -5.078125 17.015625 -6.046875 C 17.546875 -7.023438 17.8125 -8.160156 17.8125 -9.453125 Z M 17.8125 -9.453125 "/></g></g></g></svg>