<?xml version="1.0" encoding="UTF-8"?> <svg xmlns="http://www.w3.org/2000/svg" xmlns:xlink="http://www.w3.org/1999/xlink" version="1.1" id="Layer_1" x="0px" y="0px" viewBox="0 0 920.6 699.2" style="enable-background:new 0 0 920.6 699.2;" xml:space="preserve"> <style type="text/css"> .st0{fill:#0A429C;stroke:#FFFFFF;stroke-width:2;} .st1{fill:#F73737;stroke:#FFFFFF;stroke-width:2;} .st2{fill:#F73737;} .st3{fill:none;stroke:#FFFFFF;stroke-width:2;} .st4{fill:#3D8AC9;stroke:#FFFFFF;stroke-width:2;} .st5{fill:#D1D3D4;stroke:#FFFFFF;stroke-width:2;} .st6{fill:#FFFFFF;} .st7{fill:#A7A9AC;} .st8{fill:none;stroke:#939598;} .st9{font-family:'ArialMT';} .st10{font-size:12.2471px;} .st11{fill:#0A429C;} .st12{fill:#D1D3D4;} </style> <path class="st0" d="M234.8,521.8l1.9-3.5l2.2-0.3l0.3,0.8l-2,3H234.8z M244.7,518.1l6,2.5l2-0.3l1.6-3.8l-0.6-3.3l-4.1-0.5 l-3.9,1.7L244.7,518.1L244.7,518.1L244.7,518.1z M274.5,527.9l3.6,5.4l2.4-0.3l1.1-0.5l1.4,1.3l3.6-0.2l0.9-1.4l-2.8-1.7l-1.9-3.6 l-2-3.5l-5.6,2.8L274.5,527.9L274.5,527.9L274.5,527.9z M294.1,536.6l1.3-1.9l4.6,0.9l0.6-0.5l6,0.6l-0.3,1.3l-2.5,1.4l-4.2-0.3 L294.1,536.6z M299.3,541.6l1.9,3.8l3-1.1l0.3-1.6l-1.6-2l-3.6-0.3L299.3,541.6L299.3,541.6z M306.1,540.5l2.2-2.8l4.6,2.4l4.2,1.1 l4.2,2.7v1.9l-3.5,1.7l-4.7,0.9l-2.4-1.4L306.1,540.5L306.1,540.5L306.1,540.5z M322.2,555.7l1.6-1.3l3.3,1.6l7.4,3.5l3.3,2l1.6,2.4 l1.9,4.3l3.9,2.5l-0.3,1.3l-3.8,3.2l-4.1,1.4l-1.4-0.6l-3,1.7l-2.4,3.2l-2.2,2.8l-1.7-0.2l-3.5-2.5l-0.3-4.4l0.6-2.4l-1.6-5.5 l-2-1.7l-0.2-2.5l2.2-0.9l2-3l0.5-0.9l-1.6-1.7L322.2,555.7L322.2,555.7L322.2,555.7z"></path> <path class="st0" d="M162,457.8l-0.3,83.2l1.6,0.9l3,0.2l1.4-1.1h2.5l0.2,2.8l6.7,6.6l0.5,2.5l3.3-1.9l0.6-0.2l0.3-3l1.4-1.6 l1.1-0.2l1.9-1.4l3,2l0.6,2.8l1.9,1.1l1.1,2.4l3.8,1.7l3.3,5.8l2.7,3.8l2.2,2.7l1.4,3.6l4.9,1.7l5,2l0.9,4.3l0.5,3l-0.9,3.3 l-1.7,2.2l-1.6-0.8l-1.4-3l-2.7-1.4l-1.7-1.1l-0.8,0.8l1.4,2.7l0.2,3.6l-1.1,0.5l-1.9-1.9l-2-1.3l0.5,1.6l1.3,1.7l-0.8,0.8 c0,0-0.8-0.3-1.3-0.9c-0.5-0.6-2-3.3-2-3.3l-0.9-2.2c0,0-0.3,1.3-0.9,0.9c-0.6-0.3-1.3-1.4-1.3-1.4l1.7-1.9l-1.4-1.4v-4.9h-0.8 l-0.8,3.3l-1.1,0.5l-0.9-3.6l-0.6-3.6l-0.8-0.5l0.3,5.5v1.1l-1.4-1.3l-3.5-5.8l-2-0.5l-0.6-3.6l-1.6-2.8l-1.6-1.1v-2.2l2-1.3 l-0.5-0.3l-2.5,0.6l-3.3-2.4l-2.5-2.8l-4.7-2.5l-3.9-2.5l1.3-3.2v-1.6l-1.7,1.6l-2.8,1.1l-3.6-1.1l-5.5-2.4h-5.3l-0.6,0.5l-6.3-3.8 l-2-0.3l-2.7-5.7l-3.5,0.3l-3.5,1.4l0.5,4.4l1.1-2.8l0.9,0.3l-1.4,4.3l3.1-2.7l0.6,1.6l-3.8,4.3l-1.3-0.3l-0.5-1.9l-1.3-0.8 l-1.3,1.1l-2.7-1.7l-3,2l-1.7,2.1l-3.3,2l-4.6-0.2l-0.5-2l3.6-0.6v-1.3l-2.2-0.6l0.9-2.4l2.2-3.8v-1.7l0.2-0.8l4.2-2.2l0.9,1.3h2.7 l-1.3-2.5l-3.6-0.3l-4.9,2.7l-2.4,3.3l-1.7,2.5l-1.1,2.2l-4.1,1.4l-3,2.5l-0.3,1.6l2.2,0.9l0.8,2.1l-2.7,3.2l-6.3,4.1l-7.5,4.1 l-2,1.1l-5.2,1.1l-5.2,2.2l1.7,1.3l-1.4,1.4l-0.5,1.1l-2.7-0.9l-3.1,0.2l-0.8,2.2h-0.9l0.3-2.4l-3.5,1.3l-2.8,0.9l-3.3-1.3l-2.8,1.9 h-3.1l-2,1.3l-1.6,0.8l-2-0.3l-2.5-1.1l-2.2,0.6l-0.9,0.9l-1.6-1.1V570l3-1.3l6.1,0.6l4.2-1.6l2-2l2.8-0.6l1.7-0.8l2.7,0.2l1.6,1.3 l0.9-0.3l2.2-2.7l3-0.9l3.3-0.6l1.3-0.3l0.6,0.5h0.8l1.3-3.6l3.9-1.4l1.9-3.6l2.2-4.4l1.6-1.4l0.3-2.5l-1.6,1.3l-3.3,0.6l-0.6-2.4 l-1.3-0.3l-0.9,0.9l-0.2,2.8l-1.4-0.2l-1.4-5.7l-1.3,1.3l-1.1-0.5l-0.3-1.9l-3.9,0.2l-2,1.1l-2.5-0.3l1.4-1.4l0.5-2.5l-0.6-1.9 l1.4-0.9l1.3-0.2l-0.6-1.7v-4.3l-0.9-0.9l-0.8,1.4h-6l-1.4-1.3l-0.6-3.8l-2-3.5v-0.9l2-0.8l0.2-2l1.1-1.1l-0.8-0.5l-1.3,0.5 l-1.1-2.7l0.9-4.9l4.4-3.2l2.5-1.6l1.9-3.6l2.7-1.3l2.5,1.1l0.3,2.4l2.4-0.3l3.1-2.4l1.6,0.6l0.9,0.6h1.6l2.2-1.3l0.8-4.3 c0,0,0.3-2.8,0.9-3.3s0.9-0.9,0.9-0.9l-1.1-1.9l-2.5,0.8l-3.1,0.8l-1.9-0.5l-3.5-1.7l-4.9-0.2l-3.5-3.6l0.5-3.8l0.6-2.4l-2-1.7 l-1.9-3.6l0.5-0.8l6.6-0.5h2l0.9,0.9h0.6l-0.2-1.6l3.8-0.6l2.5,0.3l1.4,1.1l-1.4,2.1l-0.5,1.4l2.7,1.6l4.9,1.7l1.7-0.9l-2.2-4.3 l-0.9-3.2l0.9-0.8l-3.3-1.9l-0.5-1.1l0.5-1.6l-0.8-3.8l-2.8-4.6l-2.4-4.1l2.8-1.9h3.1l1.7,0.6l4.1-0.2l3.6-3.5l1.1-3l3.6-2.4 l1.6,0.9l2.7-0.6l3.6-2l1.1-0.2l0.9,0.8l4.4-0.2l2.7-3h1.1l3.5,2.4l1.9,2l-0.5,1.1l0.6,1.1l1.6-1.6l3.8,0.3l0.3,3.6l1.9,1.4l6.9,0.6 l6.1,4.1l1.4-0.9l5,2.5l2-0.6l1.9-0.8l4.7,1.9L162,457.8L162,457.8z M50.3,486l2,5.2l-0.2,0.9l-2.8-0.3l-1.7-3.9l-1.7-1.4h-2.4 l-0.2-2.5l1.7-2.4l1.1,2.4l1.4,1.4L50.3,486z M47.8,518.6l3.6,0.8l3.6,0.9l0.8,0.9l-1.6,3.6l-3-0.2l-3.3-3.5L47.8,518.6z M27.7,504.9l1.1,2.5l1.1,1.6l-1.1,0.8l-2-3v-1.9H27.7z M14.3,576.2l3.3-2.2l3.3-0.9l2.5,0.3l0.5,1.6l1.9,0.5l1.9-1.9l-0.3-1.6 l2.7-0.6l2.8,2.5l-1.1,1.7l-4.2,1.1l-2.7-0.5l-3.6-1.1l-4.2,1.4l-1.6,0.3C15.4,576.8,14.3,576.2,14.3,576.2z M61.9,571.8l1.6,1.9 l2-1.6l-1.4-1.3L61.9,571.8z M64.7,574.7l1.1-2.2l2,0.3l-0.8,1.9H64.7L64.7,574.7z M87.6,572.9l1.4,1.7l0.9-1.1l-0.8-1.9L87.6,572.9 z M96.1,560.7l1.1,5.7l2.8,0.8l4.9-2.8l4.2-2.5l-1.6-2.4l0.5-2.4l-2,1.3l-2.8-0.8l1.6-1.1l1.9,0.8l3.8-1.7l0.5-1.4l-2.4-0.8l0.8-1.9 l-2.7,1.9l-4.6,3.5l-4.7,2.8L96.1,560.7z M137.2,541.3l2.4-1.4l-0.9-1.7l-1.7,0.9L137.2,541.3z"></path> <path class="st1" d="M742,448.9l2,8l3.6,9.5l5.2,9.1l3.6,6.1l4.7,5.4l3.9,3.6l1.6,2.8l-1.1,1.3l-0.8,1.3l2.8,7.3l2.8,2.8l2.5,5.2 l3.5,5.7l4.4,8l1.3,7.4l0.5,11.7l0.6,1.7l-0.3,3.3l-2.4,1.3l0.3,1.9l-0.6,1.9l0.3,2.4l0.5,1.9l-2.7,3.2l-3,1.4l-3.8,0.2l-1.4,1.6 l-2.4,0.9l-1.3-0.5l-1.1-0.9l-0.3-2.8l-0.8-3.3l-3.3-5l-3.5-2.2l-3.8-0.3l-0.8,1.3l-3-4.3l-0.6-3.5l-2.5-3.9l-1.7-1.1l-1.6,2 l-1.7-0.3l-2-4.9l-2.8-3.8l-2.8-5.2l-2.5-3l-3.5-3.6l2-2.4l3.1-5.4l-0.2-1.6l-4.4-0.9l-1.6,0.6l0.3,0.6l2.5,0.9l-1.4,4.4l-0.8,0.5 l-1.7-3.9l-1.3-4.7l-0.3-2.7l1.4-4.6V492l-3-3.6l-1.3-3l-5-1.3l-1.9-0.6l-1.6-2.5l-3.3-1.6l-1.1-3.3l-2.7-0.9l-2.4-3.6l-4.1-1.4 l-2.8-1.4h-2.5l-3.9,0.8l-0.2,1.9l0.8,0.9l-0.5,1.1l-3-0.2l-3.6,3.5l-3.5,1.9h-3.8l-3.1,1.3l-0.3-2.7l-1.6-1.9l-2.8-1.1l-1.6-1.4 l-7.8-3.8l-7.4-1.7l-4.2,0.6l-5.8,0.5l-5.8,2.1L633,471l-0.2-7.9l-2.5-1.9l-1.7-1.7l0.3-3l9.9-1.3l24.8-2.8l6.6-0.6l6-0.2l2.5,3.8 l1.4,1.4l7.7,0.2l10.5-0.6l20.9-1.3l5.3-0.7h4.4l0.2,2.8l2.5,0.8l0.3-4.3l-1.6-4.4l1.1-1.6l5.6,0.8L742,448.9L742,448.9L742,448.9z M754,578.9l2.4-0.6l1.3-0.2l1.4-2.3l2.3-1.6l1.3,0.5l1.6,0.3l0.4,1l-3.4,1.2l-4.1,1.4l-2.3,1.2L754,578.9z M767.1,574l1.2,1l2.7-2 l5.2-4.1l3.6-3.8l2.4-6.5l0.9-1.7l0.2-3.3l-0.7,0.5l-0.9,2.8l-1.4,4.5l-3.1,5.1l-4.2,4.1l-3.3,1.9L767.1,574z"></path> <path class="st1" d="M747.5,418l-1.7,0.9l-2.5-1.3l-0.6-2l-1.3-3.5l-2.2-2l-2.5-0.6l-1.6-4.7l-2.7-5.8l-4.1-1.9l-2-1.9l-1.3-2.5 l-2-1.9l-2.2-1.3l-2.2-2.8l-3-2.2l-4.4-1.7l-0.5-1.4l-2.4-2.8L708,377l-3.3-5l-3.3,0.2l-3.9-2.4l-1.3-1.3l-0.3-1.7l0.8-1.9l2.2-0.9 l-0.3-2l6-2.5l8.8-4.4l7.1-0.8l16-0.5l2.2,1.9l1.6,3.2l4.2-0.5l12.2-1.4l2.8,0.8l12.2,7.4l9.8,7.9l-5.3,5.3l-2.5,6l-0.5,6.1 l-1.6,0.8l-1.1,2.7l-2.4,0.6l-2,3.5l-2.7,2.7l-2.2,3.3l-1.6,0.8l-3.5,3.3l-2.8,0.2l0.9,3.2l-4.9,5.4L747.5,418L747.5,418z"></path> <path class="st1" d="M678,364.4l-4.7,0.8l-8.2,1.1l-8.3,0.9v2.1l0.2,2l0.6,3.3l3.3,7.7l2.4,9.6l1.4,6l1.6,4.7l1.4,6.8l2,6.1l2.5,3.3 l0.5,3.3l1.9,0.8l0.2,2l-1.7,4.7l-0.5,3.2l-0.2,1.9l1.6,4.3l0.3,5.2l-0.8,2.4l0.6,0.8l1.4,0.8l0.6,3.3l2.5,3.8l1.4,1.4l7.7,0.2 l10.5-0.6l20.9-1.3l5.3-0.7h4.4l0.2,2.8l2.5,0.8l0.3-4.3l-1.6-4.4l1.1-1.6l5.6,0.8l4.8,0.3l-0.8-6.1l2.2-9.8l1.4-4.1l-0.5-2.5 l3.9-6.8l-0.6-1.6l-1.8,0.9l-2.5-1.3l-0.6-2l-1.3-3.5l-2.2-2l-2.5-0.6l-1.6-4.7l-2.7-5.8l-4.1-1.9l-2-1.9l-1.3-2.5l-2-1.9l-2.2-1.3 l-2.2-2.8l-3-2.2l-4.4-1.7l-0.5-1.4l-2.4-2.8V377l-3.3-5l-3.3,0.2l-3.9-2.4l-1.3-1.3l-0.3-1.7l0.8-1.9l2.2-0.9l-0.2-2.2l-1.7,0.5 l-5.6,0.9l-6.7,0.8L678,364.4L678,364.4z"></path> <path class="st1" d="M615.8,470.5l-1.6-14.8l-2.7-18.3l0.2-13.7l0.8-30.3l-0.2-16.2l0.2-6.3l7.5-0.4l27-2.5l9.9-0.9l-0.1,2.1l0.2,2 l0.6,3.3l3.3,7.7l2.4,9.6l1.4,6l1.6,4.7l1.4,6.8l2,6.1l2.5,3.3l0.5,3.3l1.9,0.8l0.2,2l-1.7,4.7l-0.5,3.2l-0.2,1.9l1.6,4.3l0.3,5.2 l-0.8,2.4l0.6,0.8l1.4,0.8l0.8,3.5h-6.1l-6.6,0.6l-24.8,2.8l-9.9,1.3l-0.3,3l1.7,1.7l2.5,1.9l0.6,7.7l-6.4,2.5l-2.7-0.3l2.7-1.9V470 l-3-5.8l-2.2-0.6l-1.4,4.3l-1.3,2.7l-0.6-0.2L615.8,470.5L615.8,470.5L615.8,470.5z"></path> <path class="st1" d="M816.3,306.4l1.7,4.6l3.5,6.3l2.4,2.4l0.6,2.2L822,322l0.8,0.6l-0.3,4.1L820,328l-0.6,2.1l-1.3,2.8l-3.6,1.6 l-2.4-0.3l-1.4-0.2l-1.6-1.3l0.3,1.3v0.9h1.9l0.8,1.3l-1.9,6.1h4.1l0.6,1.6l2.2-2.2l1.3-0.5l-1.9,3.5l-3,4.7h-1.3l-1.1-0.5l-2.7,0.6 l-5,2.4l-6.3,5.2l-3.3,4.6l-1.9,6.3l-0.5,2.4l-4.6,0.5l-5.7,2.2l-9.7-8l-12.2-7.4l-2.8-0.8l-12.2,1.4l-4.2,0.5l-1.6-3.2l-2.2-1.9 l-16,0.5l-7.1,0.8l-8.8,4.4l-6,2.5l-1.6,0.3l-5.6,0.9l-6.7,0.8l-6.6,0.5l0.3-4.7l1.7-1.4l2.7-0.6l0.6-3.6l4.1-2.7l3.8-1.4l4.1-3.5 l4.2-2.1l0.6-3l3.8-3.8l0.6-0.2c0,0,0,1.1,0.8,1.1s1.9,0.3,1.9,0.3l2.2-3.5l2-0.6l2.2,0.3l1.6-3.5l2.8-2.5l0.5-2v-3.9l4.4,0.7 l6.9-1.3l15.4-1.9l16.6-2.5l20-3.7l18.6-3.7l11.1-2.8L816.3,306.4L816.3,306.4z M820.1,338.6l2.5-2.4l3.1-2.5l1.5-0.6l0.2-2l-0.6-6 l-1.4-2.3l-0.6-1.8l0.7-0.2l2.7,5.4l0.4,4.3l-0.2,3.3l-3.3,1.5l-2.7,2.4l-1.1,1.2L820.1,338.6z"></path> <path class="st1" d="M685.2,328l-50.4,4.9l-15.3,1.7l-4.5,0.5h-3.8v3.8l-8.2,0.5l-6.7,0.6l-10.8,0.1l-0.3,5.7l-2.1,6.1l-1,2.9 l-1.3,4.3l-0.3,2.5l-3.9,2.2l1.4,3.5l-0.9,4.3l-1.5,1.7l7.9-0.1l23.4-1.9l5.2-0.2l7.8-0.5l27-2.5l9.9-0.8l8.2-0.9l8.2-1.1l4.7-0.8 l0.3-4.7l1.7-1.4l2.7-0.6l0.6-3.6l4.1-2.7l3.8-1.4l4.1-3.5l4.2-2.1l0.6-3l3.8-3.8l0.6-0.2c0,0,0,1.1,0.8,1.1s1.9,0.3,1.9,0.3 l2.2-3.5l2-0.6l2.2,0.3l1.6-3.5l2.8-2.5l0.5-2l0.2-3.8l-2.2,0.1l-2.4,1.9l-7.7,0.2l-11.6,1.9L685.2,328L685.2,328z"></path> <path class="st1" d="M857,190.7l-0.5-4.1l-0.8-4.3l-1.6-5.8l5.6-1.5l1.6,1.1l3.3,4.3l2.8,4.3l-2.8,1.5l-1.3-0.2l-1.1,1.7l-2.4,1.9 L857,190.7L857,190.7L857,190.7z"></path> <path class="st1" d="M857.5,190.7l-0.9-4.1l-0.8-4.3l-1.6-5.8l-5,1.1l-21.2,4.7l0.6,3.2l1.4,7.1v7.9l-1.1,2.2l1.8,2.1l4.8-3.3 l3.5-3.2l1.9-2.1l0.8,0.6l2.7-1.4l5-1.1L857.5,190.7L857.5,190.7L857.5,190.7z"></path> <path class="st2" d="M882.2,184.8l2.1-0.7l0.4-1.7l1,0.1l1,2.2l-1.2,0.4l-3.8,0.1L882.2,184.8L882.2,184.8z M873.1,185.6l2.2-2.6 h1.6l1.8,1.5l-2.3,1l-2.1,1L873.1,185.6L873.1,185.6L873.1,185.6z M839.3,164.2l16.9-4.1l2.2-0.6l2-3.2l3.6-1.6l2.8,4.3l-2.4,5 l-0.3,1.4l1.9,2.5l1.1-0.8h1.7l2.2,2.5l3.8,5.8l3.5,0.5l2.2-0.9l1.7-1.7l-0.8-2.7l-2-1.6l-1.4,0.8l-0.9-1.3l0.5-0.5l2-0.2l1.7,0.8 l1.9,2.4l0.9,2.8l0.3,2.4l-4.1,1.4l-3.8,1.9l-3.8,4.4l-1.9,1.4v-0.9l2.4-1.4l0.5-1.7l-0.8-3l-2.8,1.4l-0.8,1.4l0.5,2.2l-2.7,1.4 l-2.7-4.4l-3.3-4.3l-1.6-1.1l-5.6,1.5l-4.9,1l-21.2,4.7l-0.9-5.6l0.6-10.3l5-0.9L839.3,164.2"></path> <path class="st3" d="M839.3,164.2l16.9-4.1l2.2-0.6l2-3.2l3.6-1.6l2.8,4.3l-2.4,5l-0.3,1.4l1.9,2.5l1.1-0.8h1.7l2.2,2.5l3.8,5.8 l3.5,0.5l2.2-0.9l1.7-1.7l-0.8-2.7l-2-1.6l-1.4,0.8l-0.9-1.3l0.5-0.5l2-0.2l1.7,0.8l1.9,2.4l0.9,2.8l0.3,2.4l-4.1,1.4l-3.8,1.9 l-3.8,4.4l-1.9,1.4v-0.9l2.4-1.4l0.5-1.7l-0.8-3l-2.8,1.4l-0.8,1.4l0.5,2.2l-2.7,1.4l-2.7-4.4l-3.3-4.3l-1.6-1.1l-5.6,1.5l-4.9,1 l-21.2,4.7l-0.9-5.6l0.6-10.3l5-0.9L839.3,164.2 M882.2,184.8l2.1-0.7l0.4-1.7l1,0.1l1,2.2l-1.2,0.4l-3.8,0.1L882.2,184.8 L882.2,184.8z M873.1,185.6l2.2-2.6h1.6l1.8,1.5l-2.3,1l-2.1,1L873.1,185.6L873.1,185.6L873.1,185.6z"></path> <path class="st1" d="M904.7,90.7l1.9,2l2.2,3.6v1.9l-2,4.6l-1.9,0.6l-3.3,3l-4.7,5.4c0,0-0.6,0-1.3,0s-0.9-2-0.9-2L893,110l-0.9,1.4 l-2.4,1.4l-0.9,1.4l1.6,1.4l-0.5,0.6l-0.5,2.7l-1.9-0.2v-1.6l-0.3-1.3l-1.4,0.3l-1.7-3.2l-2,1.3l1.3,1.4l0.3,1.1l-0.8,1.3l0.3,3 l0.2,1.6l-1.6,2.5l-2.8,0.5l-0.3,2.8l-5.2,3l-1.3,0.5l-1.6-1.4l-3,3.5l0.9,3.2l-1.4,1.3l-0.2,4.3l-1.5,7.4L863,149l-0.5-3l-3.8-1.1 l-0.3-2.7l-7.1-22.9l-4.6-14.4l2.4-0.3l1.5,0.4v-2.5l0.8-5.4l2.5-4.6l1.4-3.9l-1.9-2.4v-5.8l0.8-0.9l0.8-2.7l-0.2-1.4l-0.2-4.7 l1.7-4.7l2.8-8.7l2-4.1h1.3l1.3,0.2v1.1l1.3,2.2l2.7,0.6l0.8-0.8v-0.9l3.9-2.8l1.7-1.7l1.4,0.2l5.8,2.4l1.9,0.9l8.8,29.2h5.8 l0.8,1.9l0.2,4.7l2.8,2.2h0.8l0.2-0.5l-0.5-1.1L904.7,90.7L904.7,90.7z M884.4,120.1l1.5-1.5l1.3,1l0.5,2.4l-1.6,0.9L884.4,120.1 L884.4,120.1L884.4,120.1z M890.9,114.4l1.7,1.8c0,0,1.3,0.1,1.3-0.2c0-0.3,0.2-2,0.2-2l0.9-0.8l-0.8-1.7l-2,0.7L890.9,114.4z"></path> <path class="st1" d="M864.1,154.6l0.3-1.5l1.1-3.2L863,149l-0.5-3l-3.8-1.1l-0.3-2.7l-7.1-22.9l-4.5-14.2h-0.9l-0.6,1.6l-0.6-0.5 l-0.9-0.9l-1.4,1.9l-0.9,5.4l0.3,5.5l1.9,2.7v3.9l-3.6,3.9l-2.5,1.1v1.1l1.1,1.7v8.4l-0.8,9l-0.2,4.7l0.9,1.3l-0.2,4.4l-0.5,1.7 l1.4,2l16.8-4l2.2-0.6l2-3.2L864.1,154.6L864.1,154.6z"></path> <path class="st1" d="M827.8,166.5L827,161l-3-10.7l-0.6-0.3l-2.8-1.3l0.8-2.8l-0.8-2l-2.5-4.4l0.9-3.8l-0.8-5l-2.4-6.3l-0.8-4.8 l26.4-7l0.3,5.7l1.9,2.7v3.9l-3.6,3.9l-2.5,1.1v1.1l1.1,1.7v8.4l-0.8,9l-0.2,4.7l0.9,1.3l-0.2,4.4l-0.5,1.7l1.4,2l-6.7,1.3 L827.8,166.5L827.8,166.5L827.8,166.5z"></path> <path class="st0" d="M812.5,200.9l-1.1-0.9l-2.5-0.2l-2.2-1.9l-2.4-5.2l-2.9-0.9l-2.3-2.1l-18,3.9l-41.7,8.5l-8.6,1.4l-0.7-6.8 l2.6-1.8l1.3-1.1l0.9-1.6l1.7-1.1l1.9-1.7l0.5-1.6l2-2.7l1.1-0.9l-0.2-0.9l-1.3-3l-1.7-0.2l-1.9-6l2.8-1.7l4.2-1.4l3.9-1.3l3.1-0.5 l6.1-0.2l1.9,1.3l1.6,0.2l2-1.3l2.5-1.1l5-0.5l2-1.7l1.7-3.2l1.6-1.9h2l1.9-1.1l0.2-2.2l-1.4-2l-0.3-1.4l1.1-2.1v-1.4h-1.7l-1.7-0.8 l-0.8-1.1l-0.2-2.5l5.7-5.4l0.6-0.8l1.4-2.8l2.8-4.4l2.7-3.6l2-2.4l2.3-1.8l3-1.2l5.3-1.3l3.1,0.2l4.4-1.4l7.3-2l0.5,4.9l2.4,6.3 l0.8,5l-0.9,3.8l2.5,4.4l0.8,2l-0.8,2.8l2.8,1.3l0.6,0.3l3,10.7l0.5,5l-0.5,10.6l0.8,5.4l0.8,3.5l1.4,7.1v7.9l-1.1,2.2l1.8,1.9 l-0.2,1.5l-1.9,1.7l0.3,1.3l1.3-0.3l1.4-1.3l2.2-2.5l1.1-0.6l1.6,0.6l2.2,0.2l7.7-3.8l2.8-2.7l1.3-1.4l4.1,1.6l-3.3,3.5l-3.8,2.8 l-6.9,5.2l-2.5,0.9l-5.7,1.9l-3.9,1.1l-1.5-0.5l-0.6-3.3l0.5-2.7l-0.2-2l-2.5-1.1l-4.4-0.9l-3.8-1.1L812.5,200.9L812.5,200.9 L812.5,200.9z"></path> <path class="st1" d="M812.5,200.9l-2,2.4v3l-1.9,3l-0.2,1.6l1.3,1.3l-0.2,2.4l-2.2,1.1l0.8,2.7l0.2,1.1l2.7,0.3l0.9,2.5l3.5,2.4 l2.4,1.6v0.8l-3.1,3l-1.6,2.2l-1.4,2.7l-2.2,1.3l-1.2,0.7l-0.2,1.2l-0.6,2.5l1.1,2.2l3.1,2.8l4.7,2.2l3.9,0.6l0.2,1.4l-0.8,0.9 l0.3,2.7h0.8l2-2.4l0.8-4.7l2.7-3.9l3-6.3l1.1-5.4l-0.6-1.1l-0.2-9.1l-1.6-3.3l-1.1,0.8l-2.7,0.3l-0.5-0.5l1.1-0.9l2-1.9l0.1-1.1 l-0.4-3.3l0.5-2.7l-0.2-2l-2.5-1.1l-4.4-0.9l-3.8-1.1L812.5,200.9L812.5,200.9z"></path> <path class="st1" d="M808.2,236.7l1.1-0.6l2.2-1.3l1.4-2.7l1.6-2.2l3.1-3v-0.8l-2.4-1.6l-3.5-2.4l-0.9-2.5l-2.7-0.3l-0.2-1.1 l-0.8-2.7l2.2-1.1l0.2-2.4l-1.3-1.3l0.2-1.6l1.9-3v-3l2.3-2.4l-1.3-0.9l-2.5-0.2l-2.2-1.9l-2.4-5.2l-2.9-0.9l-2.3-2.1l-18,3.9 l-41.7,8.5l-8.6,1.4l-0.5-6.9l-5.3,5.5l-1.3,0.5l-4.1,2.9l2.8,18.7l1.6,10.5l3.5,18.8l4.5-0.7l11.6-1.5l36.8-7.5l14.4-2.8l8.1-1.6 l1.2-1.2l2-1.6h2.2L808.2,236.7L808.2,236.7z"></path> <path class="st1" d="M820.8,263.6L820.8,263.6L820.8,263.6L820.8,263.6l-2.2-7.2l-0.9,0.5l-3.5-2.4l-1.7-4.6l-1.9-3.5l-2.2-0.9 l-2-3.5l0.8-2.1l0.8-2.1l0.2-1.3h-2l-2,1.6l-1.2,1.2l0,0l-8.1,1.6l-14.4,2.8l-36.4,7.4l1.1,4.9l0.9,5.5l0.3-0.3l2-2.4l2.2-3l2.4-0.2 l1.4-1.4l1.7-2.5l1.3,0.6l2.8-0.3l2.5-2.1l1.9-1.4l1.8-0.5l1.6,1.1l2.8,1.4l1.9,1.7l1.2,1.5l4,1.7v2.8l5.3,1.3l1.9,1.3l0.9-1.9 l2.2,1.6l-1.4,3.2l-0.3,2.7l-1.7,2.5v2l0.6,1.7l4.9,1.3l4.2-0.1l3,0.9l2,0.3l0.9-2l-1.4-2v-1.7l-2.4-2.1l-2-5.4l1.3-5.2l-0.2-2 l-1.3-1.3c0,0,1.4-1.6,1.4-2.2c0-0.6,0.5-2,0.5-2l1.9-1.3l1.9-1.6l0.5,0.9l-1.4,1.6l-1.3,3.6l0.3,1.1l1.7,0.3l0.5,5.4l-2,0.9 l0.3,3.5l0.5-0.2l1.1-1.9l1.6,1.7l-1.6,1.3l-0.3,3.3l2.5,3.3l3.8,0.5l1.6-0.8l3.1,5l1.7,0.5v3.5l-2.2,4.7l-0.5,6.8l1.4,3.3l1.4,0.2 l1.9-4.1l0.8-3.5l0.2-6.9l3-4.7l2-6.8L820.8,263.6L820.8,263.6z"></path> <path class="st4" d="M806.7,272.6l-1.8,0.5l1.1,2.4l0.2,1.7l1.1,1.8c0,0,0.9-0.9,0.9-1.2c0-0.3-0.7-3-0.7-3L806.7,272.6z"></path> <path class="st1" d="M744.1,251.3l1.1,4.8l0.9,5.5l0.3-0.3l2-2.4l2.2-3l2.4-0.2l1.4-1.4l1.7-2.5l1.3,0.6l2.8-0.3l2.5-2.1l1.9-1.4 l1.8-0.5l1.6,1.1l2.8,1.4l1.9,1.7l1.3,1.3l-1,4.9l-5.5-3l-4.4-1.7l-0.2,5.2l-0.5,2l-1.6,2.7l-0.6,1.6l-3,2.4l-0.5,2.2l-3.3,0.3 l-0.3,3l-1.1,5.4h-2.5l-1.3-0.8l-1.6-2.7l-1.7,0.2l-0.3,4.3l-2,6.5l-4.9,10.6l0.8,1.3l-0.2,2.7l-2,1.9l-1.4-0.3l-3.1,2.4l-2.5-0.9 l-1.7,4.6c0,0-3.6,0.8-4.2,0.9c-0.6,0.2-2.4-1.3-2.4-1.3l-2.4,2.2l-2.5,0.6l-2.8-0.8l-1.3-1.3l-2.1-2.9l-3.1-1.9l-2.5-2.7l-2.8-3.6 l-0.6-2.2l-2.5-1.4l-0.8-1.6l-0.2-5.1l2.1-0.1l1.9-0.8l0.2-2.7l1.6-1.4l0.2-4.9l0.9-3.8l1.3-0.6l1.3,1.1l0.5,1.7l1.7-0.9l0.5-1.6 l-1.1-1.7V269l0.9-1.3l2.2-3.3l1.3-1.4l2,0.5l2.2-1.6l3-3.3l2.2-3.8l0.3-5.5l0.5-4.9v-4.6l-1.1-3l0.9-1.4l1.2-1.3l3.4,19.3l4.5-0.7 L744.1,251.3L744.1,251.3L744.1,251.3z"></path> <path class="st1" d="M710.3,305.1l1.9,3.5l1.3,1.3l2.8,0.8l2.5-0.6l2.4-2.2c0,0,1.7,1.4,2.4,1.3c0.6-0.2,4.2-0.9,4.2-0.9l1.7-4.6 l2.5,0.9l3.1-2.4l1.4,0.3l2-1.9l0.2-2.7l-0.8-1.3l4.9-10.6l2-6.5l0.3-4.3l1.7-0.2l1.6,2.7l1.3,0.8h2.5l1.1-5.4l0.3-3l3.3-0.3 l0.5-2.2l3-2.4l0.6-1.6l1.6-2.7l0.5-2l0.2-5.2l4.4,1.7l5.5,3l0.8-5l4.1,2v2.8l5.3,1.3l1.9,1.3l0.9-1.9l2.2,1.6l-1.4,3.2l-0.3,2.7 l-1.7,2.5v2l0.6,1.7l4.9,1.3l1.8,1.5l5,0.3l2.5,2.2l3.1,0.6l1.3,1.3l-0.5,4.4l0.9,0.9l0.2,2.2l1.3,2.1l-0.2,1.7l-3.1-1.1v0.9 l1.9,1.6v1.1l1.4,1.1l1.3,1.6l0.2,2.2l-2.2,1.4l0.3,0.5l2.5-0.5l3.1-0.6l1.1-0.2l4,6.9l-4.7,1.7l-11.1,2.8l-18.6,3.7l-20,3.7 l-16.6,2.5l-15.4,1.9l-6.9,1.3l-4.4-0.6h-2.1l-2.4,1.9l-7.7,0.2l-11.6,1.9l-9.7,0.9l2.7-1.3l5.5-3.3l3.8-2v-2.1l1.7-1.7l4.4-5.2 l4.1-3.5L710.3,305.1L710.3,305.1z"></path> <path class="st1" d="M710.2,305.9l-3,3.1l-4.1,3.5l-4.4,5.2l-1.7,1.7v2.1l-3.8,2l-5.5,3.3l-2.5,1.4l-50.3,4.8l-15.3,1.7l-4.5,0.5 h-3.8v3.8l-8.2,0.5l-6.7,0.6l-10.1,0.2l1-1.2l2.1-1.7l2-1.1l0.2-3.1l0.9-1.8l-1.6-2.5l0.8-1.9l2.2-1.7l2-0.6l2.7,1.3l3.5,1.3 l1.1-0.3l0.2-2.2l-1.3-2.4l0.3-2.2l1.9-1.4l2.5-0.6l1.6-0.6l-0.8-1.7L607,314l1.1-0.8l1-3.2l2.9-1.7l5.6-0.9l3.5-0.5l1.4,1.9 l1.7,0.8l1.7-3.2l2.8-1.4l1.9,1.6l0.8,1.1l2-0.5l-0.2-3.3l2.8-1.6l1.1-0.8l1.1,1.6h4.6l0.8-2l-0.3-2.2l2.8-3.5l4.6-3.8l0.5-4.4 l2.7-0.3l3.8-1.7l2.7-1.9l-0.3-1.9l-1.4-1.4l0.5-2.1l4-0.2l2.4-0.8l2.8,1.6l1.6,4.3l5.6,0.3l1.7,1.7l2,0.2l2.4-1.4l3,0.5l1.3,1.4 l2.7-2.5l1.7-1.3h1.6l0.6,2.7l1.7,0.9l3.5,2l0.2,5.4l0.8,1.6l2.5,1.4l0.6,2.2l2.8,3.6l2.5,2.7L710.2,305.9z"></path> <path class="st1" d="M719.6,205.4l-6.9,4.1l-3.8,2.2l-3.3,3.6l-3.9,3.8l-3.1,0.8l-2.8,0.5l-5.3,2.5l-2,0.2l-3.3-3l-5,0.6l-2.5-1.4 l-2.3-1.3l-4.8,0.7l-9.9,1.6l-7.5,1.2l1.3,14.3L656,249l2.5,22.9l0.5,5.6l4-0.2l2.4-0.8l2.8,1.6l1.6,4.3l5.6,0.3l1.7,1.7l2,0.2 l2.4-1.4l3,0.5l1.3,1.4l2.7-2.5l1.7-1.3h1.6l0.6,2.7l1.7,0.9l3.4,2.3l2.1-0.1l1.9-0.8l0.2-2.7l1.6-1.4l0.2-4.9l0.9-3.8l1.3-0.6 l1.3,1.1l0.5,1.7l1.7-0.9l0.5-1.6l-1.1-1.7V269l0.9-1.3l2.2-3.3l1.3-1.4l2,0.5l2.2-1.6l3-3.3l2.2-3.8l0.3-5.5l0.5-4.9v-4.6l-1.1-3 l0.9-1.4l1.3-0.7l-1.8-10.5L719.6,205.4L719.6,205.4z"></path> <path class="st1" d="M573.1,95.3l1.8-2l2.1-0.8l5.2-3.8l2.2-0.6l0.4,0.4l-5,5l-3.2,1.9l-2,0.9L573.1,95.3L573.1,95.3z M656.8,126.7 l0.6,2.4l3.1,0.2l1.3-1.2c0,0-0.1-1.4-0.4-1.6c-0.3-0.2-1.6-1.8-1.6-1.8l-2.1,0.2l-1.6,0.2l-0.3,1.1L656.8,126.7z M686,188.1l-3.1-8 l-2.2-8.8l-2.4-3.2l-2.5-1.7l-1.6,1.1l-3.8,1.7l-1.9,4.9l-2.7,3.6l-1.1,0.6l-1.4-0.6c0,0-2.5-1.4-2.4-2.1c0.2-0.6,0.5-4.9,0.5-4.9 l3.3-1.3l0.8-3.3l0.6-2.5l2.4-1.6l-0.3-9.8l-1.6-2.2l-1.3-0.8l-0.8-2l0.8-0.8l1.6,0.3l0.2-1.6l-2.4-2.2l-1.3-2.5H661l-4.4-1.4 l-5.3-3.3h-2.7l-0.6,0.6l-0.9-0.5l-3-2.2l-2.8,1.7l-2.8,2.2l0.3,3.5l0.9,0.3l2,0.5l0.5,0.8l-2.5,0.8l-2.5,0.3l-1.4,1.7l-0.3,2.1 l0.3,1.6l0.3,5.4l-3.5,2.1l-0.6-0.2v-4.1l1.3-2.4l0.6-2.4l-0.8-0.8l-1.9,0.8l-0.9,4.1l-2.7,1.1l-1.7,1.9l-0.2,0.9l0.6,0.8l-0.6,2.5 l-2.2,0.5v1.1l0.8,2.4l-1.1,6l-1.6,3.9l0.6,4.6l0.5,1.1l-0.8,2.4l-0.3,0.8l-0.3,2.7l3.5,5.8l2.8,6.3l1.4,4.7l-0.8,4.6l-0.9,5.8 l-2.4,5l-0.3,2.7l-3,3l-0.7,0.7l4.5-0.2l21.3-2.2l6-0.6l0.3,1.2l7.5-1.2l9.9-1.6l5.1-0.4l-1.3-1.1l0.2-1.4l2-3.6l1.9-1.7l-0.2-4.9 l1.5-1.6l1.1-0.3l0.2-3.5l1.5-3l1,0.6l0.2,0.6l0.8,0.2l1.9-0.9L686,188.1z M558.3,124.2l1.8-1l2.7-0.8l3.5-2.2v-0.9l0.6-0.6l5.8-0.9 l2.4-1.9l4.2-2l0.2-1.3l1.9-2.8l1.7-0.8l1.3-1.7l2.2-2.2l4.2-2.4l4.5-0.5l1.1,1.1l-0.3,0.9l-3.6,0.9l-1.4,3l-2.2,0.8l-0.5,2.4 l-2.4,3.2l-0.3,2.5l0.8,0.5l0.9-1.1l3.5-2.8l1.3,1.3h2.2l3.1,0.9l1.4,1.1l1.4,3l2.7,2.7l3.8-0.2l1.4-0.9l1.6,1.3l1.6,0.5l1.3-0.8 h1.1l1.6-0.9l3.9-3.5l3.3-1.1l6.4-0.3l4.4-1.9l2.5-1.3l1.4,0.2v5.5l0.5,0.3l2.8,0.8l1.9-0.5l6-1.6l1.1-1.1l1.4,0.5v6.8l3.1,3 l1.3,0.6l1.3,0.9l-1.3,0.3l-0.8-0.3l-3.6-0.5l-2,0.6l-2.2-0.2l-3.1,1.4H642l-5.7-1.3l-5,0.2l-1.9,2.5l-6.7,0.6l-2.4,0.8l-1.1,3 l-1.3,1.1l-0.5-0.2l-1.4-1.6l-4.4,2.4H611l-1.1-1.6l-0.8,0.2l-1.9,4.3l-0.9,3.9l-3.6,7.9l-1.6-1.1l-1.3-1.3l-1.6-10l-3.6-1.1 l-1.3-2.2l-12.2-2.7l-2.4-1.1l-8-2.2l-8-1.1L558.3,124.2L558.3,124.2z"></path> <path class="st1" d="M353.4,155.7l-11.2-0.9l-31.1-3.2l-15.8-2l-27.5-4l-19.3-2.9l-1.4,10.9l-3.7,23.7l-5.1,29.7l-1.5,10.3 l-1.6,11.6l6.3,0.9l16.4,2.2l8.6,1.1l20,2.4l36.2,4l23.7,2l4.2-43.3l1.6-24.8L353.4,155.7L353.4,155.7L353.4,155.7z"></path> <path class="st1" d="M355.6,135l0.8-11.3l2.2-24.3l1.3-14.7l1.2-13.9l-31-3.2l-28.4-3.5l-28.4-3.9L241.9,55L224,51.6l-31.8-6.8 l-4.3,20.8l3.3,7.4l-1.3,4.5l1.8,4.5l3.1,1.3l3.6,10l3.6,3.6l0.4,1.1l3.3,1.1l0.4,2l-6.9,17.2v2.5l2.4,3.1h0.9l4.7-2.9l0.7-1.1 l1.6,0.7l-0.2,5.1L212,138l2.9,2.5l0.9,0.7l1.8,2.2l-0.4,3.3l0.7,3.3l1.1,0.9l2.2-2.2h2.7l3.1,1.6l2.4-0.9h4l3.6,1.6l2.7-0.4 l0.4-2.9l2.9-0.7l1.3,1.3l0.4,3.1l2.5,2.4l1.5-11.1l19.3,2.9l27.5,4l15.8,2l31.1,3.2l11.1,1.2l1.6-15.5L355.6,135L355.6,135 L355.6,135z"></path> <path class="st1" d="M145.1,188.5l4.6-18l4.2-17.3l1.3-4.1l2.4-5.8l-1.2-2.2l-2.4,0.1l-0.8-1l0.4-1.1l0.3-3l4.3-5.4l1.8-0.4l1.1-1.1 l0.6-3.1l0.9-0.7l3.8-5.7l3.8-4.2l0.2-3.7l-3.3-2.6l-1.3-4.3l0.4-9.4l3.6-16.1l4.3-20.3l3.7-13.2l0.7-3.7l13.7,2.6l-4.3,20.8 l3.3,7.4l-1.3,4.5l1.8,4.5l3.1,1.3l3.6,10l3.6,3.6l0.4,1.1l3.3,1.1l0.4,2l-6.9,17.2v2.5l2.4,3.1h0.9l4.7-2.9l0.7-1.1l1.6,0.7 l-0.2,5.1L212,138l2.9,2.5l0.9,0.7l1.8,2.2l-0.4,3.3l0.7,3.3l1.1,0.9l2.2-2.2h2.7l3.1,1.6l2.4-0.9h4l3.6,1.6l2.7-0.4l0.4-2.9 l2.9-0.7l1.3,1.3l0.4,3.1l2.6,2l-3.7,23.9l-5,29.5l-4.7-0.8l-8.1-1.3l-10-1.8l-11.7-2l-12.3-2.3l-7.8-2l-9-1.8l-9.4-1.9L145.1,188.5 L145.1,188.5z"></path> <path class="st1" d="M99.4,21.5l4.2,1.4l9.4,2.7l8.3,1.9l19.5,5.5l22.3,5.5l15.7,3.6l-1,3.8l-3.7,13.2l-4.3,20.3l-3.6,16.1L166,105 l-13.6-3.3l-14.6-3.5l-15,0.1l-0.4-1.3l-5.3,2l-4.3-0.6l-2.3-1.6l-1.2,0.7l-4.5-0.2l-1.7-1.3L98,94h-0.9l-4.2-1.4L91,94.3L85,94 l-5.8-4l0.7-0.8l0.2-7.6l-2.2-3.8l-4-0.6l-0.7-2.5L71,74.4l-1.9-1.5l-1.7,0.9L65.2,71l0.3-2.8l2.7-0.3l1.6-3.9l-2.5-1.1l0.2-3.6 l4.2-0.6L69,56l-1.4-6.9l0.6-2.8v-7.7l-1.7-3.2l2.2-9.1l2,0.5l2.4,2.8l2.7,2.5l3.1,1.9l4.4,2l3,0.6l2.8,1.4l3.3,0.9l2.2-0.2v-2.4 l1.3-1.1l2-1.3l0.3,1.1l0.3,1.7l-2.2,0.5l-0.3,2l1.7,1.4l1.1,2.4l0.6,1.9l1.4-0.2l0.2-1.3l-0.9-1.3l-0.5-3.2l0.8-1.7L99.7,36v-2.2 l1.7-3.5l-1.1-2.5L98,23.1l0.3-0.8L99.4,21.5L99.4,21.5L99.4,21.5z M90.2,27.3l2-0.2l0.5,1.3l1.5-1.6h2.3l0.8,1.5L95.8,30l0.6,0.8 l-0.7,2l-1.3,0.4c0,0-0.9,0.1-0.9-0.2s1.4-2.5,1.4-2.5l-1.6-0.6L93,31.3L92.2,32l-1.5-2.2L90.2,27.3L90.2,27.3z"></path> <path class="st1" d="M355.2,340.4l22,1.1l30.2,1.1l-1.3,23.2l-0.4,17.4l0.2,1.6l4.2,3.6l2,1.1l0.7-0.2l0.7-2l1.3,1.8h2v-1.3l2.7,1.3 l-0.4,3.8l4,0.2l2.4,1.1l4,0.7l2.4,1.8l2.2-2l3.3,0.7l2.4,3.3h0.9v2.2l2.2,0.7l2.2-2.2l1.8,0.7h2.4l0.9,2.5l4.7,1.8l1.3-0.7l1.8-4 h1.1l1.1,2l4,0.7l3.6,1.3l2.9,0.9l1.8-0.9l0.7-2.5h4.2l2,0.9l2.7-2h1.1l0.7,1.6h4l1.6-2l1.8,0.4l2,2.5l3.1,1.8l3.1,0.9l2.7,1.2 l2.2,1.9l2.9-1.3l2.7,1.1l0.7,10.8v9.5l0.7,9.1l0.7,3.8l2.4,4l0.9,4.9l4.2,5.4l0.2,3.1l0.7,0.7l-0.7,8.2l-2.9,4.9l1.6,2l-0.7,2.5 l-0.7,7.1l-1.3,3.1l0.3,3.5l-6.3,1.7l-9.6,4.4l-0.9,1.9l-2.5,1.9l-2,1.4l-1.3,0.8l-5.5,5.2l-2.7,2.1l-5.2,3.2l-5.5,2.4l-6.1,3.3 l-1.7,1.4l-5.7,3.5l-3.3,0.6L454,530l-3.9,0.3l-0.9,1.9l2.2,1.9l-1.4,5.4l-1.3,4.4l-1.1,3.8l-0.8,4.4l0.8,2.4l1.7,6.8l0.9,6l1.7,2.7 l-0.9,1.4l-3,1.9l-5.5-3.8l-5.3-1.1l-1.3,0.5l-3.1-0.6l-4.1-3l-5-1.1l-7.4-3.3l-2-3.8l-1.3-6.3l-3.1-1.9l-0.6-2.2l0.6-0.6l0.3-3.3 l-1.3-0.6l-0.6-0.9l1.3-4.3l-1.6-2.2l-3.1-1.3l-3.3-4.3l-3.5-6.5l-4.1-2.5l0.2-1.9l-5.2-12l-0.8-4.1l-1.7-1.9l-0.2-1.4l-5.8-5.2 l-2.5-3v-1.1l-2.5-2l-6.6-1.1l-7.2-0.6l-3-2.2l-4.4,1.7l-3.5,1.4l-2.2,3.2l-0.9,3.6l-4.2,6l-2.4,2.4l-2.5-0.9l-1.7-1.1l-1.9-0.6 l-3.8-2.2v-0.6l-1.7-1.9l-5-2l-7.2-7.6l-2.2-4.6v-7.9l-3.1-6.3l-0.5-2.7l-1.6-0.9l-1.1-2l-4.9-2.1l-1.3-1.6l-6.9-7.7l-1.3-3.2 l-4.6-2.2l-1.4-4.3l-2.5-2.8l-1.9-0.5l-0.6-4.6l7.8,0.7l28.2,2.7l28.2,1.6l2.2-23.2l3.8-54.2l1.6-18.3h1.3"></path> <path class="st3" d="M355.2,340.4l22,1.1l30.2,1.1l-1.3,23.2l-0.4,17.4l0.2,1.6l4.2,3.6l2,1.1l0.7-0.2l0.7-2l1.3,1.8h2v-1.3l2.7,1.3 l-0.4,3.8l4,0.2l2.4,1.1l4,0.7l2.4,1.8l2.2-2l3.3,0.7l2.4,3.3h0.9v2.2l2.2,0.7l2.2-2.2l1.8,0.7h2.4l0.9,2.5l4.7,1.8l1.3-0.7l1.8-4 h1.1l1.1,2l4,0.7l3.6,1.3l2.9,0.9l1.8-0.9l0.7-2.5h4.2l2,0.9l2.7-2h1.1l0.7,1.6h4l1.6-2l1.8,0.4l2,2.5l3.1,1.8l3.1,0.9l2.7,1.2 l2.2,1.9l2.9-1.3l2.7,1.1l0.7,10.8v9.5l0.7,9.1l0.7,3.8l2.4,4l0.9,4.9l4.2,5.4l0.2,3.1l0.7,0.7l-0.7,8.2l-2.9,4.9l1.6,2l-0.7,2.5 l-0.7,7.1l-1.3,3.1l0.3,3.5l-6.3,1.7l-9.6,4.4l-0.9,1.9l-2.5,1.9l-2,1.4l-1.3,0.8l-5.5,5.2l-2.7,2.1l-5.2,3.2l-5.5,2.4l-6.1,3.3 l-1.7,1.4l-5.7,3.5l-3.3,0.6L454,530l-3.9,0.3l-0.9,1.9l2.2,1.9l-1.4,5.4l-1.3,4.4l-1.1,3.8l-0.8,4.4l0.8,2.4l1.7,6.8l0.9,6l1.7,2.7 l-0.9,1.4l-3,1.9l-5.5-3.8l-5.3-1.1l-1.3,0.5l-3.1-0.6l-4.1-3l-5-1.1l-7.4-3.3l-2-3.8l-1.3-6.3l-3.1-1.9l-0.6-2.2l0.6-0.6l0.3-3.3 l-1.3-0.6l-0.6-0.9l1.3-4.3l-1.6-2.2l-3.1-1.3l-3.3-4.3l-3.5-6.5l-4.1-2.5l0.2-1.9l-5.2-12l-0.8-4.1l-1.7-1.9l-0.2-1.4l-5.8-5.2 l-2.5-3v-1.1l-2.5-2l-6.6-1.1l-7.2-0.6l-3-2.2l-4.4,1.7l-3.5,1.4l-2.2,3.2l-0.9,3.6l-4.2,6l-2.4,2.4l-2.5-0.9l-1.7-1.1l-1.9-0.6 l-3.8-2.2v-0.6l-1.7-1.9l-5-2l-7.2-7.6l-2.2-4.6v-7.9l-3.1-6.3l-0.5-2.7l-1.6-0.9l-1.1-2l-4.9-2.1l-1.3-1.6l-6.9-7.7l-1.3-3.2 l-4.6-2.2l-1.4-4.3l-2.5-2.8l-1.9-0.5l-0.6-4.6l7.8,0.7l28.2,2.7l28.2,1.6l2.2-23.2l3.8-54.2l1.6-18.3h1.3"></path> <path class="st1" d="M141.9,393.1l4-0.8l1.4-2.1l0.6-2.7l-3.6-0.6l-0.4-0.8l0.4-1.7l0.1-5.7l2-0.7l2.8-2.7l0.6-4.8l1.4-3.6l1.9-1.9 l3.3-1.7l1.6-1.3l0.1-2.2l-1-0.6l-0.8-1l-1.2-5.7l-2.7-4.8l0.6-3.2l-2.4-3.2l-14.1-22.2l-18.9-28.3l-22.1-33l-12-18.1l1.6-6.4 l6.8-25.3l7.9-30.7L86.7,174l-13.1-3.3l-12.2-4l-7.3-2L43,161.8l-6.8-2.4l-1.5,4.6l-0.2,7.3l-5,11.5l-3,2.5l-0.3,1.1l-1.7,0.8 l-1.4,4.1l-0.8,3.2l2.7,4.1l1.6,4.1l1.1,3.5l-0.3,6.3l-1.7,3l-0.6,5.7l-0.9,3.6l1.7,3.8l2.7,4.4l2.2,4.7l1.3,3.9l-0.3,3.2l-0.3,0.5 v2l5.5,6.1l-0.5,2.4l-0.6,2.2l-0.6,1.9l0.2,8l2,3.6l1.9,2.5l2.7,0.5l0.9,2.7l-1.1,3.5l-2,1.6h-1.1l-0.8,3.8l0.5,2.8l3.1,4.3l1.6,5.2 l1.4,4.6l1.3,3l3.3,5.7l1.4,2.5l0.5,2.8l1.6,0.9v2.4l-0.8,1.9l-1.7,6.9l-0.5,1.9l2.4,2.7l4.1,0.5l4.4,1.7l3.8,2h2.8l2.8,3l2.5,4.7 l1.1,2.2l3.8,2.1l4.7,0.8l1.4,2l0.6,3.2l-1.4,0.6l0.3,0.9l3.1,0.8l2.7,0.2l2.8,4.6l3.8,4.1l0.8,2.2l2.5,4.1l0.3,3.2v9.1l0.5,1.7 l9.7,1.4l19.1,2.7L141.9,393.1L141.9,393.1z M55.9,344l1.3,1.5l-0.2,1.3l-3.1-0.1l-0.5-1.2l-0.6-1.4L55.9,344L55.9,344L55.9,344z M57.8,344l1.2-0.6l3.5,2l3,1.2l-0.9,0.6l-4.4-0.2l-1.6-1.6L57.8,344z M77.9,363.3l1.7,2.3l0.8,0.9l1.5,0.6l0.5-1.4l-0.9-1.7l-2.6-2 l-1,0.2V363.3z M76.5,371.8l1.7,3.1l1.2,1.9L78,377l-1.3-1.2c0,0-0.7-1.4-0.7-1.8s0-2.1,0-2.1L76.5,371.8L76.5,371.8z"></path> <path class="st1" d="M142.3,393.2l-2.6,2.1l-0.3,1.4l0.5,0.9l18.4,10.4l11.8,7.4l14.3,8.4l16.3,9.8l11.9,2.4l25.9,3.4l2-13l3.6-26.3 l6.8-51.9l4.1-30l-25-3.7l-26.4-4.5l-32.4-6.2l-2.8,17.6l-0.4,0.4l-1.7,2.6l-2.4-0.1l-1.2-2.7l-2.7-0.3l-0.9-1.1h-0.9l-0.9,0.6 l-1.9,1l-0.1,6.8l-0.2,1.7l-0.6,12.3l-1.4,2.1l-0.6,3.2l2.7,4.8l1.2,5.7l0.8,1l1,0.6l-0.1,2.2l-1.6,1.3l-3.3,1.7l-1.9,1.9l-1.4,3.6 l-0.6,4.8l-2.8,2.7l-2,0.7l-0.1,5.7l-0.4,1.7l0.4,0.8l3.6,0.6l-0.6,2.7l-1.4,2.1L142.3,393.2L142.3,393.2L142.3,393.2z"></path> <path class="st1" d="M145.1,188.5l20.4,4.4l9.4,1.9l9,1.8l7.8,2.1l-1.2,5.4l-3.4,17.1l-3.7,20l-1.9,8.7l-2.1,13.3l-3.2,16.2 l-3.1,14.8l-1.9,10.2l-2.9,17.3l-0.4,0.4l-1.7,2.6l-2.4-0.1l-1.2-2.7l-2.7-0.3l-0.9-1.1h-0.9l-0.9,0.6l-1.9,1l-0.1,6.8l-0.2,1.7 l-0.6,12.3L153,345l-2.4-3.1l-14.1-22.2l-18.9-28.3l-22.1-33l-12-18.1l1.6-6.4l6.8-25.3l7.7-30.6l32.6,7.9l13.3,2.9"></path> <path class="st3" d="M145.1,188.5l20.4,4.4l9.4,1.9l9,1.8l7.8,2.1l-1.2,5.4l-3.4,17.1l-3.7,20l-1.9,8.7l-2.1,13.3l-3.2,16.2 l-3.1,14.8l-1.9,10.2l-2.9,17.3l-0.4,0.4l-1.7,2.6l-2.4-0.1l-1.2-2.7l-2.7-0.3l-0.9-1.1h-0.9l-0.9,0.6l-1.9,1l-0.1,6.8l-0.2,1.7 l-0.6,12.3L153,345l-2.4-3.1l-14.1-22.2l-18.9-28.3l-22.1-33l-12-18.1l1.6-6.4l6.8-25.3l7.7-30.6l32.6,7.9l13.3,2.9"></path> <path class="st1" d="M254.9,318.5l-24.9-4l-26.4-4.5l-32.5-6l2-10l3.1-14.8l3.2-16.2l2.1-13.3l1.9-8.7l3.7-20l3.4-17.1l1.1-5.4 l12.3,2.2l11.7,2l10,1.8l8.1,1.3l4.7,0.8l-1.6,10.4l-1.6,11.6l6.3,0.9l16.4,2.2l8.9,1.1l-3,21.6l-3.1,21.9l-3.6,27.3l-1.5,10.8 L254.9,318.5L254.9,318.5L254.9,318.5z"></path> <path class="st1" d="M373.2,330.1l4-64.2l1.6-21.9l-32.4-2.7l-23.7-2l-36.2-4l-20.1-2.5l-2.6,21.6l-3.1,21.9l-3.6,27.3l-1.5,10.8 l-0.6,3.8l33.4,4l35.9,4.3l31.8,2.1l6.5,0.7l11.1,0.6"></path> <path class="st3" d="M373.2,330.1l4-64.2l1.6-21.9l-32.4-2.7l-23.7-2l-36.2-4l-20.1-2.5l-2.6,21.6l-3.1,21.9l-3.6,27.3l-1.5,10.8 l-0.6,3.8l33.4,4l35.9,4.3l31.8,2.1l6.5,0.7l11.1,0.6"></path> <path class="st1" d="M284.1,435.8l-0.8-4.7l7.8,0.7l28.2,2.7l28.2,1.6l2.2-23.2l3.8-54.2l1.6-18.3h1.3V329l-32-2.3l-35.9-4.3 l-33.5-4l-4.1,30l-6.8,51.9l-3.6,26.3l-2,13l15,1.9l1.3-9.8l16.2,2.5L284.1,435.8L284.1,435.8L284.1,435.8z"></path> <path class="st1" d="M145.4,188.1l4.3-17.6l4.2-17.3l1.3-4.1l2.4-5.8l-1.2-2.2l-2.4,0.1l-0.8-1l0.4-1.1l0.3-3l4.3-5.4l1.8-0.4 l1.1-1.1l0.6-3.1l0.9-0.7l3.8-5.7l3.8-4.2l0.2-3.7l-3.3-2.6l-1-4.1l-13.6-3.5l-14.6-3.5l-15,0.1l-0.4-1.3l-5.3,2l-4.3-0.6l-2.3-1.6 l-1.2,0.7l-4.5-0.2l-1.7-1.3l-5.1-2l-1,0.1l-4.2-1.4L91,94.3L85,94l-5.8-4l0.7-0.8l0.2-7.6l-2.2-3.8l-4-0.6l-0.7-2.5L71,74.4l-5.6,2 l-2.2,6.3L60,92.4l-3.1,6.3L52,112.5l-6.3,13.2L37.9,138l-1.9,2.8l-0.8,8.4L34,155l2.2,4.4l6.8,2.4l11.1,2.9l7.3,2l12.2,4l13.1,3.3 l13.1,3.8L145.4,188.1z M145.1,188.5l-45.5-10.8l32.6,7.9l13.3,2.9"></path> <path class="st3" d="M145.1,188.5l-45.5-10.8l32.6,7.9l13.3,2.9 M145.4,188.1l4.3-17.6l4.2-17.3l1.3-4.1l2.4-5.8l-1.2-2.2l-2.4,0.1 l-0.8-1l0.4-1.1l0.3-3l4.3-5.4l1.8-0.4l1.1-1.1l0.6-3.1l0.9-0.7l3.8-5.7l3.8-4.2l0.2-3.7l-3.3-2.6l-1-4.1l-13.6-3.5l-14.6-3.5 l-15,0.1l-0.4-1.3l-5.3,2l-4.3-0.6l-2.3-1.6l-1.2,0.7l-4.5-0.2l-1.7-1.3l-5.1-2l-1,0.1l-4.2-1.4L91,94.3L85,94l-5.8-4l0.7-0.8 l0.2-7.6l-2.2-3.8l-4-0.6l-0.7-2.5L71,74.4l-5.6,2l-2.2,6.3L60,92.4l-3.1,6.3L52,112.5l-6.3,13.2L37.9,138l-1.9,2.8l-0.8,8.4L34,155 l2.2,4.4l6.8,2.4l11.1,2.9l7.3,2l12.2,4l13.1,3.3l13.1,3.8L145.4,188.1z"></path> <path class="st5" d="M466.8,140.6l-0.7-8.2l-1.8-7.1l-1.8-13.2l-0.4-9.6l-1.8-3.3l-1.6-4.9v-10l0.7-3.8l-1.9-5.4L429,74.5l-18-0.6 l-25.7-1.3l-24.2-1.8l-1.2,13.9l-1.3,14.7l-2.2,24.3l-0.6,11.8l54.5,3.5L466.8,140.6L466.8,140.6z"></path> <path class="st5" d="M468.3,214.2l-0.9-2l-1.6-2.8l1.8-4.2l1.3-5.6l-2.7-2l-0.4-2.7l0.9-2.5h1.8l0.4-6.7l-0.2-29.7l-0.4-2.9l-4-3.3 l-1.1-1.8v-1.6l2-1.6l1.3-1.3l0.3-3.1l-56.5-1.6l-54.5-3.8l-0.7,5.1l-1.6,15.5l-1.3,17.5l-1.6,25.1l15.1,1l19.5,1.1l17.3,1.1 l23.1,1.1l10.4-0.4l2,2.2l4.7,2.9l1.1,0.9l4.2-1.3l3.8-0.4l2.7-0.2l1.8,1.3l4.9,1.6l2.9,1.6l0.4,1.6l0.9,2h1.8L468.3,214.2 L468.3,214.2z"></path> <path class="st1" d="M479.7,255.9l1.3,2.5l-0.2,2.2l2.4,3.8l3.1,4h-6l-42.8-0.4l-39.3-1.3l-21.2-0.8l1.7-21.7l-32.4-2.7l4.2-42.9 l15.1,1l19.5,1.1l17.3,1.1l23.1,1.1l10.4-0.4l2,2.2l4.7,2.9l1.1,0.9l4.2-1.3l3.8-0.4l2.7-0.2l1.8,1.3l4.9,1.6l2.9,1.6l0.4,1.6l0.9,2 h1.8l1.6-0.1l1.1,5.2l2.7,7.4l0.9,4.7l2.2,3.6l0.7,5.1l1.6,4l0.2,6.5l1.9,5.4"></path> <path class="st3" d="M479.7,255.9l1.3,2.5l-0.2,2.2l2.4,3.8l3.1,4h-6l-42.8-0.4l-39.3-1.3l-21.2-0.8l1.7-21.7l-32.4-2.7l4.2-42.9 l15.1,1l19.5,1.1l17.3,1.1l23.1,1.1l10.4-0.4l2,2.2l4.7,2.9l1.1,0.9l4.2-1.3l3.8-0.4l2.7-0.2l1.8,1.3l4.9,1.6l2.9,1.6l0.4,1.6l0.9,2 h1.8l1.6-0.1l1.1,5.2l2.7,7.4l0.9,4.7l2.2,3.6l0.7,5.1l1.6,4l0.2,6.5l1.9,5.4"></path> <path class="st1" d="M559.5,211.7l0.1,1.8l2.2,0.7l0.9,1.1l0.4,1.8l3.8,3.3l0.7,2.2l-0.7,3.3l-1.8,3.6l-0.7,2.5l-2.2,1.8l-1.8,0.7 l-5.1,1.3l-0.7,1.8l-0.7,2l0.7,1.3l1.8,1.6l-0.2,4l-1.8,1.6l-0.7,1.6v2.7l-1.8,0.4l-1.6,1.1l-0.2,1.3l0.2,2l-1.7,1.7l-3.2-3.3 l-1.1-2.2l-7.5,0.7l-9.5,0.4l-24.6,0.9l-13.1,0.2l-9.1,0.2l-1.1,0.1l-1.6-5.2l-0.2-6.5l-1.6-4l-0.7-5.1l-2.2-3.6l-0.9-4.7l-2.7-7.4 l-1.1-5.2l-1.3-2.1l-1.6-2.7l1.8-4.2l1.3-5.6l-2.7-2l-0.4-2.7l0.9-2.5h1.7h11.2l48.2-0.7L545,191l4-0.1l0.7,3.2l2.2,1.6l0.2,1.3 l-2,3.3l0.2,3.1l2.4,3.8l2.4,1.1l2.9,0.4L559.5,211.7L559.5,211.7z"></path> <path class="st1" d="M615.7,470.7l-1.1,1.2h-5l-1.4-0.8l-2-0.3l-6.6,1.9l-1.7-0.8l-2.5,4.1l-1.1,0.8l-1.1-2.4l-1.1-3.8l-3.3-3.1 l1.1-7.4l-0.7-0.9l-1.8,0.2l-8,0.7l-23.5,0.7l-0.4-1.6l0.7-7.8l3.3-6l5.1-8.9l-0.9-2h1.1l0.7-3.1l-2.2-1.8l0.2-1.8l-2-4.5l-0.3-5.2 l1.3-2.6l-0.4-4.2l-1.3-2.9l1.3-1.3l-1.3-2l0.4-1.8l0.9-6l2.9-2.7l-0.7-2l3.5-5.1l2.7-0.9v-2.5l-0.7-1.3l2.7-5.1l2.7-1.1l0.1-3.3 l8.4-0.1l23.4-1.9l5.3-0.2v6.2l0.2,16.2l-0.8,30.3l-0.2,13.7l2.7,18.3L615.7,470.7L615.7,470.7z"></path> <path class="st1" d="M609.1,309.7l-0.2-3.8l0.5-4.4l2.2-2.8l1.7-3.8l2.5-4.1l-0.5-5.7l-1.7-2.7l-0.3-3.2l0.8-5.4l-0.5-6.8l-1.3-15.6 l-1.3-15l-0.9-11.4l3,0.9l1.4,0.9l1.1-0.3l2-1.9l2.7-1.6l4.9-0.2l21.3-2.2l6-0.6l0.2,1.1l1.4,14.3L656,249l2.5,22.9l0.5,5.5 l-0.5,2.2l1.4,1.4l0.3,1.9l-2.7,1.9l-3.8,1.7l-2.7,0.3l-0.5,4.4l-4.6,3.8l-2.8,3.5l0.3,2.2l-0.8,2H638l-1.1-1.6l-1.1,0.8l-2.8,1.6 l0.2,3.3l-2,0.5l-0.8-1.1l-1.9-1.6l-2.8,1.4l-1.7,3.2l-1.7-0.8l-1.4-1.9l-3.5,0.5l-5.6,0.9L609.1,309.7L609.1,309.7z"></path> <path class="st1" d="M608.9,309.6V306l0.5-4.4l2.2-2.8l1.7-3.8l2.5-4.1l-0.5-5.7l-1.7-2.7l-0.3-3.2l0.8-5.4l-0.5-6.8l-1.3-15.6 l-1.3-15l-0.8-11.4l-1.3-0.8l-0.8-2.5l-1.3-3.6l-1.6-1.7l-1.4-2.5l-0.2-5.4l-9.6,1.3l-26.4,1.7l-8.4-0.4l0.2,2.3l2.2,0.7l0.9,1.1 l0.4,1.8l3.8,3.3l0.7,2.2l-0.7,3.3l-1.8,3.6l-0.7,2.5l-2.2,1.8l-1.8,0.7l-5.1,1.3l-0.7,1.8l-0.7,2l0.7,1.3l1.8,1.6l-0.2,4l-1.8,1.6 l-0.7,1.6v2.7l-1.8,0.4l-1.6,1.1l-0.2,1.3l0.2,2l-1.7,1.3l-1,2.7l0.4,3.6l2.2,7.1l7.1,7.4l5.3,3.6l-0.2,4.2l0.9,1.3l6.2,0.4l2.7,1.3 l-0.7,3.6l-2.2,5.8l-0.7,3.1l2.2,3.8l6.2,5.1l4.4,0.7l2,4.9l2,3.1l-0.9,2.9l1.6,4l1.8,2l2.9-0.3l0.6-2l2.2-1.7l2-0.6l2.7,1.3 l3.5,1.3l1.1-0.3l0.2-2.2l-1.3-2.4l0.3-2.2l1.9-1.4l2.5-0.6l1.6-0.6l-0.8-1.7l-0.6-1.9l1.1-0.8L608.9,309.6L608.9,309.6z"></path> <path class="st1" d="M466.6,140.6l-0.4-8.2l-1.8-7.1l-1.8-13.2l-0.4-9.6l-1.8-3.3l-1.6-4.9v-10l0.7-3.8l-1.8-5.3h29.2l0.3-8l0.6-0.2 l2.2,0.5l1.9,0.8l0.8,5.4l1.4,6l1.6,1.6h4.7l0.3,1.4l6.1,0.3v2h4.7l0.3-1.3l1.1-1.1l2.2-0.6l1.3,0.9h2.8l3.8,2.5l5.2,2.4l2.4,0.5 l0.5-0.9l1.4-0.5l0.5,2.8l2.5,1.3l0.5-0.5l1.3,0.2v2l2.5,0.9h3l1.6-0.8l3.1-3.2l2.5-0.5l0.8,1.7l0.5,1.3h0.9l0.9-0.8l8.6-0.3l1.7,3 h0.6l0.7-1.1l4.3-0.4l-0.6,2.2l-3.8,1.8l-9,4l-4.6,2l-3,2.5l-2.4,3.5l-2.2,3.8l-1.7,0.8l-4.4,4.9l-1.3,0.2l-3.3,3l0.7,0.5l-2.7,2.6 l-0.2,2.7v8.3l-1.1,1.6l-5.1,3.8l-2.2,5.8l0.4,0.2l2.4,2l0.7,3.1l-1.8,3.1v3.8l0.4,6.5l2.9,2.9h3.3l1.8,3.1l3.3,0.4l3.8,5.6l6.9,4 l2,2.7l0.9,7.4h-4l-17.5,0.7l-48.2,0.7h-11.2l0.6-6.7l-0.2-29.7l-0.4-2.9l-4-3.3l-1.1-1.8v-1.6l2-1.6l1.3-1.3L466.6,140.6 L466.6,140.6L466.6,140.6z"></path> <path class="st1" d="M603.8,208.8l0.1-4.1l-1.6-4.4l-0.6-6l-1.1-2.4l0.9-3l0.8-2.8l1.4-2.5l-0.6-3.3l-0.6-3.5l0.5-1.7l1.9-2.4 l0.2-2.7l-0.8-1.3l0.6-2.5l0.5-3.2l2.7-5.5l2.8-6.6l0.2-2.2l-0.3-0.9l-0.8,0.5l-4.1,6.1l-2.7,3.9l-1.9,1.7l-0.8,2.2l-1.4,0.8 l-1.1,1.9l-1.4-0.3l-0.2-1.7l1.3-2.4l2-4.6l1.7-1.6l1.1-2.2l-1.6-0.9l-1.3-1.3l-1.6-10l-3.6-1.1l-1.3-2.2l-12.2-2.7l-2.4-1.1l-8-2.2 l-8-1.1l-4-5.3l-0.5,1.2l-1.1-0.2l-0.6-1.1l-2.7-0.8l-1.1,0.2l-1.7,0.9l-0.9-0.6l0.6-1.9l1.9-3l1.1-1.1l-1.9-1.4l-2,0.8l-2.8,1.9 l-7.2,3.2l-2.8,0.6l-2.8-0.5l-1-0.9l-2.1,2.8l-0.2,2.7v8.3l-1.1,1.6l-5.1,3.8l-2.2,5.8l0.4,0.2l2.4,2l0.7,3.1l-1.8,3.1v3.8l0.4,6.5 l2.9,2.9h3.3l1.8,3.1l3.3,0.4l3.8,5.6l6.9,4l2,2.7l0.9,7.2l0.7,3.2l2.2,1.6l0.2,1.3l-2,3.3l0.2,3.1l2.4,3.8l2.4,1.1l2.9,0.4l1.2,2.5 h8.9l25.9-1.6L603.8,208.8L603.8,208.8z"></path> <path class="st0" d="M548.7,258.8l-3.1-3.1l-1.1-2.2l-7.5,0.7l-9.5,0.4l-24.6,0.9l-13.1,0.2l-7.7,0.1l-2.2,0.1l1.2,2.5l-0.2,2.2 l2.4,3.8l3,4l3,2.7l2.2,0.2l1.3,0.9v2.9l-1.8,1.6l-0.4,2.2l2,3.3l2.4,2.9l2.4,1.8l1.3,11.4l-0.7,34.4l0.2,4.6l0.4,6.7l22.6-0.4 l22.6-0.7L564,342l10.7-0.4l1.8,2.9l-0.4,2.2l-3.1,2.7l-0.7,2.9l6,0.4l4.9-0.7l2-6.2l-0.1-5.5l2.8-1.4l1.3-1.6l2-1.1l0.2-3.1 l0.9-1.8l-1.3-2.4l-2.9,0.4l-1.8-2l-1.6-4l0.9-2.9l-2-3.1l-2-4.9l-4.4-0.7l-6.2-5.1l-2.2-3.8l0.7-3.1l2.2-5.8l0.7-3.6l-2.7-1.3 l-6.2-0.4l-0.9-1.3l0.2-4.2l-5.3-3.6l-7.1-7.4l-2.2-7.1l-0.4-3.6L548.7,258.8L548.7,258.8z"></path> <path class="st1" d="M583.2,351.7l-4.7,0.9l-6-0.4l0.7-2.9l3.1-2.7l0.4-2.2l-1.8-2.9l-10.7,0.4l-20.2,0.9l-22.6,0.7l-22.6,0.4 l1.6,6.7v8l1.3,10.7l0.2,36.9l2.2,1.9l2.9-1.3l2.7,1.1l0.6,11h21.6l18.6-0.9l10.5,0.1l1.4-2.6l-0.4-4.2l-1.3-2.9l1.3-1.3l-1.3-2 l0.4-1.8l0.9-6l2.9-2.7l-0.7-2l3.5-5.1l2.7-0.9v-2.5l-0.7-1.3l2.7-5.1l2.7-1.1l-0.3-3.6l2.4-1.1l0.9-4.6l-1.4-3.5l3.9-2.2l0.3-2.5 l1.3-4.3L583.2,351.7L583.2,351.7L583.2,351.7z"></path> <path class="st1" d="M372.9,329.9l-10.4-0.4l-6.2-0.5l0.2,0.2l-0.5,11.3l21.2,1.1l30.2,1.1l-1.3,23.2l-0.4,17.4l0.2,1.6l4.2,3.6 l2,1.1l0.7-0.2l0.7-2l1.3,1.8h2v-1.3l2.7,1.3l-0.4,3.8l4,0.2l2.4,1.1l4,0.7l2.4,1.8l2.2-2l3.3,0.7l2.4,3.3h0.9v2.2l2.2,0.7l2.2-2.2 l1.8,0.7h2.4l0.9,2.5l4.7,1.8l1.3-0.7l1.8-4h1.1l1.1,2l4,0.7l3.6,1.3l2.9,0.9l1.8-0.9l0.7-2.5h4.2l2,0.9l2.7-2h1.1l0.7,1.6h4l1.6-2 l1.8,0.4l2,2.5l3.1,1.8l3.1,0.9l2.7,1.6l-0.2-37.2l-1.3-10.7v-8l-1.6-6.7l-0.4-6.7l-0.2-4.3l-12.9,0.8l-45.1-0.4l-43.7-2 L372.9,329.9L372.9,329.9z"></path> <path class="st1" d="M498.1,333l-12.9,0.7l-45.1-0.4l-43.7-2L373,330l4-64.2l21.2,0.8l39.3,1.3l42.8,0.4h5.9l3,2.7l2.2,0.2l1.3,0.9 v2.9l-1.8,1.6l-0.4,2.2l2,3.3l2.4,2.9l2.4,1.8l1.3,11.4L498.1,333L498.1,333L498.1,333z"></path> <path class="st1" d="M594.3,476.6l-1.2-2.2l-1.1-3.8l-3.3-3.1l1.1-7.4l-0.7-0.9l-1.8,0.2l-8,0.7l-23.5,0.7l-0.4-1.6l0.7-7.8l3.3-6 l5.1-8.9l-0.9-2h1.1l0.7-3.1l-2.2-1.8l0.2-1.8l-2-4.5L561,418h-10.5l-18.6,0.9h-21.6v9.3l0.7,9.1l0.7,3.8l2.4,4l0.9,4.9l4.2,5.4 l0.2,3.1l0.7,0.7l-0.7,8.2l-2.9,4.9l1.6,2l-0.7,2.5l-0.7,7.1l-1.3,3.1l0.1,3.5l4.5-1.5l7.8-0.3l10,3.5l6.3,1.1l3.6-1.4l3.1,1.1 l3.1,0.9l0.8-2l-3.1-1.1l-2.5,0.5l-2.7-1.6c0,0,0.2-1.3,0.8-1.4c0.6-0.2,3-0.9,3-0.9l1.7,1.4l1.7-0.9l3.1,0.6l1.4,2.4l0.3,2.2 l4.4,0.3l1.7,1.7l-0.8,1.6l-1.3,0.8l1.6,1.6l8.2,3.5l3.5-1.3l0.9-2.4l2.5-0.6l1.7-1.4l1.3,0.9l0.8,2.8l-2.2,0.8l0.6,0.6l3.3-1.3 l2.2-3.3l0.8-0.5l-2-0.3l0.8-1.6l-0.2-1.4l2-0.5l1.1-1.3l0.6,0.8c0,0-0.2,3,0.6,3s4.1,0.6,4.1,0.6l3.9,1.9l0.9,1.4h2.8l1.1,0.9 l2.2-3V496h-1.3l-3.3-2.7l-5.6-0.8l-3.1-2.2l1.1-2.7l2.2,0.3l0.2-0.6l-1.7-0.9v-0.5h3.1l1.7-3l-1.3-1.9l-0.3-2.7l-1.4,0.2l-1.9,2 l-0.6,2.5l-3-0.6l-0.9-1.7l1.7-1.9l2-1.7L594.3,476.6L594.3,476.6z"></path> <path class="st6" d="M121.7,63.1l-3,9.2h-1.8l-2.3-6.8l-2.3,6.8h-1.8l-3-9.2h1.8l2.3,7l2.4-7h1.6l2.3,7l2.3-7 C120.2,63.1,121.7,63.1,121.7,63.1z"></path> <path class="st6" d="M128.7,70.1h-4.6l-0.9,2.1h-1.8l4.1-9.2h1.7l4.1,9.2h-1.8L128.7,70.1z M128.1,68.8l-1.7-4l-1.7,4H128.1z"></path> <path class="st6" d="M101.6,144.3c-0.9,0-1.8-0.2-2.5-0.6c-0.8-0.4-1.3-1-1.8-1.7c-0.4-0.7-0.6-1.5-0.6-2.4s0.2-1.7,0.6-2.4 s1-1.3,1.8-1.7s1.6-0.6,2.5-0.6s1.8,0.2,2.5,0.6c0.8,0.4,1.3,1,1.8,1.7c0.4,0.7,0.6,1.5,0.6,2.4s-0.2,1.7-0.6,2.4s-1,1.3-1.8,1.7 C103.4,144.1,102.5,144.3,101.6,144.3z M101.6,142.8c0.6,0,1.2-0.1,1.6-0.4c0.5-0.3,0.9-0.7,1.2-1.2c0.3-0.5,0.4-1.1,0.4-1.7 c0-0.6-0.1-1.2-0.4-1.6c-0.3-0.5-0.7-0.9-1.2-1.2s-1-0.4-1.6-0.4s-1.2,0.1-1.6,0.4c-0.5,0.3-0.9,0.7-1.2,1.2c-0.3,0.5-0.4,1-0.4,1.6 s0.1,1.2,0.4,1.7s0.7,0.9,1.2,1.2C100.4,142.7,101,142.8,101.6,142.8z"></path> <path class="st6" d="M71.1,295.3c-0.9,0-1.8-0.2-2.5-0.6s-1.3-1-1.8-1.7c-0.4-0.7-0.6-1.5-0.6-2.4s0.2-1.7,0.6-2.4 c0.4-0.7,1-1.3,1.8-1.7c0.8-0.4,1.6-0.6,2.5-0.6c0.8,0,1.4,0.1,2.1,0.4c0.6,0.3,1.1,0.6,1.6,1.1l-1.1,1c-0.7-0.7-1.5-1.1-2.4-1.1 c-0.6,0-1.2,0.1-1.7,0.4s-0.9,0.6-1.2,1.1c-0.3,0.5-0.4,1-0.4,1.7c0,0.6,0.1,1.2,0.4,1.7s0.7,0.9,1.2,1.2c0.5,0.3,1.1,0.4,1.7,0.4 c1,0,1.8-0.4,2.4-1.1l1.1,1c-0.4,0.5-1,0.9-1.6,1.1C72.5,295.1,71.8,295.3,71.1,295.3z"></path> <path class="st6" d="M82.1,293h-4.6l-0.9,2.1h-1.8L79,286h1.7l4.1,9.2H83L82.1,293z M81.5,291.7l-1.7-4l-1.7,4H81.5z"></path> <path class="st6" d="M142.2,242.3v9.2h-1.4l-5.1-6.2v6.2H134v-9.2h1.4l5.1,6.2v-6.2H142.2z"></path> <path class="st6" d="M153,242.3l-4,9.2h-1.7l-4-9.2h1.8l3,7.1l3.1-7.1H153z"></path> <path class="st6" d="M192,158.8h1.7v9.2H192V158.8z M196.2,158.8h4c1,0,1.8,0.2,2.6,0.6c0.8,0.4,1.3,0.9,1.8,1.6 c0.4,0.7,0.6,1.5,0.6,2.4s-0.2,1.7-0.6,2.4c-0.4,0.7-1,1.2-1.8,1.6c-0.8,0.4-1.6,0.6-2.6,0.6h-4V158.8z M200.1,166.5 c0.7,0,1.3-0.1,1.8-0.4c0.5-0.3,0.9-0.6,1.2-1.1s0.4-1,0.4-1.7c0-0.6-0.1-1.2-0.4-1.6c-0.3-0.5-0.7-0.8-1.2-1.1s-1.1-0.4-1.8-0.4 h-2.2v6.3H200.1z"></path> <path class="st6" d="M284.2,111v-6.1l-3,5h-0.8l-3-4.9v6h-1.6v-9.2h1.4l3.6,6.1l3.6-6.1h1.4v9.2H284.2z M290.1,103.3h-3v-1.4h7.8 v1.4h-3v7.7h-1.7L290.1,103.3L290.1,103.3z"></path> <path class="st6" d="M304.9,189.3l-3,9.2h-1.8l-2.3-6.8l-2.3,6.8h-1.8l-3-9.2h1.8l2.3,7l2.4-7h1.6l2.3,7l2.3-7H304.9z"></path> <path class="st6" d="M217.3,263.8c-1.3,0-2.3-0.4-3-1.1s-1.1-1.7-1.1-3.1v-5.2h1.7v5.1c0,1.8,0.8,2.7,2.3,2.7s2.3-0.9,2.3-2.7v-5.1 h1.7v5.2c0,1.3-0.4,2.3-1.1,3.1C219.6,263.5,218.6,263.8,217.3,263.8z"></path> <path class="st6" d="M313.6,286.7c-0.9,0-1.8-0.2-2.5-0.6s-1.3-1-1.8-1.7c-0.4-0.7-0.6-1.5-0.6-2.4s0.2-1.7,0.6-2.4 c0.4-0.7,1-1.3,1.8-1.7c0.8-0.4,1.6-0.6,2.5-0.6c0.8,0,1.4,0.1,2.1,0.4c0.6,0.3,1.1,0.6,1.6,1.1l-1.1,1c-0.7-0.7-1.5-1.1-2.4-1.1 c-0.6,0-1.2,0.1-1.7,0.4s-0.9,0.7-1.2,1.1c-0.3,0.5-0.4,1-0.4,1.7c0,0.6,0.1,1.2,0.4,1.7s0.7,0.9,1.2,1.2c0.5,0.3,1.1,0.4,1.7,0.4 c1,0,1.8-0.4,2.4-1.1l1.1,1c-0.4,0.5-1,0.9-1.6,1.1C315.1,286.5,314.4,286.7,313.6,286.7z"></path> <path class="st6" d="M323,286.7c-0.9,0-1.8-0.2-2.5-0.6c-0.8-0.4-1.3-1-1.8-1.7c-0.4-0.7-0.6-1.5-0.6-2.4s0.2-1.7,0.6-2.4 c0.4-0.7,1-1.3,1.8-1.7c0.8-0.4,1.6-0.6,2.5-0.6s1.8,0.2,2.5,0.6c0.8,0.4,1.3,1,1.8,1.7c0.4,0.7,0.6,1.5,0.6,2.4s-0.2,1.7-0.6,2.4 c-0.4,0.7-1,1.3-1.8,1.7C324.8,286.5,323.9,286.7,323,286.7z M323,285.2c0.6,0,1.2-0.1,1.6-0.4c0.5-0.3,0.9-0.7,1.2-1.2 c0.3-0.5,0.4-1.1,0.4-1.7s-0.1-1.2-0.4-1.6c-0.3-0.5-0.7-0.9-1.2-1.2c-0.5-0.3-1-0.4-1.6-0.4s-1.2,0.1-1.6,0.4 c-0.5,0.3-0.9,0.7-1.2,1.2c-0.3,0.5-0.4,1-0.4,1.6s0.1,1.2,0.4,1.7s0.7,0.9,1.2,1.2C321.8,285,322.4,285.2,323,285.2z"></path> <path class="st6" d="M202.1,371.5h-4.6l-0.9,2.1h-1.8l4.1-9.2h1.7l4.1,9.2H203L202.1,371.5z M201.5,370.1l-1.7-4l-1.7,4H201.5z M213,372.2v1.4h-7.8v-1.1l5.4-6.6h-5.3v-1.4h7.6v1.1l-5.4,6.6H213z"></path> <path class="st6" d="M413.9,227.5v9.2h-1.4l-5.1-6.2v6.2h-1.7v-9.2h1.4l5.1,6.2v-6.2H413.9z M423.2,235.2v1.4h-6.9v-9.2h6.7v1.4h-5 v2.4h4.4v1.4H418v2.5h5.2V235.2z"></path> <path class="st7" d="M404.2,174.7c-0.7,0-1.4-0.1-2.1-0.3s-1.2-0.5-1.6-0.8l0.6-1.3c0.4,0.3,0.8,0.5,1.4,0.7 c0.5,0.2,1.1,0.3,1.6,0.3c0.7,0,1.2-0.1,1.5-0.3s0.5-0.5,0.5-0.9c0-0.3-0.1-0.5-0.3-0.6c-0.2-0.2-0.4-0.3-0.7-0.4 c-0.3-0.1-0.7-0.2-1.2-0.3c-0.7-0.2-1.3-0.3-1.7-0.5c-0.4-0.2-0.8-0.4-1.1-0.8c-0.3-0.4-0.5-0.8-0.5-1.4c0-0.5,0.1-1,0.4-1.4 s0.7-0.8,1.2-1c0.6-0.2,1.2-0.4,2-0.4c0.6,0,1.1,0.1,1.6,0.2c0.5,0.1,1,0.3,1.4,0.6l-0.5,1.3c-0.4-0.2-0.8-0.4-1.3-0.5 s-0.9-0.2-1.3-0.2c-0.7,0-1.2,0.1-1.5,0.3s-0.5,0.5-0.5,0.9c0,0.3,0.1,0.5,0.3,0.6c0.2,0.2,0.4,0.3,0.7,0.4c0.3,0.1,0.7,0.2,1.2,0.3 c0.7,0.2,1.2,0.3,1.7,0.5c0.4,0.2,0.8,0.4,1.1,0.8c0.3,0.3,0.5,0.8,0.5,1.4c0,0.5-0.1,1-0.4,1.4s-0.7,0.7-1.2,1 C405.7,174.6,405,174.7,404.2,174.7z M409.6,165.4h4c1,0,1.8,0.2,2.6,0.6c0.8,0.4,1.3,0.9,1.8,1.6c0.4,0.7,0.6,1.5,0.6,2.4 s-0.2,1.7-0.6,2.4s-1,1.2-1.8,1.6c-0.8,0.4-1.6,0.6-2.6,0.6h-4V165.4z M413.5,173.1c0.7,0,1.3-0.1,1.8-0.4c0.5-0.3,0.9-0.6,1.2-1.1 c0.3-0.5,0.4-1,0.4-1.7c0-0.6-0.1-1.2-0.4-1.6c-0.3-0.5-0.7-0.8-1.2-1.1s-1.1-0.4-1.8-0.4h-2.2v6.3H413.5z"></path> <path class="st7" d="M408.1,101.8v9.2h-1.4l-5.1-6.2v6.2h-1.7v-9.2h1.4l5.1,6.2v-6.2H408.1z M410.5,101.8h4c1,0,1.8,0.2,2.6,0.6 c0.8,0.4,1.3,0.9,1.8,1.6c0.4,0.7,0.6,1.5,0.6,2.4s-0.2,1.7-0.6,2.4c-0.4,0.7-1,1.2-1.8,1.6s-1.6,0.6-2.6,0.6h-4V101.8z M414.5,109.6c0.7,0,1.3-0.1,1.8-0.4s0.9-0.6,1.2-1.1c0.3-0.5,0.4-1,0.4-1.7s-0.1-1.2-0.4-1.6c-0.3-0.5-0.7-0.8-1.2-1.1 c-0.5-0.3-1.1-0.4-1.8-0.4h-2.2v6.3C412.3,109.6,414.5,109.6,414.5,109.6z"></path> <path class="st6" d="M493.5,143.2v-6.1l-3,5h-0.8l-3-4.9v6H485V134h1.4l3.6,6.1l3.6-6.1h1.4v9.2H493.5z M505.7,134v9.2h-1.4 l-5.1-6.2v6.2h-1.7V134h1.4l5.1,6.2V134H505.7z"></path> <path class="st6" d="M511.7,220.1h1.7v9.2h-1.7V220.1z M521.8,227.2h-4.6l-0.9,2.1h-1.8l4.1-9.2h1.7l4.1,9.2h-1.8L521.8,227.2z M521.3,225.8l-1.7-4l-1.7,4H521.3z"></path> <path class="st6" d="M575.7,161.5l-3,9.2h-1.8l-2.3-6.8l-2.3,6.8h-1.8l-3-9.2h1.8l2.3,7l2.4-7h1.6l2.3,7l2.3-7H575.7z"></path> <path class="st6" d="M577.1,161.5h1.7v9.2h-1.7V161.5z"></path> <path class="st6" d="M581.9,259.6h1.7v9.2h-1.7V259.6z"></path> <path class="st6" d="M628.2,260h1.7v9.2h-1.7V260z M640.6,260v9.2h-1.4l-5.1-6.2v6.2h-1.7V260h1.4l5.1,6.2V260H640.6z"></path> <path class="st6" d="M678.9,255.8c-0.9,0-1.8-0.2-2.5-0.6c-0.8-0.4-1.3-1-1.8-1.7c-0.4-0.7-0.6-1.5-0.6-2.4s0.2-1.7,0.6-2.4 c0.4-0.7,1-1.3,1.8-1.7s1.6-0.6,2.5-0.6s1.8,0.2,2.5,0.6c0.8,0.4,1.3,1,1.8,1.7c0.4,0.7,0.6,1.5,0.6,2.4s-0.2,1.7-0.6,2.4 c-0.4,0.7-1,1.3-1.8,1.7C680.7,255.6,679.9,255.8,678.9,255.8z M678.9,254.3c0.6,0,1.2-0.1,1.6-0.4c0.5-0.3,0.9-0.7,1.2-1.2 s0.4-1.1,0.4-1.7c0-0.6-0.1-1.2-0.4-1.6c-0.3-0.5-0.7-0.9-1.2-1.2s-1-0.4-1.6-0.4s-1.2,0.1-1.6,0.4c-0.5,0.3-0.9,0.7-1.2,1.2 s-0.4,1-0.4,1.6s0.1,1.2,0.4,1.7c0.3,0.5,0.7,0.9,1.2,1.2C677.8,254.2,678.3,254.3,678.9,254.3z"></path> <path class="st6" d="M648.9,191.9v-6.1l-3,5h-0.8l-3-4.9v6h-1.6v-9.2h1.4l3.6,6.1l3.6-6.1h1.4v9.2H648.9z M653,182.7h1.7v9.2H653 V182.7z"></path> <path class="st6" d="M761.2,219.5c0.8,0,1.5,0.1,2.1,0.4c0.6,0.3,1,0.6,1.4,1.1c0.3,0.5,0.5,1.1,0.5,1.7c0,0.7-0.2,1.2-0.5,1.7 s-0.8,0.9-1.4,1.1c-0.6,0.3-1.3,0.4-2.1,0.4h-2.1v2.6h-1.7v-9.2h3.8V219.5z M761.1,224.6c0.7,0,1.3-0.2,1.7-0.5s0.6-0.8,0.6-1.3 c0-0.6-0.2-1-0.6-1.3c-0.4-0.3-0.9-0.5-1.7-0.5h-2v3.6H761.1z"></path> <path class="st6" d="M772.3,226.5h-4.6l-0.9,2.1H765l4.1-9.2h1.7l4.1,9.2h-1.8L772.3,226.5z M771.7,225.2l-1.7-4l-1.7,4H771.7z"></path> <path class="st7" d="M854.7,228v9.2h-1.4l-5.1-6.2v6.2h-1.7V228h1.4l5.1,6.2V228H854.7z M858.6,237.3c-0.6,0-1.1-0.1-1.6-0.3 s-0.9-0.6-1.2-1l1-1.2c0.5,0.7,1.1,1,1.8,1c1,0,1.4-0.6,1.4-1.7v-4.7h-3.3V228h5v6.1c0,1.1-0.3,1.9-0.8,2.4S859.6,237.3,858.6,237.3 z"></path> <path class="st6" d="M841.1,189.3c-0.5,0-1-0.1-1.3-0.3c-0.4-0.2-0.7-0.5-1-0.9c-0.2-0.4-0.3-0.8-0.3-1.3s0.1-0.9,0.3-1.3 c0.2-0.4,0.5-0.7,1-0.9s0.9-0.3,1.3-0.3c0.4,0,0.8,0.1,1.1,0.2c0.3,0.2,0.6,0.3,0.9,0.6l-0.6,0.5c-0.4-0.4-0.8-0.6-1.3-0.6 c-0.3,0-0.6,0.1-0.9,0.2c-0.3,0.2-0.5,0.4-0.6,0.6s-0.2,0.5-0.2,0.9c0,0.3,0.1,0.6,0.2,0.9s0.4,0.5,0.6,0.6s0.6,0.2,0.9,0.2 c0.5,0,1-0.2,1.3-0.6l0.6,0.5c-0.2,0.3-0.5,0.5-0.9,0.6C841.8,189.3,841.4,189.3,841.1,189.3z"></path> <path class="st6" d="M844.8,185.1h-1.6v-0.8h4.2v0.8h-1.6v4.1h-0.9L844.8,185.1L844.8,185.1z"></path> <path class="st6" d="M847,172.5v-2.6l-1.3,2.1h-0.3l-1.3-2.1v2.6h-0.7v-4h0.6l1.5,2.6l1.5-2.6h0.6v4H847z M851.3,171.6h-2l-0.4,0.9 h-0.7l1.8-4h0.7l1.8,4h-0.8L851.3,171.6z M851,171l-0.7-1.7l-0.7,1.7H851z"></path> <path class="st6" d="M799.1,165.4v9.2h-1.4l-5.1-6.2v6.2h-1.7v-9.2h1.4l5.1,6.2v-6.2H799.1z M805.5,171.3v3.2h-1.7v-3.2l-3.6-6h1.8 l2.7,4.5l2.7-4.5h1.7L805.5,171.3z"></path> <path class="st6" d="M829.3,135l-2.7,6.3h-1.2l-2.7-6.3h1.2l2.1,4.9l2.1-4.9H829.3z"></path> <path class="st6" d="M831.3,136h-2.1v-1h5.3v1h-2.1v5.3h-1.2L831.3,136L831.3,136z"></path> <path class="st6" d="M848.2,147v5.4h-0.8l-3-3.6v3.6h-1V147h0.8l3,3.6V147H848.2z M854.4,147v5.4h-1v-2.3h-2.8v2.3h-1V147h1v2.2h2.8 V147H854.4z"></path> <path class="st6" d="M292.7,374.3v9.2h-1.4l-5.1-6.2v6.2h-1.7v-9.2h1.4l5.1,6.2v-6.2H292.7z M303.5,383.4v-6.1l-3,5h-0.8l-3-4.9v6 h-1.6v-9.2h1.4l3.6,6.1l3.6-6.1h1.4v9.2H303.5z"></path> <path class="st6" d="M419.4,452.4h-3V451h7.8v1.4h-3v7.7h-1.7L419.4,452.4L419.4,452.4z"></path> <path class="st6" d="M430.8,460.2l-2.5-3.5l-2.5,3.5H424l3.4-4.7l-3.2-4.5h1.9l2.3,3.3l2.3-3.3h1.8l-3.2,4.4l3.4,4.7h-1.9 L430.8,460.2L430.8,460.2z"></path> <path class="st6" d="M447.6,373.1c-0.9,0-1.8-0.2-2.5-0.6c-0.8-0.4-1.3-1-1.8-1.7c-0.4-0.7-0.6-1.5-0.6-2.4s0.2-1.7,0.6-2.4 c0.4-0.7,1-1.3,1.8-1.7c0.8-0.4,1.6-0.6,2.5-0.6s1.8,0.2,2.5,0.6c0.8,0.4,1.3,1,1.8,1.7c0.4,0.7,0.6,1.5,0.6,2.4s-0.2,1.7-0.6,2.4 c-0.4,0.7-1,1.3-1.8,1.7C449.4,372.9,448.6,373.1,447.6,373.1z M447.6,371.6c0.6,0,1.2-0.1,1.6-0.4c0.5-0.3,0.9-0.7,1.2-1.2 c0.3-0.5,0.4-1.1,0.4-1.7s-0.1-1.2-0.4-1.6c-0.3-0.5-0.7-0.9-1.2-1.2c-0.5-0.3-1-0.4-1.6-0.4s-1.2,0.1-1.6,0.4 c-0.5,0.3-0.9,0.7-1.2,1.2c-0.3,0.5-0.4,1-0.4,1.6s0.1,1.2,0.4,1.7s0.7,0.9,1.2,1.2C446.5,371.4,447,371.6,447.6,371.6z M457.5,369.1l-1.5,1.5v2.3h-1.7v-9.2h1.7v4.7l4.5-4.7h1.9l-3.8,4.1l4.1,5.1h-2L457.5,369.1z"></path> <path class="st6" d="M433.3,301.6l-1.5,1.5v2.3h-1.7v-9.2h1.7v4.7l4.5-4.7h1.9l-3.8,4.1l4.1,5.1h-2L433.3,301.6z"></path> <path class="st6" d="M442.4,305.5c-0.7,0-1.4-0.1-2.1-0.3c-0.7-0.2-1.2-0.5-1.6-0.8l0.6-1.3c0.4,0.3,0.8,0.5,1.4,0.7 c0.5,0.2,1.1,0.3,1.6,0.3c0.7,0,1.2-0.1,1.5-0.3c0.3-0.2,0.5-0.5,0.5-0.9c0-0.3-0.1-0.5-0.3-0.6c-0.2-0.2-0.4-0.3-0.7-0.4 c-0.3-0.1-0.7-0.2-1.2-0.3c-0.7-0.2-1.3-0.3-1.7-0.5c-0.4-0.2-0.8-0.4-1.1-0.8c-0.3-0.4-0.5-0.8-0.5-1.4c0-0.5,0.1-1,0.4-1.4 s0.7-0.8,1.2-1c0.6-0.2,1.2-0.4,2-0.4c0.6,0,1.1,0.1,1.6,0.2s1,0.3,1.4,0.6l-0.5,1.3c-0.4-0.2-0.8-0.4-1.3-0.5 c-0.4-0.1-0.9-0.2-1.3-0.2c-0.7,0-1.2,0.1-1.5,0.3c-0.3,0.2-0.5,0.5-0.5,0.9c0,0.3,0.1,0.5,0.3,0.6c0.2,0.2,0.4,0.3,0.7,0.4 c0.3,0.1,0.7,0.2,1.2,0.3c0.7,0.2,1.2,0.3,1.7,0.5c0.4,0.2,0.8,0.4,1.1,0.8c0.3,0.3,0.5,0.8,0.5,1.4c0,0.5-0.1,1-0.4,1.4 s-0.7,0.7-1.2,1C443.9,305.4,443.2,305.5,442.4,305.5z"></path> <path class="st6" d="M535,311.6v-6.1l-3,5h-0.8l-3-4.9v6h-1.6v-9.2h1.4l3.6,6.1l3.6-6.1h1.4v9.2H535z M543.3,311.8 c-0.9,0-1.8-0.2-2.5-0.6c-0.8-0.4-1.3-1-1.8-1.7c-0.4-0.7-0.6-1.5-0.6-2.4s0.2-1.7,0.6-2.4c0.4-0.7,1-1.3,1.8-1.7 c0.8-0.4,1.6-0.6,2.5-0.6s1.8,0.2,2.5,0.6c0.8,0.4,1.3,1,1.8,1.7c0.4,0.7,0.6,1.5,0.6,2.4s-0.2,1.7-0.6,2.4c-0.4,0.7-1,1.3-1.8,1.7 C545.1,311.6,544.3,311.8,543.3,311.8z M543.3,310.3c0.6,0,1.2-0.1,1.6-0.4c0.5-0.3,0.9-0.7,1.2-1.2s0.4-1.1,0.4-1.7 s-0.1-1.2-0.4-1.6c-0.3-0.5-0.7-0.9-1.2-1.2c-0.5-0.3-1-0.4-1.6-0.4s-1.2,0.1-1.6,0.4c-0.5,0.3-0.9,0.7-1.2,1.2s-0.4,1-0.4,1.6 s0.1,1.2,0.4,1.7c0.3,0.5,0.7,0.9,1.2,1.2C542.2,310.1,542.7,310.3,543.3,310.3z"></path> <path class="st6" d="M534.2,380h-4.6l-0.9,2.1h-1.8l4.1-9.2h1.7l4.1,9.2H535L534.2,380z M533.6,378.7l-1.7-4l-1.7,4H533.6z M544,382.1l-1.9-2.7c-0.1,0-0.2,0-0.4,0h-2.1v2.7H538V373h3.8c0.8,0,1.5,0.1,2.1,0.4s1,0.6,1.4,1.1c0.3,0.5,0.5,1.1,0.5,1.7 c0,0.7-0.2,1.3-0.5,1.8s-0.8,0.9-1.4,1.1l2.1,3H544z M544,376.2c0-0.6-0.2-1-0.6-1.3c-0.4-0.3-0.9-0.5-1.7-0.5h-2v3.7h2 c0.7,0,1.3-0.2,1.7-0.5C543.8,377.3,544,376.8,544,376.2z"></path> <path class="st6" d="M527.5,445.2h1.7v7.7h4.8v1.4h-6.5V445.2z"></path> <path class="st6" d="M542.2,452.2h-4.6l-0.9,2.1H535l4.1-9.2h1.7l4.1,9.2h-1.8L542.2,452.2z M541.7,450.8l-1.7-4l-1.7,4H541.7z"></path> <path class="st6" d="M588.7,426.5v-6.1l-3,5h-0.8l-3-4.9v6h-1.6v-9.2h1.4l3.6,6.1l3.6-6.1h1.4v9.2H588.7z M595.6,426.6 c-0.7,0-1.4-0.1-2.1-0.3c-0.7-0.2-1.2-0.5-1.6-0.8l0.6-1.3c0.4,0.3,0.8,0.5,1.4,0.7c0.5,0.2,1.1,0.3,1.6,0.3c0.7,0,1.2-0.1,1.5-0.3 c0.3-0.2,0.5-0.5,0.5-0.9c0-0.3-0.1-0.5-0.3-0.6c-0.2-0.2-0.4-0.3-0.7-0.4s-0.7-0.2-1.2-0.3c-0.7-0.2-1.3-0.3-1.7-0.5 s-0.8-0.4-1.1-0.8s-0.5-0.8-0.5-1.4c0-0.5,0.1-1,0.4-1.4c0.3-0.4,0.7-0.8,1.2-1c0.6-0.2,1.2-0.4,2-0.4c0.6,0,1.1,0.1,1.6,0.2 s1,0.3,1.4,0.6l-0.5,1.3c-0.4-0.2-0.8-0.4-1.3-0.5c-0.4-0.1-0.9-0.2-1.3-0.2c-0.7,0-1.2,0.1-1.5,0.3c-0.3,0.2-0.5,0.5-0.5,0.9 c0,0.3,0.1,0.5,0.3,0.6c0.2,0.2,0.4,0.3,0.7,0.4s0.7,0.2,1.2,0.3c0.7,0.2,1.2,0.3,1.7,0.5c0.4,0.2,0.8,0.4,1.1,0.8 c0.3,0.3,0.5,0.8,0.5,1.4c0,0.5-0.1,1-0.4,1.4c-0.3,0.4-0.7,0.7-1.2,1C597.1,426.5,596.4,426.6,595.6,426.6z"></path> <path class="st6" d="M631.5,347.4h-3V346h7.8v1.4h-3v7.7h-1.7L631.5,347.4L631.5,347.4z M645.6,346v9.2h-1.4l-5.1-6.2v6.2h-1.7V346 h1.4l5.1,6.2V346H645.6z"></path> <path class="st6" d="M640.8,417.2h-4.6l-0.9,2.1h-1.8l4.1-9.2h1.7l4.1,9.2h-1.8L640.8,417.2z M640.3,415.8l-1.7-4l-1.7,4H640.3z"></path> <path class="st6" d="M697.9,410.2h1.6v3.7c-0.5,0.4-1,0.7-1.6,0.9c-0.6,0.2-1.3,0.3-1.9,0.3c-0.9,0-1.8-0.2-2.5-0.6 c-0.8-0.4-1.3-1-1.8-1.7c-0.4-0.7-0.6-1.5-0.6-2.4s0.2-1.7,0.6-2.4c0.4-0.7,1-1.3,1.8-1.7c0.8-0.4,1.6-0.6,2.6-0.6 c0.8,0,1.5,0.1,2.1,0.4s1.2,0.6,1.6,1.1l-1.1,1c-0.7-0.7-1.5-1-2.5-1c-0.6,0-1.2,0.1-1.7,0.4s-0.9,0.7-1.2,1.1 c-0.3,0.5-0.4,1-0.4,1.7c0,0.6,0.1,1.2,0.4,1.6c0.3,0.5,0.7,0.9,1.2,1.2c0.5,0.3,1.1,0.4,1.7,0.4c0.7,0,1.3-0.2,1.9-0.5v-2.9H697.9z M707.7,412.8h-4.6l-0.9,2.1h-1.8l4.1-9.2h1.7l4.1,9.2h-1.8L707.7,412.8z M707.1,411.4l-1.7-4l-1.7,4H707.1z"></path> <path class="st6" d="M734.9,386.4c-0.7,0-1.4-0.1-2.1-0.3c-0.7-0.2-1.2-0.5-1.6-0.8l0.6-1.3c0.4,0.3,0.8,0.5,1.4,0.7 c0.5,0.2,1.1,0.3,1.6,0.3c0.7,0,1.2-0.1,1.5-0.3c0.3-0.2,0.5-0.5,0.5-0.9c0-0.3-0.1-0.5-0.3-0.6c-0.2-0.2-0.4-0.3-0.7-0.4 s-0.7-0.2-1.2-0.3c-0.7-0.2-1.3-0.3-1.7-0.5s-0.8-0.4-1.1-0.8s-0.5-0.8-0.5-1.4c0-0.5,0.1-1,0.4-1.4c0.3-0.4,0.7-0.8,1.2-1 c0.6-0.2,1.2-0.4,2-0.4c0.6,0,1.1,0.1,1.6,0.2s1,0.3,1.4,0.6l-0.5,1.3c-0.4-0.2-0.8-0.4-1.3-0.5c-0.4-0.1-0.9-0.2-1.3-0.2 c-0.7,0-1.2,0.1-1.5,0.3c-0.3,0.2-0.5,0.5-0.5,0.9c0,0.3,0.1,0.5,0.3,0.6c0.2,0.2,0.4,0.3,0.7,0.4s0.7,0.2,1.2,0.3 c0.7,0.2,1.2,0.3,1.7,0.5c0.4,0.2,0.8,0.4,1.1,0.8c0.3,0.3,0.5,0.8,0.5,1.4c0,0.5-0.1,1-0.4,1.4c-0.3,0.4-0.7,0.7-1.2,1 C736.3,386.3,735.7,386.4,734.9,386.4z M744.5,386.4c-0.9,0-1.8-0.2-2.5-0.6s-1.3-1-1.8-1.7c-0.4-0.7-0.6-1.5-0.6-2.4 s0.2-1.7,0.6-2.4c0.4-0.7,1-1.3,1.8-1.7c0.8-0.4,1.6-0.6,2.5-0.6c0.8,0,1.4,0.1,2.1,0.4c0.6,0.3,1.1,0.6,1.6,1.1l-1.1,1 c-0.7-0.7-1.5-1.1-2.4-1.1c-0.6,0-1.2,0.1-1.7,0.4s-0.9,0.6-1.2,1.1s-0.4,1-0.4,1.7c0,0.6,0.1,1.2,0.4,1.7c0.3,0.5,0.7,0.9,1.2,1.2 c0.5,0.3,1.1,0.4,1.7,0.4c1,0,1.8-0.4,2.4-1.1l1.1,1c-0.4,0.5-1,0.9-1.6,1.1C745.9,386.2,745.2,386.4,744.5,386.4z"></path> <path class="st6" d="M746.5,514.1v2.8h4.4v1.4h-4.4v3.5h-1.7v-9.2h6.7v1.4L746.5,514.1L746.5,514.1z M753.1,512.7h1.7v7.7h4.8v1.4 h-6.5V512.7z"></path> <path class="st6" d="M650,314.6l-1.5,1.5v2.3h-1.7v-9.2h1.7v4.7l4.5-4.7h1.9l-3.8,4.1l4.1,5.1h-2L650,314.6z"></path> <path class="st6" d="M659.7,315.2v3.2H658v-3.2l-3.6-6h1.8l2.7,4.5l2.7-4.5h1.7L659.7,315.2z"></path> <path class="st6" d="M727.5,273.9l-3,9.2h-1.8l-2.3-6.8l-2.3,6.8h-1.8l-3-9.2h1.8l2.3,7l2.4-7h1.6l2.3,7l2.3-7H727.5z M737.5,273.9 l-4,9.2h-1.7l-4-9.2h1.8l3,7.1l3.1-7.1H737.5z"></path> <path class="st6" d="M770.6,291.2l-4,9.2h-1.7l-4-9.2h1.8l3,7.1l3.1-7.1H770.6z"></path> <path class="st6" d="M777.2,298.2h-4.6l-0.9,2.1H770l4.1-9.2h1.7l4.1,9.2h-1.8L777.2,298.2z M776.6,296.9l-1.7-4l-1.7,4H776.6z"></path> <path class="st7" d="M840.7,263.3h4c1,0,1.8,0.2,2.6,0.6s1.3,0.9,1.8,1.6c0.4,0.7,0.6,1.5,0.6,2.4s-0.2,1.7-0.6,2.4 c-0.4,0.7-1,1.2-1.8,1.6s-1.6,0.6-2.6,0.6h-4V263.3z M844.6,271.1c0.7,0,1.3-0.1,1.8-0.4s0.9-0.6,1.2-1.1s0.4-1,0.4-1.7 c0-0.6-0.1-1.2-0.4-1.6c-0.3-0.5-0.7-0.8-1.2-1.1c-0.5-0.3-1.1-0.4-1.8-0.4h-2.2v6.3L844.6,271.1L844.6,271.1z M855.8,272.6 c-0.9,0-1.8-0.2-2.5-0.6s-1.3-1-1.8-1.7c-0.4-0.7-0.6-1.5-0.6-2.4s0.2-1.7,0.6-2.4c0.4-0.7,1-1.3,1.8-1.7c0.8-0.4,1.6-0.6,2.5-0.6 c0.8,0,1.4,0.1,2.1,0.4c0.6,0.3,1.1,0.6,1.6,1.1l-1.1,1c-0.7-0.7-1.5-1.1-2.4-1.1c-0.6,0-1.2,0.1-1.7,0.4s-0.9,0.7-1.2,1.1 c-0.3,0.5-0.4,1-0.4,1.7c0,0.6,0.1,1.2,0.4,1.7c0.3,0.5,0.7,0.9,1.2,1.2c0.5,0.3,1.1,0.4,1.7,0.4c1,0,1.8-0.4,2.4-1.1l1.1,1 c-0.4,0.5-1,0.9-1.6,1.1C857.2,272.5,856.5,272.6,855.8,272.6z"></path> <path class="st6" d="M762.1,335.5v9.2h-1.4l-5.1-6.2v6.2H754v-9.2h1.4l5.1,6.2v-6.2H762.1z M768.8,344.8c-0.9,0-1.8-0.2-2.5-0.6 s-1.3-1-1.8-1.7c-0.4-0.7-0.6-1.5-0.6-2.4s0.2-1.7,0.6-2.4c0.4-0.7,1-1.3,1.8-1.7c0.8-0.4,1.6-0.6,2.5-0.6c0.8,0,1.4,0.1,2.1,0.4 c0.6,0.3,1.1,0.6,1.6,1.1l-1.1,1c-0.7-0.7-1.5-1.1-2.4-1.1c-0.6,0-1.2,0.1-1.7,0.4s-0.9,0.7-1.2,1.1c-0.3,0.5-0.4,1-0.4,1.7 c0,0.6,0.1,1.2,0.4,1.7c0.3,0.5,0.7,0.9,1.2,1.2c0.5,0.3,1.1,0.4,1.7,0.4c1,0,1.8-0.4,2.4-1.1l1.1,1c-0.4,0.5-1,0.9-1.6,1.1 C770.2,344.7,769.6,344.8,768.8,344.8z"></path> <path class="st6" d="M875.1,102v-6.1l-3,5h-0.8l-3-4.9v6h-1.6v-9.2h1.4l3.6,6.1l3.6-6.1h1.4v9.2H875.1z M886.1,100.6v1.4h-6.9v-9.2 h6.7v1.4h-5v2.4h4.4V98h-4.4v2.5L886.1,100.6L886.1,100.6z"></path> <path class="st6" d="M119.6,499H115l-0.9,2.1h-1.8l4.1-9.2h1.7l4.1,9.2h-1.8L119.6,499z M119,497.6l-1.7-4l-1.7,4H119z M126.6,497.3 l-1.5,1.5v2.3h-1.7v-9.2h1.7v4.7l4.5-4.7h1.9l-3.8,4.1l4.1,5.1h-2L126.6,497.3z"></path> <path class="st7" d="M362.7,559.7v9.2H361V565h-4.7v3.9h-1.7v-9.2h1.7v3.8h4.7v-3.8H362.7z M365.2,559.7h1.7v9.2h-1.7V559.7z"></path> <path class="st8" d="M332.3,570.8l18.3-5"></path> <path class="st8" d="M787.9,253.7l47.3,14.7"></path> <path class="st8" d="M821.5,230.9l21.2,1.7"></path> <g> <text transform="matrix(1 0 0 1 758.458 638.1175)" class="st6 st9 st10">Currently Licensed</text> <rect x="743.1" y="630" class="st2" width="9.9" height="9.9"></rect> </g> <g> <text transform="matrix(1 0 0 1 758.458 653.5061)" class="st6 st9 st10">Business Purpose Loans</text> <rect x="743.1" y="644.7" class="st11" width="9.9" height="9.9"></rect> </g> <g> <text transform="matrix(1 0 0 1 758.458 668.8962)" class="st6 st9 st10">No Lending</text> <rect x="743.1" y="660.3" class="st12" width="9.9" height="9.9"></rect> </g> <polygon class="st6" points="225.3,256 222,256 222,254.6 230.5,254.6 230.5,256 227.2,256 227.2,263.5 225.4,263.5 "></polygon> <path class="st6" d="M114.6,144.1l-1.9-2.7c-0.1,0-0.2,0-0.4,0h-2.1v2.7h-1.6V135h3.8c0.8,0,1.5,0.1,2.1,0.4s1,0.6,1.4,1.1 c0.3,0.5,0.5,1.1,0.5,1.7c0,0.7-0.2,1.3-0.5,1.8s-0.8,0.9-1.4,1.1l2.1,3H114.6z"></path> <path class="st2" d="M114.6,138.2c0-0.6-0.2-1-0.6-1.3s-0.9-0.5-1.7-0.5h-2v3.7h2c0.7,0,1.3-0.2,1.7-0.5 C114.4,139.3,114.6,138.8,114.6,138.2z"></path> <path class="st6" d="M309.5,195.3v3.2h-1.7v-3.2l-3.6-6h1.8l2.7,4.5l2.7-4.5h1.7L309.5,195.3z"></path> <path class="st6" d="M643.8,410.1h1.7v7.7h4.8v1.4h-6.5V410.1z"></path> <path class="st6" d="M585.6,259.7h1.7v7.7h4.8v1.4h-6.5V259.7z"></path> <polygon class="st6" points="692.8,246.5 692.8,255.7 691.1,255.7 691.1,251.8 686.4,251.8 686.4,255.7 684.7,255.7 684.7,246.5 686.4,246.5 686.4,250.2 691.1,250.2 691.1,246.5 "></polygon> </svg> 