<svg xmlns="http://www.w3.org/2000/svg" xmlns:xlink="http://www.w3.org/1999/xlink" width="500" zoomAndPan="magnify" viewBox="0 0 375 374.999991" height="500" preserveAspectRatio="xMidYMid meet" version="1.0"><defs><g/><clipPath id="537bb12fb1"><path d="M 68 109.050781 L 73 109.050781 L 73 114 L 68 114 Z M 68 109.050781 " clip-rule="nonzero"/></clipPath><clipPath id="0c140c4761"><path d="M 18.140625 118 L 59 118 L 59 163 L 18.140625 163 Z M 18.140625 118 " clip-rule="nonzero"/></clipPath><clipPath id="7e19420174"><path d="M 80 118 L 121.394531 118 L 121.394531 164 L 80 164 Z M 80 118 " clip-rule="nonzero"/></clipPath></defs><g clip-path="url(#537bb12fb1)"><path fill="#ffffff" d="M 72.167969 113.539062 C 72.164062 113.539062 72.164062 113.539062 72.160156 113.539062 C 71.367188 113.507812 70.574219 113.492188 69.773438 113.492188 C 69.441406 113.492188 69.109375 113.496094 68.78125 113.503906 C 68.550781 113.507812 68.359375 113.328125 68.359375 113.097656 L 68.359375 111.171875 C 68.359375 110.582031 68.59375 110.050781 68.976562 109.675781 C 69.363281 109.292969 69.894531 109.050781 70.476562 109.050781 C 71.058594 109.050781 71.589844 109.292969 71.972656 109.671875 C 72.355469 110.054688 72.59375 110.585938 72.59375 111.167969 L 72.59375 113.128906 C 72.59375 113.363281 72.402344 113.550781 72.167969 113.539062 Z M 72.167969 113.539062 " fill-opacity="1" fill-rule="evenodd"/></g><path fill="#ffffff" d="M 69.773438 117.078125 C 75.300781 117.078125 80.433594 122.378906 84.265625 130.949219 C 87.976562 139.246094 90.386719 150.503906 90.738281 163.046875 C 90.746094 163.359375 90.417969 163.566406 90.140625 163.421875 C 89.058594 162.871094 87.796875 162.386719 86.375 161.964844 C 83.566406 161.132812 80.070312 160.507812 76.175781 160.175781 L 76.175781 160.160156 L 75.144531 160.097656 C 74.925781 160.082031 74.707031 160.066406 74.488281 160.050781 C 72.953125 159.960938 71.367188 159.90625 69.742188 159.90625 C 69.195312 159.90625 68.65625 159.914062 68.117188 159.921875 C 67.570312 159.933594 67.03125 159.953125 66.496094 159.972656 C 66.191406 159.984375 65.886719 159.996094 65.585938 160.015625 L 64.769531 160.050781 L 64.769531 160.066406 C 60.539062 160.335938 56.71875 160.953125 53.644531 161.808594 C 53.464844 161.855469 53.285156 161.910156 53.105469 161.960938 C 51.710938 162.375 50.460938 162.855469 49.394531 163.398438 C 49.117188 163.535156 48.789062 163.332031 48.796875 163.019531 C 49.15625 150.484375 51.5625 139.238281 55.269531 130.945312 C 59.109375 122.378906 64.246094 117.078125 69.773438 117.078125 Z M 69.773438 117.078125 " fill-opacity="1" fill-rule="evenodd"/><g clip-path="url(#0c140c4761)"><path fill="#ffffff" d="M 32.988281 131.515625 C 39.824219 125.03125 48.558594 120.34375 58.335938 118.269531 C 58.726562 118.1875 59 118.65625 58.722656 118.949219 C 56.199219 121.628906 53.929688 125.207031 52.015625 129.492188 C 48.167969 138.09375 45.660156 149.644531 45.238281 162.449219 C 45.230469 162.757812 44.898438 162.949219 44.628906 162.792969 C 44.160156 162.527344 43.65625 162.273438 43.125 162.039062 C 40.109375 160.726562 35.984375 159.910156 31.476562 159.910156 C 27.171875 159.910156 23.214844 160.65625 20.238281 161.871094 C 19.652344 162.113281 19.097656 162.371094 18.585938 162.652344 C 18.296875 162.808594 17.949219 162.585938 17.976562 162.261719 C 18.996094 150.292969 24.542969 139.527344 32.988281 131.515625 Z M 32.988281 131.515625 " fill-opacity="1" fill-rule="evenodd"/></g><g clip-path="url(#7e19420174)"><path fill="#ffffff" d="M 80.820312 118.949219 C 80.546875 118.65625 80.816406 118.1875 81.207031 118.269531 C 90.984375 120.34375 99.71875 125.03125 106.554688 131.515625 C 114.957031 139.484375 120.488281 150.175781 121.550781 162.070312 C 121.582031 162.398438 121.234375 162.621094 120.941406 162.464844 C 120.417969 162.179688 119.851562 161.914062 119.25 161.671875 C 116.289062 160.476562 112.363281 159.746094 108.089844 159.746094 C 103.578125 159.746094 99.457031 160.5625 96.441406 161.878906 C 95.664062 162.21875 94.957031 162.59375 94.320312 163.003906 C 93.953125 149.976562 91.425781 138.21875 87.523438 129.492188 C 85.613281 125.207031 83.347656 121.628906 80.820312 118.949219 Z M 80.820312 118.949219 " fill-opacity="1" fill-rule="evenodd"/></g><path fill="#ffffff" d="M 68.765625 163.5 C 69.09375 163.496094 69.417969 163.496094 69.75 163.496094 C 70.714844 163.496094 71.664062 163.511719 72.597656 163.542969 L 72.597656 202.011719 C 72.597656 202.917969 72.785156 203.789062 73.125 204.585938 C 73.46875 205.410156 73.976562 206.148438 74.597656 206.765625 C 75.234375 207.390625 75.992188 207.898438 76.835938 208.238281 C 77.648438 208.570312 78.535156 208.753906 79.460938 208.753906 C 80.386719 208.753906 81.277344 208.570312 82.089844 208.238281 C 82.929688 207.898438 83.691406 207.390625 84.324219 206.765625 C 84.949219 206.148438 85.457031 205.410156 85.808594 204.585938 C 86.140625 203.792969 86.328125 202.921875 86.328125 202.011719 L 86.328125 199.695312 C 86.328125 199.105469 86.5625 198.574219 86.945312 198.199219 C 87.328125 197.816406 87.859375 197.578125 88.441406 197.578125 C 89.027344 197.578125 89.558594 197.816406 89.9375 198.199219 C 90.320312 198.578125 90.558594 199.109375 90.558594 199.695312 L 90.558594 202.011719 C 90.558594 203.5 90.261719 204.914062 89.71875 206.195312 C 89.152344 207.539062 88.320312 208.753906 87.285156 209.773438 C 86.253906 210.789062 85.03125 211.605469 83.679688 212.164062 C 82.386719 212.695312 80.960938 212.988281 79.460938 212.988281 C 77.957031 212.988281 76.53125 212.695312 75.242188 212.164062 C 73.890625 211.609375 72.664062 210.789062 71.636719 209.777344 C 70.601562 208.753906 69.765625 207.539062 69.203125 206.199219 C 68.660156 204.917969 68.363281 203.503906 68.363281 202.015625 L 68.363281 163.914062 C 68.363281 163.6875 68.539062 163.503906 68.765625 163.5 Z M 68.765625 163.5 " fill-opacity="1" fill-rule="evenodd"/><g fill="#ffffff" fill-opacity="1"><g transform="translate(94.495421, 210.788468)"><g><path d="M 5.296875 0 L 2.40625 0 L 2.40625 -18.796875 L 5.296875 -18.796875 L 5.296875 -15.875 C 6.253906 -17.101562 7.164062 -17.953125 8.03125 -18.421875 C 8.90625 -18.898438 9.851562 -19.140625 10.875 -19.140625 C 12.082031 -19.140625 13.175781 -18.851562 14.15625 -18.28125 C 15.144531 -17.71875 15.785156 -16.847656 16.078125 -15.671875 C 16.785156 -17.035156 17.664062 -17.953125 18.71875 -18.421875 C 19.769531 -18.898438 20.875 -19.140625 22.03125 -19.140625 C 24.164062 -19.140625 25.738281 -18.53125 26.75 -17.3125 C 27.769531 -16.101562 28.28125 -14.410156 28.28125 -12.234375 L 28.28125 0 L 25.390625 0 L 25.390625 -11.5625 C 25.390625 -13.195312 25.054688 -14.441406 24.390625 -15.296875 C 23.722656 -16.160156 22.789062 -16.59375 21.59375 -16.59375 C 20.90625 -16.59375 20.3125 -16.476562 19.8125 -16.25 C 19.320312 -16.019531 18.894531 -15.710938 18.53125 -15.328125 C 17.875 -14.628906 17.421875 -13.71875 17.171875 -12.59375 C 16.921875 -11.46875 16.796875 -10.101562 16.796875 -8.5 L 16.796875 0 L 13.90625 0 L 13.90625 -11.5625 C 13.90625 -13.164062 13.550781 -14.40625 12.84375 -15.28125 C 12.144531 -16.15625 11.21875 -16.59375 10.0625 -16.59375 C 9.425781 -16.59375 8.851562 -16.472656 8.34375 -16.234375 C 7.832031 -15.992188 7.382812 -15.660156 7 -15.234375 C 6.4375 -14.597656 6.007812 -13.765625 5.71875 -12.734375 C 5.4375 -11.703125 5.296875 -10.289062 5.296875 -8.5 Z M 5.296875 0 "/></g></g></g><g fill="#ffffff" fill-opacity="1"><g transform="translate(125.057919, 210.788468)"><g><path d="M 11.484375 0.34375 C 10.191406 0.34375 9.082031 0.101562 8.15625 -0.375 C 7.226562 -0.851562 6.289062 -1.703125 5.34375 -2.921875 L 5.34375 0 L 2.453125 0 L 2.453125 -25.9375 L 5.34375 -25.9375 L 5.34375 -15.875 C 6.3125 -17.144531 7.265625 -18.003906 8.203125 -18.453125 C 9.148438 -18.910156 10.242188 -19.140625 11.484375 -19.140625 C 13.191406 -19.140625 14.664062 -18.722656 15.90625 -17.890625 C 17.15625 -17.066406 18.125 -15.925781 18.8125 -14.46875 C 19.507812 -13.007812 19.859375 -11.316406 19.859375 -9.390625 C 19.859375 -7.484375 19.507812 -5.796875 18.8125 -4.328125 C 18.125 -2.867188 17.15625 -1.722656 15.90625 -0.890625 C 14.664062 -0.0664062 13.191406 0.34375 11.484375 0.34375 Z M 11.21875 -2.203125 C 12.394531 -2.203125 13.414062 -2.519531 14.28125 -3.15625 C 15.144531 -3.789062 15.804688 -4.644531 16.265625 -5.71875 C 16.734375 -6.800781 16.96875 -8.023438 16.96875 -9.390625 C 16.96875 -10.765625 16.734375 -11.988281 16.265625 -13.0625 C 15.804688 -14.144531 15.144531 -15.003906 14.28125 -15.640625 C 13.414062 -16.273438 12.394531 -16.59375 11.21875 -16.59375 C 10.0625 -16.59375 9.03125 -16.28125 8.125 -15.65625 C 7.21875 -15.03125 6.507812 -14.175781 6 -13.09375 C 5.488281 -12.019531 5.234375 -10.785156 5.234375 -9.390625 C 5.234375 -8.003906 5.488281 -6.769531 6 -5.6875 C 6.507812 -4.613281 7.21875 -3.765625 8.125 -3.140625 C 9.03125 -2.515625 10.0625 -2.203125 11.21875 -2.203125 Z M 11.21875 -2.203125 "/></g></g></g><g fill="#ffffff" fill-opacity="1"><g transform="translate(146.611446, 210.788468)"><g><path d="M 5.296875 0 L 2.40625 0 L 2.40625 -18.796875 L 5.296875 -18.796875 L 5.296875 -16.21875 C 6.160156 -17.28125 7.082031 -18.03125 8.0625 -18.46875 C 9.050781 -18.914062 10.179688 -19.140625 11.453125 -19.140625 L 11.59375 -19.140625 L 11.59375 -16.25 L 10.609375 -16.25 C 9.085938 -16.25 7.875 -15.796875 6.96875 -14.890625 C 6.425781 -14.367188 6.007812 -13.695312 5.71875 -12.875 C 5.4375 -12.0625 5.296875 -11.066406 5.296875 -9.890625 Z M 5.296875 0 "/></g></g></g><g fill="#ffffff" fill-opacity="1"><g transform="translate(158.952033, 210.788468)"><g><path d="M 10.78125 0.34375 C 8.988281 0.34375 7.398438 -0.078125 6.015625 -0.921875 C 4.628906 -1.773438 3.550781 -2.929688 2.78125 -4.390625 C 2.007812 -5.859375 1.625 -7.507812 1.625 -9.34375 C 1.625 -11.050781 1.972656 -12.648438 2.671875 -14.140625 C 3.378906 -15.640625 4.410156 -16.847656 5.765625 -17.765625 C 7.128906 -18.679688 8.773438 -19.140625 10.703125 -19.140625 C 12.296875 -19.140625 13.773438 -18.785156 15.140625 -18.078125 C 16.515625 -17.378906 17.628906 -16.335938 18.484375 -14.953125 C 19.347656 -13.578125 19.78125 -11.878906 19.78125 -9.859375 L 19.78125 -8.84375 L 4.484375 -8.84375 C 4.535156 -8.1875 4.660156 -7.5625 4.859375 -6.96875 C 5.335938 -5.519531 6.097656 -4.363281 7.140625 -3.5 C 8.179688 -2.632812 9.382812 -2.203125 10.75 -2.203125 C 12.175781 -2.203125 13.363281 -2.582031 14.3125 -3.34375 C 15.257812 -4.101562 15.941406 -5.003906 16.359375 -6.046875 L 19.453125 -6.046875 C 19.066406 -4.867188 18.488281 -3.796875 17.71875 -2.828125 C 16.945312 -1.867188 15.988281 -1.097656 14.84375 -0.515625 C 13.695312 0.0546875 12.34375 0.34375 10.78125 0.34375 Z M 4.765625 -11.390625 L 16.6875 -11.390625 C 16.664062 -11.703125 16.617188 -12.015625 16.546875 -12.328125 C 16.484375 -12.648438 16.394531 -12.945312 16.28125 -13.21875 C 15.78125 -14.3125 15.035156 -15.144531 14.046875 -15.71875 C 13.066406 -16.300781 11.976562 -16.59375 10.78125 -16.59375 C 9.53125 -16.59375 8.4375 -16.296875 7.5 -15.703125 C 6.5625 -15.117188 5.828125 -14.289062 5.296875 -13.21875 C 5.160156 -12.925781 5.046875 -12.617188 4.953125 -12.296875 C 4.867188 -11.984375 4.804688 -11.679688 4.765625 -11.390625 Z M 4.765625 -11.390625 "/></g></g></g><g fill="#ffffff" fill-opacity="1"><g transform="translate(180.33558, 210.788468)"><g><path d="M 8.390625 0 L 6.796875 0 C 5.867188 0 5.070312 -0.128906 4.40625 -0.390625 C 3.738281 -0.648438 3.226562 -1.125 2.875 -1.8125 C 2.519531 -2.507812 2.34375 -3.476562 2.34375 -4.71875 L 2.34375 -25.9375 L 5.234375 -25.9375 L 5.234375 -5.171875 C 5.234375 -4.597656 5.269531 -4.117188 5.34375 -3.734375 C 5.425781 -3.347656 5.625 -3.050781 5.9375 -2.84375 C 6.257812 -2.644531 6.773438 -2.546875 7.484375 -2.546875 L 8.390625 -2.546875 Z M 8.390625 0 "/></g></g></g><g fill="#ffffff" fill-opacity="1"><g transform="translate(189.752499, 210.788468)"><g><path d="M 8.390625 0 L 6.796875 0 C 5.867188 0 5.070312 -0.128906 4.40625 -0.390625 C 3.738281 -0.648438 3.226562 -1.125 2.875 -1.8125 C 2.519531 -2.507812 2.34375 -3.476562 2.34375 -4.71875 L 2.34375 -25.9375 L 5.234375 -25.9375 L 5.234375 -5.171875 C 5.234375 -4.597656 5.269531 -4.117188 5.34375 -3.734375 C 5.425781 -3.347656 5.625 -3.050781 5.9375 -2.84375 C 6.257812 -2.644531 6.773438 -2.546875 7.484375 -2.546875 L 8.390625 -2.546875 Z M 8.390625 0 "/></g></g></g><g fill="#ffffff" fill-opacity="1"><g transform="translate(199.169418, 210.788468)"><g><path d="M 7.75 0.34375 C 5.875 0.34375 4.382812 -0.128906 3.28125 -1.078125 C 2.175781 -2.035156 1.625 -3.34375 1.625 -5 C 1.625 -6.632812 2.238281 -7.925781 3.46875 -8.875 C 4.46875 -9.664062 5.90625 -10.253906 7.78125 -10.640625 L 14.484375 -11.9375 C 14.484375 -13.40625 14.097656 -14.523438 13.328125 -15.296875 C 12.460938 -16.160156 11.304688 -16.59375 9.859375 -16.59375 C 8.703125 -16.59375 7.695312 -16.285156 6.84375 -15.671875 C 6 -15.054688 5.460938 -14.21875 5.234375 -13.15625 L 2.34375 -13.15625 C 2.570312 -14.46875 3.050781 -15.566406 3.78125 -16.453125 C 4.519531 -17.335938 5.421875 -18.003906 6.484375 -18.453125 C 7.554688 -18.910156 8.691406 -19.140625 9.890625 -19.140625 C 10.984375 -19.140625 12.007812 -18.976562 12.96875 -18.65625 C 13.9375 -18.34375 14.75 -17.859375 15.40625 -17.203125 C 16.0625 -16.566406 16.523438 -15.851562 16.796875 -15.0625 C 17.066406 -14.269531 17.226562 -13.515625 17.28125 -12.796875 C 17.34375 -12.085938 17.375 -11.515625 17.375 -11.078125 L 17.375 0 L 14.484375 0 L 14.484375 -2.953125 C 13.828125 -2.003906 13.066406 -1.269531 12.203125 -0.75 C 11.566406 -0.363281 10.878906 -0.0859375 10.140625 0.078125 C 9.410156 0.253906 8.613281 0.34375 7.75 0.34375 Z M 8.09375 -2.203125 C 9.25 -2.203125 10.242188 -2.421875 11.078125 -2.859375 C 12.421875 -3.554688 13.328125 -4.457031 13.796875 -5.5625 C 14.273438 -6.675781 14.515625 -8.019531 14.515625 -9.59375 L 8.390625 -8.359375 C 6.992188 -8.085938 5.960938 -7.644531 5.296875 -7.03125 C 4.773438 -6.507812 4.515625 -5.851562 4.515625 -5.0625 C 4.515625 -4.207031 4.835938 -3.515625 5.484375 -2.984375 C 6.128906 -2.460938 7 -2.203125 8.09375 -2.203125 Z M 8.09375 -2.203125 "/></g></g></g><g fill="#ffffff" fill-opacity="1"><g transform="translate(218.751173, 210.788468)"><g/></g></g><g fill="#ffffff" fill-opacity="1"><g transform="translate(228.270082, 210.788468)"><g><path d="M 11.484375 -19.140625 C 13.191406 -19.140625 14.664062 -18.722656 15.90625 -17.890625 C 17.15625 -17.066406 18.125 -15.929688 18.8125 -14.484375 C 19.507812 -13.035156 19.859375 -11.347656 19.859375 -9.421875 C 19.859375 -7.492188 19.507812 -5.796875 18.8125 -4.328125 C 18.125 -2.867188 17.15625 -1.722656 15.90625 -0.890625 C 14.664062 -0.0664062 13.191406 0.34375 11.484375 0.34375 C 10.242188 0.34375 9.148438 0.113281 8.203125 -0.34375 C 7.265625 -0.8125 6.3125 -1.671875 5.34375 -2.921875 L 5.34375 7.140625 L 2.453125 7.140625 L 2.453125 -18.796875 L 5.34375 -18.796875 L 5.34375 -15.875 C 6.289062 -17.101562 7.226562 -17.953125 8.15625 -18.421875 C 9.082031 -18.898438 10.191406 -19.140625 11.484375 -19.140625 Z M 11.21875 -16.59375 C 10.0625 -16.59375 9.03125 -16.28125 8.125 -15.65625 C 7.21875 -15.03125 6.507812 -14.175781 6 -13.09375 C 5.488281 -12.019531 5.234375 -10.796875 5.234375 -9.421875 C 5.234375 -8.035156 5.488281 -6.796875 6 -5.703125 C 6.507812 -4.617188 7.21875 -3.765625 8.125 -3.140625 C 9.03125 -2.515625 10.0625 -2.203125 11.21875 -2.203125 C 12.394531 -2.203125 13.414062 -2.519531 14.28125 -3.15625 C 15.144531 -3.789062 15.804688 -4.648438 16.265625 -5.734375 C 16.734375 -6.828125 16.96875 -8.054688 16.96875 -9.421875 C 16.96875 -10.773438 16.734375 -11.988281 16.265625 -13.0625 C 15.804688 -14.144531 15.144531 -15.003906 14.28125 -15.640625 C 13.414062 -16.273438 12.394531 -16.59375 11.21875 -16.59375 Z M 11.21875 -16.59375 "/></g></g></g><g fill="#ffffff" fill-opacity="1"><g transform="translate(249.823608, 210.788468)"><g><path d="M 8.390625 0 L 6.796875 0 C 5.867188 0 5.070312 -0.128906 4.40625 -0.390625 C 3.738281 -0.648438 3.226562 -1.125 2.875 -1.8125 C 2.519531 -2.507812 2.34375 -3.476562 2.34375 -4.71875 L 2.34375 -25.9375 L 5.234375 -25.9375 L 5.234375 -5.171875 C 5.234375 -4.597656 5.269531 -4.117188 5.34375 -3.734375 C 5.425781 -3.347656 5.625 -3.050781 5.9375 -2.84375 C 6.257812 -2.644531 6.773438 -2.546875 7.484375 -2.546875 L 8.390625 -2.546875 Z M 8.390625 0 "/></g></g></g><g fill="#ffffff" fill-opacity="1"><g transform="translate(259.240528, 210.788468)"><g><path d="M 7.75 0.34375 C 5.875 0.34375 4.382812 -0.128906 3.28125 -1.078125 C 2.175781 -2.035156 1.625 -3.34375 1.625 -5 C 1.625 -6.632812 2.238281 -7.925781 3.46875 -8.875 C 4.46875 -9.664062 5.90625 -10.253906 7.78125 -10.640625 L 14.484375 -11.9375 C 14.484375 -13.40625 14.097656 -14.523438 13.328125 -15.296875 C 12.460938 -16.160156 11.304688 -16.59375 9.859375 -16.59375 C 8.703125 -16.59375 7.695312 -16.285156 6.84375 -15.671875 C 6 -15.054688 5.460938 -14.21875 5.234375 -13.15625 L 2.34375 -13.15625 C 2.570312 -14.46875 3.050781 -15.566406 3.78125 -16.453125 C 4.519531 -17.335938 5.421875 -18.003906 6.484375 -18.453125 C 7.554688 -18.910156 8.691406 -19.140625 9.890625 -19.140625 C 10.984375 -19.140625 12.007812 -18.976562 12.96875 -18.65625 C 13.9375 -18.34375 14.75 -17.859375 15.40625 -17.203125 C 16.0625 -16.566406 16.523438 -15.851562 16.796875 -15.0625 C 17.066406 -14.269531 17.226562 -13.515625 17.28125 -12.796875 C 17.34375 -12.085938 17.375 -11.515625 17.375 -11.078125 L 17.375 0 L 14.484375 0 L 14.484375 -2.953125 C 13.828125 -2.003906 13.066406 -1.269531 12.203125 -0.75 C 11.566406 -0.363281 10.878906 -0.0859375 10.140625 0.078125 C 9.410156 0.253906 8.613281 0.34375 7.75 0.34375 Z M 8.09375 -2.203125 C 9.25 -2.203125 10.242188 -2.421875 11.078125 -2.859375 C 12.421875 -3.554688 13.328125 -4.457031 13.796875 -5.5625 C 14.273438 -6.675781 14.515625 -8.019531 14.515625 -9.59375 L 8.390625 -8.359375 C 6.992188 -8.085938 5.960938 -7.644531 5.296875 -7.03125 C 4.773438 -6.507812 4.515625 -5.851562 4.515625 -5.0625 C 4.515625 -4.207031 4.835938 -3.515625 5.484375 -2.984375 C 6.128906 -2.460938 7 -2.203125 8.09375 -2.203125 Z M 8.09375 -2.203125 "/></g></g></g><g fill="#ffffff" fill-opacity="1"><g transform="translate(278.822283, 210.788468)"><g><path d="M 10.75 0.34375 C 8.976562 0.34375 7.40625 -0.0703125 6.03125 -0.90625 C 4.664062 -1.75 3.585938 -2.910156 2.796875 -4.390625 C 2.015625 -5.878906 1.625 -7.578125 1.625 -9.484375 C 1.625 -11.347656 2.007812 -13.003906 2.78125 -14.453125 C 3.550781 -15.898438 4.625 -17.039062 6 -17.875 C 7.375 -18.71875 8.957031 -19.140625 10.75 -19.140625 C 12.851562 -19.140625 14.632812 -18.59375 16.09375 -17.5 C 17.5625 -16.414062 18.507812 -14.96875 18.9375 -13.15625 L 15.84375 -13.15625 C 15.476562 -14.21875 14.835938 -15.054688 13.921875 -15.671875 C 13.003906 -16.285156 11.945312 -16.59375 10.75 -16.59375 C 9.5625 -16.59375 8.5 -16.285156 7.5625 -15.671875 C 6.625 -15.054688 5.878906 -14.21875 5.328125 -13.15625 C 4.785156 -12.09375 4.515625 -10.867188 4.515625 -9.484375 C 4.515625 -8.054688 4.785156 -6.796875 5.328125 -5.703125 C 5.878906 -4.617188 6.625 -3.765625 7.5625 -3.140625 C 8.5 -2.515625 9.5625 -2.203125 10.75 -2.203125 C 12.0625 -2.203125 13.1875 -2.550781 14.125 -3.25 C 15.0625 -3.957031 15.679688 -4.890625 15.984375 -6.046875 L 19.078125 -6.046875 C 18.671875 -4.054688 17.707031 -2.492188 16.1875 -1.359375 C 14.664062 -0.222656 12.851562 0.34375 10.75 0.34375 Z M 10.75 0.34375 "/></g></g></g><g fill="#ffffff" fill-opacity="1"><g transform="translate(299.287934, 210.788468)"><g><path d="M 10.78125 0.34375 C 8.988281 0.34375 7.398438 -0.078125 6.015625 -0.921875 C 4.628906 -1.773438 3.550781 -2.929688 2.78125 -4.390625 C 2.007812 -5.859375 1.625 -7.507812 1.625 -9.34375 C 1.625 -11.050781 1.972656 -12.648438 2.671875 -14.140625 C 3.378906 -15.640625 4.410156 -16.847656 5.765625 -17.765625 C 7.128906 -18.679688 8.773438 -19.140625 10.703125 -19.140625 C 12.296875 -19.140625 13.773438 -18.785156 15.140625 -18.078125 C 16.515625 -17.378906 17.628906 -16.335938 18.484375 -14.953125 C 19.347656 -13.578125 19.78125 -11.878906 19.78125 -9.859375 L 19.78125 -8.84375 L 4.484375 -8.84375 C 4.535156 -8.1875 4.660156 -7.5625 4.859375 -6.96875 C 5.335938 -5.519531 6.097656 -4.363281 7.140625 -3.5 C 8.179688 -2.632812 9.382812 -2.203125 10.75 -2.203125 C 12.175781 -2.203125 13.363281 -2.582031 14.3125 -3.34375 C 15.257812 -4.101562 15.941406 -5.003906 16.359375 -6.046875 L 19.453125 -6.046875 C 19.066406 -4.867188 18.488281 -3.796875 17.71875 -2.828125 C 16.945312 -1.867188 15.988281 -1.097656 14.84375 -0.515625 C 13.695312 0.0546875 12.34375 0.34375 10.78125 0.34375 Z M 4.765625 -11.390625 L 16.6875 -11.390625 C 16.664062 -11.703125 16.617188 -12.015625 16.546875 -12.328125 C 16.484375 -12.648438 16.394531 -12.945312 16.28125 -13.21875 C 15.78125 -14.3125 15.035156 -15.144531 14.046875 -15.71875 C 13.066406 -16.300781 11.976562 -16.59375 10.78125 -16.59375 C 9.53125 -16.59375 8.4375 -16.296875 7.5 -15.703125 C 6.5625 -15.117188 5.828125 -14.289062 5.296875 -13.21875 C 5.160156 -12.925781 5.046875 -12.617188 4.953125 -12.296875 C 4.867188 -11.984375 4.804688 -11.679688 4.765625 -11.390625 Z M 4.765625 -11.390625 "/></g></g></g></svg>