<svg xmlns="http://www.w3.org/2000/svg" xmlns:xlink="http://www.w3.org/1999/xlink" width="500" zoomAndPan="magnify" viewBox="0 0 375 374.999991" height="500" preserveAspectRatio="xMidYMid meet" version="1.0"><defs><g/><clipPath id="85aba8e0f9"><path d="M 68 109.050781 L 73 109.050781 L 73 114 L 68 114 Z M 68 109.050781 " clip-rule="nonzero"/></clipPath><clipPath id="5bba798c6f"><path d="M 18.140625 118 L 59 118 L 59 163 L 18.140625 163 Z M 18.140625 118 " clip-rule="nonzero"/></clipPath><clipPath id="53da7f7063"><path d="M 80 118 L 121.394531 118 L 121.394531 164 L 80 164 Z M 80 118 " clip-rule="nonzero"/></clipPath></defs><g clip-path="url(#85aba8e0f9)"><path fill="#1a3c6e" d="M 72.167969 113.539062 C 72.164062 113.539062 72.164062 113.539062 72.160156 113.539062 C 71.367188 113.507812 70.574219 113.492188 69.773438 113.492188 C 69.441406 113.492188 69.109375 113.496094 68.78125 113.503906 C 68.550781 113.507812 68.359375 113.328125 68.359375 113.097656 L 68.359375 111.171875 C 68.359375 110.582031 68.59375 110.050781 68.976562 109.675781 C 69.363281 109.292969 69.894531 109.050781 70.476562 109.050781 C 71.058594 109.050781 71.589844 109.292969 71.972656 109.671875 C 72.355469 110.054688 72.59375 110.585938 72.59375 111.167969 L 72.59375 113.128906 C 72.59375 113.363281 72.402344 113.550781 72.167969 113.539062 Z M 72.167969 113.539062 " fill-opacity="1" fill-rule="evenodd"/></g><path fill="#1a3c6e" d="M 69.773438 117.078125 C 75.300781 117.078125 80.433594 122.378906 84.265625 130.949219 C 87.976562 139.246094 90.386719 150.503906 90.738281 163.046875 C 90.746094 163.359375 90.417969 163.566406 90.140625 163.421875 C 89.058594 162.871094 87.796875 162.386719 86.375 161.964844 C 83.566406 161.132812 80.070312 160.507812 76.175781 160.175781 L 76.175781 160.160156 L 75.144531 160.097656 C 74.925781 160.082031 74.707031 160.066406 74.488281 160.050781 C 72.953125 159.960938 71.367188 159.90625 69.742188 159.90625 C 69.195312 159.90625 68.65625 159.914062 68.117188 159.921875 C 67.570312 159.933594 67.03125 159.953125 66.496094 159.972656 C 66.191406 159.984375 65.886719 159.996094 65.585938 160.015625 L 64.769531 160.050781 L 64.769531 160.066406 C 60.539062 160.335938 56.71875 160.953125 53.644531 161.808594 C 53.464844 161.855469 53.285156 161.910156 53.105469 161.960938 C 51.710938 162.375 50.460938 162.855469 49.394531 163.398438 C 49.117188 163.535156 48.789062 163.332031 48.796875 163.019531 C 49.15625 150.484375 51.5625 139.238281 55.269531 130.945312 C 59.109375 122.378906 64.246094 117.078125 69.773438 117.078125 Z M 69.773438 117.078125 " fill-opacity="1" fill-rule="evenodd"/><g clip-path="url(#5bba798c6f)"><path fill="#1a3c6e" d="M 32.988281 131.515625 C 39.824219 125.03125 48.558594 120.34375 58.335938 118.269531 C 58.726562 118.1875 59 118.65625 58.722656 118.949219 C 56.199219 121.628906 53.929688 125.207031 52.015625 129.492188 C 48.167969 138.09375 45.660156 149.644531 45.238281 162.449219 C 45.230469 162.757812 44.898438 162.949219 44.628906 162.792969 C 44.160156 162.527344 43.65625 162.273438 43.125 162.039062 C 40.109375 160.726562 35.984375 159.910156 31.476562 159.910156 C 27.171875 159.910156 23.214844 160.65625 20.238281 161.871094 C 19.652344 162.113281 19.097656 162.371094 18.585938 162.652344 C 18.296875 162.808594 17.949219 162.585938 17.976562 162.261719 C 18.996094 150.292969 24.542969 139.527344 32.988281 131.515625 Z M 32.988281 131.515625 " fill-opacity="1" fill-rule="evenodd"/></g><g clip-path="url(#53da7f7063)"><path fill="#1a3c6e" d="M 80.820312 118.949219 C 80.546875 118.65625 80.816406 118.1875 81.207031 118.269531 C 90.984375 120.34375 99.71875 125.03125 106.554688 131.515625 C 114.957031 139.484375 120.488281 150.175781 121.550781 162.070312 C 121.582031 162.398438 121.234375 162.621094 120.941406 162.464844 C 120.417969 162.179688 119.851562 161.914062 119.25 161.671875 C 116.289062 160.476562 112.363281 159.746094 108.089844 159.746094 C 103.578125 159.746094 99.457031 160.5625 96.441406 161.878906 C 95.664062 162.21875 94.957031 162.59375 94.320312 163.003906 C 93.953125 149.976562 91.425781 138.21875 87.523438 129.492188 C 85.613281 125.207031 83.347656 121.628906 80.820312 118.949219 Z M 80.820312 118.949219 " fill-opacity="1" fill-rule="evenodd"/></g><path fill="#1a3c6e" d="M 68.765625 163.5 C 69.09375 163.496094 69.417969 163.496094 69.75 163.496094 C 70.714844 163.496094 71.664062 163.511719 72.597656 163.542969 L 72.597656 202.011719 C 72.597656 202.917969 72.785156 203.789062 73.125 204.585938 C 73.46875 205.410156 73.976562 206.148438 74.597656 206.765625 C 75.234375 207.390625 75.992188 207.898438 76.835938 208.238281 C 77.648438 208.570312 78.535156 208.753906 79.460938 208.753906 C 80.386719 208.753906 81.277344 208.570312 82.089844 208.238281 C 82.929688 207.898438 83.691406 207.390625 84.324219 206.765625 C 84.949219 206.148438 85.457031 205.410156 85.808594 204.585938 C 86.140625 203.792969 86.328125 202.921875 86.328125 202.011719 L 86.328125 199.695312 C 86.328125 199.105469 86.5625 198.574219 86.945312 198.199219 C 87.328125 197.816406 87.859375 197.578125 88.441406 197.578125 C 89.027344 197.578125 89.558594 197.816406 89.9375 198.199219 C 90.320312 198.578125 90.558594 199.109375 90.558594 199.695312 L 90.558594 202.011719 C 90.558594 203.5 90.261719 204.914062 89.71875 206.195312 C 89.152344 207.539062 88.320312 208.753906 87.285156 209.773438 C 86.253906 210.789062 85.03125 211.605469 83.679688 212.164062 C 82.386719 212.695312 80.960938 212.988281 79.460938 212.988281 C 77.957031 212.988281 76.53125 212.695312 75.242188 212.164062 C 73.890625 211.609375 72.664062 210.789062 71.636719 209.777344 C 70.601562 208.753906 69.765625 207.539062 69.203125 206.199219 C 68.660156 204.917969 68.363281 203.503906 68.363281 202.015625 L 68.363281 163.914062 C 68.363281 163.6875 68.539062 163.503906 68.765625 163.5 Z M 68.765625 163.5 " fill-opacity="1" fill-rule="evenodd"/><g fill="#1a3c6e" fill-opacity="1"><g transform="translate(90.493467, 211.538468)"><g><path d="M 25.234375 -19.046875 C 26.703125 -19.046875 28.019531 -18.738281 29.1875 -18.125 C 30.351562 -17.507812 31.269531 -16.597656 31.9375 -15.390625 C 32.613281 -14.191406 32.953125 -12.742188 32.953125 -11.046875 L 32.953125 0 L 29.109375 0 L 29.109375 -10.46875 C 29.109375 -12.144531 28.6875 -13.429688 27.84375 -14.328125 C 27.007812 -15.222656 25.863281 -15.671875 24.40625 -15.671875 C 22.957031 -15.671875 21.804688 -15.222656 20.953125 -14.328125 C 20.109375 -13.429688 19.6875 -12.144531 19.6875 -10.46875 L 19.6875 0 L 15.84375 0 L 15.84375 -10.46875 C 15.84375 -12.144531 15.421875 -13.429688 14.578125 -14.328125 C 13.742188 -15.222656 12.601562 -15.671875 11.15625 -15.671875 C 9.695312 -15.671875 8.539062 -15.222656 7.6875 -14.328125 C 6.84375 -13.429688 6.421875 -12.144531 6.421875 -10.46875 L 6.421875 0 L 2.546875 0 L 2.546875 -18.734375 L 6.421875 -18.734375 L 6.421875 -16.59375 C 7.054688 -17.363281 7.859375 -17.960938 8.828125 -18.390625 C 9.804688 -18.828125 10.851562 -19.046875 11.96875 -19.046875 C 13.46875 -19.046875 14.804688 -18.726562 15.984375 -18.09375 C 17.160156 -17.457031 18.066406 -16.535156 18.703125 -15.328125 C 19.265625 -16.460938 20.144531 -17.363281 21.34375 -18.03125 C 22.550781 -18.707031 23.847656 -19.046875 25.234375 -19.046875 Z M 25.234375 -19.046875 "/></g></g></g><g fill="#1a3c6e" fill-opacity="1"><g transform="translate(125.815414, 211.538468)"><g><path d="M 6.421875 -15.953125 C 7.078125 -16.859375 7.976562 -17.597656 9.125 -18.171875 C 10.269531 -18.753906 11.546875 -19.046875 12.953125 -19.046875 C 14.609375 -19.046875 16.101562 -18.644531 17.4375 -17.84375 C 18.78125 -17.050781 19.835938 -15.925781 20.609375 -14.46875 C 21.378906 -13.007812 21.765625 -11.335938 21.765625 -9.453125 C 21.765625 -7.566406 21.378906 -5.878906 20.609375 -4.390625 C 19.835938 -2.910156 18.773438 -1.753906 17.421875 -0.921875 C 16.078125 -0.0976562 14.585938 0.3125 12.953125 0.3125 C 11.503906 0.3125 10.21875 0.03125 9.09375 -0.53125 C 7.96875 -1.101562 7.078125 -1.832031 6.421875 -2.71875 L 6.421875 0 L 2.546875 0 L 2.546875 -25.15625 L 6.421875 -25.15625 Z M 17.8125 -9.453125 C 17.8125 -10.742188 17.546875 -11.859375 17.015625 -12.796875 C 16.484375 -13.742188 15.78125 -14.457031 14.90625 -14.9375 C 14.03125 -15.425781 13.097656 -15.671875 12.109375 -15.671875 C 11.128906 -15.671875 10.203125 -15.421875 9.328125 -14.921875 C 8.460938 -14.421875 7.757812 -13.695312 7.21875 -12.75 C 6.6875 -11.800781 6.421875 -10.679688 6.421875 -9.390625 C 6.421875 -8.097656 6.6875 -6.96875 7.21875 -6 C 7.757812 -5.039062 8.460938 -4.3125 9.328125 -3.8125 C 10.203125 -3.3125 11.128906 -3.0625 12.109375 -3.0625 C 13.097656 -3.0625 14.03125 -3.316406 14.90625 -3.828125 C 15.78125 -4.335938 16.484375 -5.078125 17.015625 -6.046875 C 17.546875 -7.023438 17.8125 -8.160156 17.8125 -9.453125 Z M 17.8125 -9.453125 "/></g></g></g><g fill="#1a3c6e" fill-opacity="1"><g transform="translate(148.864775, 211.538468)"><g><path d="M 6.421875 -16.015625 C 6.992188 -16.960938 7.75 -17.703125 8.6875 -18.234375 C 9.625 -18.773438 10.738281 -19.046875 12.03125 -19.046875 L 12.03125 -15.03125 L 11.046875 -15.03125 C 9.523438 -15.03125 8.375 -14.644531 7.59375 -13.875 C 6.8125 -13.101562 6.421875 -11.765625 6.421875 -9.859375 L 6.421875 0 L 2.546875 0 L 2.546875 -18.734375 L 6.421875 -18.734375 Z M 6.421875 -16.015625 "/></g></g></g><g fill="#1a3c6e" fill-opacity="1"><g transform="translate(161.919278, 211.538468)"><g><path d="M 19.71875 -9.828125 C 19.71875 -9.117188 19.671875 -8.484375 19.578125 -7.921875 L 5.265625 -7.921875 C 5.378906 -6.421875 5.9375 -5.21875 6.9375 -4.3125 C 7.9375 -3.40625 9.160156 -2.953125 10.609375 -2.953125 C 12.691406 -2.953125 14.164062 -3.828125 15.03125 -5.578125 L 19.203125 -5.578125 C 18.640625 -3.847656 17.613281 -2.429688 16.125 -1.328125 C 14.644531 -0.234375 12.804688 0.3125 10.609375 0.3125 C 8.816406 0.3125 7.210938 -0.0859375 5.796875 -0.890625 C 4.378906 -1.703125 3.269531 -2.835938 2.46875 -4.296875 C 1.664062 -5.765625 1.265625 -7.460938 1.265625 -9.390625 C 1.265625 -11.316406 1.65625 -13.007812 2.4375 -14.46875 C 3.21875 -15.925781 4.316406 -17.050781 5.734375 -17.84375 C 7.148438 -18.644531 8.773438 -19.046875 10.609375 -19.046875 C 12.378906 -19.046875 13.953125 -18.660156 15.328125 -17.890625 C 16.710938 -17.117188 17.789062 -16.035156 18.5625 -14.640625 C 19.332031 -13.242188 19.71875 -11.640625 19.71875 -9.828125 Z M 15.671875 -11.046875 C 15.648438 -12.472656 15.140625 -13.617188 14.140625 -14.484375 C 13.140625 -15.347656 11.90625 -15.78125 10.4375 -15.78125 C 9.101562 -15.78125 7.957031 -15.351562 7 -14.5 C 6.050781 -13.644531 5.484375 -12.492188 5.296875 -11.046875 Z M 15.671875 -11.046875 "/></g></g></g><g fill="#1a3c6e" fill-opacity="1"><g transform="translate(182.894878, 211.538468)"><g><path d="M 6.421875 -25.15625 L 6.421875 0 L 2.546875 0 L 2.546875 -25.15625 Z M 6.421875 -25.15625 "/></g></g></g><g fill="#1a3c6e" fill-opacity="1"><g transform="translate(191.869849, 211.538468)"><g><path d="M 6.421875 -25.15625 L 6.421875 0 L 2.546875 0 L 2.546875 -25.15625 Z M 6.421875 -25.15625 "/></g></g></g><g fill="#1a3c6e" fill-opacity="1"><g transform="translate(200.84482, 211.538468)"><g><path d="M 1.265625 -9.453125 C 1.265625 -11.335938 1.65625 -13.003906 2.4375 -14.453125 C 3.21875 -15.898438 4.28125 -17.023438 5.625 -17.828125 C 6.976562 -18.640625 8.46875 -19.046875 10.09375 -19.046875 C 11.570312 -19.046875 12.859375 -18.753906 13.953125 -18.171875 C 15.054688 -17.597656 15.9375 -16.878906 16.59375 -16.015625 L 16.59375 -18.734375 L 20.5 -18.734375 L 20.5 0 L 16.59375 0 L 16.59375 -2.78125 C 15.9375 -1.90625 15.039062 -1.171875 13.90625 -0.578125 C 12.769531 0.015625 11.476562 0.3125 10.03125 0.3125 C 8.414062 0.3125 6.941406 -0.0976562 5.609375 -0.921875 C 4.273438 -1.753906 3.21875 -2.910156 2.4375 -4.390625 C 1.65625 -5.878906 1.265625 -7.566406 1.265625 -9.453125 Z M 16.59375 -9.390625 C 16.59375 -10.679688 16.328125 -11.800781 15.796875 -12.75 C 15.265625 -13.695312 14.566406 -14.421875 13.703125 -14.921875 C 12.835938 -15.421875 11.90625 -15.671875 10.90625 -15.671875 C 9.914062 -15.671875 8.988281 -15.425781 8.125 -14.9375 C 7.257812 -14.457031 6.5625 -13.742188 6.03125 -12.796875 C 5.5 -11.859375 5.234375 -10.742188 5.234375 -9.453125 C 5.234375 -8.160156 5.5 -7.023438 6.03125 -6.046875 C 6.5625 -5.078125 7.265625 -4.335938 8.140625 -3.828125 C 9.015625 -3.316406 9.9375 -3.0625 10.90625 -3.0625 C 11.90625 -3.0625 12.835938 -3.3125 13.703125 -3.8125 C 14.566406 -4.3125 15.265625 -5.039062 15.796875 -6 C 16.328125 -6.96875 16.59375 -8.097656 16.59375 -9.390625 Z M 16.59375 -9.390625 "/></g></g></g><g fill="#1a3c6e" fill-opacity="1"><g transform="translate(223.894181, 211.538468)"><g/></g></g><g fill="#1a3c6e" fill-opacity="1"><g transform="translate(232.733174, 211.538468)"><g><path d="M 6.421875 -15.984375 C 7.078125 -16.835938 7.972656 -17.5625 9.109375 -18.15625 C 10.242188 -18.75 11.523438 -19.046875 12.953125 -19.046875 C 14.585938 -19.046875 16.078125 -18.640625 17.421875 -17.828125 C 18.773438 -17.023438 19.835938 -15.898438 20.609375 -14.453125 C 21.378906 -13.003906 21.765625 -11.335938 21.765625 -9.453125 C 21.765625 -7.566406 21.378906 -5.878906 20.609375 -4.390625 C 19.835938 -2.910156 18.773438 -1.753906 17.421875 -0.921875 C 16.078125 -0.0976562 14.585938 0.3125 12.953125 0.3125 C 11.523438 0.3125 10.253906 0.0234375 9.140625 -0.546875 C 8.035156 -1.128906 7.128906 -1.851562 6.421875 -2.71875 L 6.421875 8.90625 L 2.546875 8.90625 L 2.546875 -18.734375 L 6.421875 -18.734375 Z M 17.8125 -9.453125 C 17.8125 -10.742188 17.546875 -11.859375 17.015625 -12.796875 C 16.484375 -13.742188 15.78125 -14.457031 14.90625 -14.9375 C 14.03125 -15.425781 13.097656 -15.671875 12.109375 -15.671875 C 11.128906 -15.671875 10.203125 -15.421875 9.328125 -14.921875 C 8.460938 -14.421875 7.757812 -13.695312 7.21875 -12.75 C 6.6875 -11.800781 6.421875 -10.679688 6.421875 -9.390625 C 6.421875 -8.097656 6.6875 -6.96875 7.21875 -6 C 7.757812 -5.039062 8.460938 -4.3125 9.328125 -3.8125 C 10.203125 -3.3125 11.128906 -3.0625 12.109375 -3.0625 C 13.097656 -3.0625 14.03125 -3.316406 14.90625 -3.828125 C 15.78125 -4.335938 16.484375 -5.078125 17.015625 -6.046875 C 17.546875 -7.023438 17.8125 -8.160156 17.8125 -9.453125 Z M 17.8125 -9.453125 "/></g></g></g><g fill="#1a3c6e" fill-opacity="1"><g transform="translate(255.782534, 211.538468)"><g><path d="M 6.421875 -25.15625 L 6.421875 0 L 2.546875 0 L 2.546875 -25.15625 Z M 6.421875 -25.15625 "/></g></g></g><g fill="#1a3c6e" fill-opacity="1"><g transform="translate(264.757505, 211.538468)"><g><path d="M 1.265625 -9.453125 C 1.265625 -11.335938 1.65625 -13.003906 2.4375 -14.453125 C 3.21875 -15.898438 4.28125 -17.023438 5.625 -17.828125 C 6.976562 -18.640625 8.46875 -19.046875 10.09375 -19.046875 C 11.570312 -19.046875 12.859375 -18.753906 13.953125 -18.171875 C 15.054688 -17.597656 15.9375 -16.878906 16.59375 -16.015625 L 16.59375 -18.734375 L 20.5 -18.734375 L 20.5 0 L 16.59375 0 L 16.59375 -2.78125 C 15.9375 -1.90625 15.039062 -1.171875 13.90625 -0.578125 C 12.769531 0.015625 11.476562 0.3125 10.03125 0.3125 C 8.414062 0.3125 6.941406 -0.0976562 5.609375 -0.921875 C 4.273438 -1.753906 3.21875 -2.910156 2.4375 -4.390625 C 1.65625 -5.878906 1.265625 -7.566406 1.265625 -9.453125 Z M 16.59375 -9.390625 C 16.59375 -10.679688 16.328125 -11.800781 15.796875 -12.75 C 15.265625 -13.695312 14.566406 -14.421875 13.703125 -14.921875 C 12.835938 -15.421875 11.90625 -15.671875 10.90625 -15.671875 C 9.914062 -15.671875 8.988281 -15.425781 8.125 -14.9375 C 7.257812 -14.457031 6.5625 -13.742188 6.03125 -12.796875 C 5.5 -11.859375 5.234375 -10.742188 5.234375 -9.453125 C 5.234375 -8.160156 5.5 -7.023438 6.03125 -6.046875 C 6.5625 -5.078125 7.265625 -4.335938 8.140625 -3.828125 C 9.015625 -3.316406 9.9375 -3.0625 10.90625 -3.0625 C 11.90625 -3.0625 12.835938 -3.3125 13.703125 -3.8125 C 14.566406 -4.3125 15.265625 -5.039062 15.796875 -6 C 16.328125 -6.96875 16.59375 -8.097656 16.59375 -9.390625 Z M 16.59375 -9.390625 "/></g></g></g><g fill="#1a3c6e" fill-opacity="1"><g transform="translate(287.806855, 211.538468)"><g><path d="M 1.265625 -9.390625 C 1.265625 -11.316406 1.65625 -13.007812 2.4375 -14.46875 C 3.21875 -15.925781 4.296875 -17.050781 5.671875 -17.84375 C 7.054688 -18.644531 8.644531 -19.046875 10.4375 -19.046875 C 12.707031 -19.046875 14.582031 -18.503906 16.0625 -17.421875 C 17.550781 -16.347656 18.554688 -14.8125 19.078125 -12.8125 L 14.890625 -12.8125 C 14.546875 -13.75 14 -14.476562 13.25 -15 C 12.507812 -15.519531 11.570312 -15.78125 10.4375 -15.78125 C 8.851562 -15.78125 7.585938 -15.21875 6.640625 -14.09375 C 5.703125 -12.96875 5.234375 -11.398438 5.234375 -9.390625 C 5.234375 -7.367188 5.703125 -5.789062 6.640625 -4.65625 C 7.585938 -3.519531 8.851562 -2.953125 10.4375 -2.953125 C 12.675781 -2.953125 14.160156 -3.941406 14.890625 -5.921875 L 19.078125 -5.921875 C 18.535156 -4.015625 17.515625 -2.5 16.015625 -1.375 C 14.515625 -0.25 12.65625 0.3125 10.4375 0.3125 C 8.644531 0.3125 7.054688 -0.0859375 5.671875 -0.890625 C 4.296875 -1.703125 3.21875 -2.835938 2.4375 -4.296875 C 1.65625 -5.765625 1.265625 -7.460938 1.265625 -9.390625 Z M 1.265625 -9.390625 "/></g></g></g><g fill="#1a3c6e" fill-opacity="1"><g transform="translate(308.204528, 211.538468)"><g><path d="M 19.71875 -9.828125 C 19.71875 -9.117188 19.671875 -8.484375 19.578125 -7.921875 L 5.265625 -7.921875 C 5.378906 -6.421875 5.9375 -5.21875 6.9375 -4.3125 C 7.9375 -3.40625 9.160156 -2.953125 10.609375 -2.953125 C 12.691406 -2.953125 14.164062 -3.828125 15.03125 -5.578125 L 19.203125 -5.578125 C 18.640625 -3.847656 17.613281 -2.429688 16.125 -1.328125 C 14.644531 -0.234375 12.804688 0.3125 10.609375 0.3125 C 8.816406 0.3125 7.210938 -0.0859375 5.796875 -0.890625 C 4.378906 -1.703125 3.269531 -2.835938 2.46875 -4.296875 C 1.664062 -5.765625 1.265625 -7.460938 1.265625 -9.390625 C 1.265625 -11.316406 1.65625 -13.007812 2.4375 -14.46875 C 3.21875 -15.925781 4.316406 -17.050781 5.734375 -17.84375 C 7.148438 -18.644531 8.773438 -19.046875 10.609375 -19.046875 C 12.378906 -19.046875 13.953125 -18.660156 15.328125 -17.890625 C 16.710938 -17.117188 17.789062 -16.035156 18.5625 -14.640625 C 19.332031 -13.242188 19.71875 -11.640625 19.71875 -9.828125 Z M 15.671875 -11.046875 C 15.648438 -12.472656 15.140625 -13.617188 14.140625 -14.484375 C 13.140625 -15.347656 11.90625 -15.78125 10.4375 -15.78125 C 9.101562 -15.78125 7.957031 -15.351562 7 -14.5 C 6.050781 -13.644531 5.484375 -12.492188 5.296875 -11.046875 Z M 15.671875 -11.046875 "/></g></g></g></svg>