<svg xmlns="http://www.w3.org/2000/svg" viewBox="100 90 140 130" width="32" height="32"><defs><clipPath id="a"><path d="M164 101h5v5h-5z"/></clipPath><clipPath id="b"><path d="M114 110h41v46h-41z"/></clipPath><clipPath id="c"><path d="M176 110h42v46h-42z"/></clipPath></defs><g clip-path="url(#a)"><path fill="#1a3c6e" d="M168.15 105.92a56 56 0 0 0-3.39.01c-.23 0-.42-.18-.42-.41v-1.93c0-.59.24-1.12.62-1.5a2.12 2.12 0 0 1 3 0c.38.38.62.91.62 1.5v1.96c0 .23-.2.42-.43.41z" fill-rule="evenodd"/></g><path fill="#1a3c6e" d="M165.75 109.46c5.53 0 10.67 5.3 14.5 13.87 3.71 8.3 6.12 19.55 6.47 32.1.01.3-.32.51-.6.37a22 22 0 0 0-3.76-1.46c-2.82-.83-6.31-1.45-10.2-1.79l-1.04-.06c-.22-.02-.43-.03-.65-.05a62 62 0 0 0-4.75-.14c-.55 0-1.09 0-1.62.01-.55.01-1.1.03-1.63.05l-.91.05-.82.03v.02c-4.23.27-8.05.88-11.12 1.74l-.54.16a22 22 0 0 0-3.71 1.43c-.28.14-.6-.06-.6-.38.36-12.53 2.77-23.78 6.47-32.07 3.84-8.57 8.97-13.87 14.5-13.87z" fill-rule="evenodd"/><g clip-path="url(#b)"><path fill="#c9a84c" d="M128.97 123.89c6.84-6.48 15.57-11.17 25.35-13.24.39-.09.66.38.38.68a52 52 0 0 0-6.7 10.54c-3.85 8.6-6.36 20.15-6.78 32.96-.01.3-.34.49-.6.34-.48-.27-.98-.52-1.52-.76-3.01-1.31-7.13-2.13-11.64-2.13-4.31 0-8.26.75-11.23 1.96-.59.24-1.14.5-1.66.78-.28.16-.64-.06-.6-.38 1.02-11.97 6.57-22.73 15.01-30.75z" fill-rule="evenodd"/></g><g clip-path="url(#c)"><path fill="#c9a84c" d="M176.8 111.33c-.28-.29-.01-.77.38-.68 9.78 2.07 18.52 6.76 25.35 13.24 8.4 7.97 13.94 18.66 15 30.56.03.33-.32.55-.6.39a14 14 0 0 0-1.7-.79c-2.96-1.19-6.88-1.93-11.16-1.93-4.51 0-8.63.82-11.65 2.13-.77.34-1.48.72-2.12 1.13-.34-13.03-2.87-24.78-6.77-33.5a52 52 0 0 0-6.7-10.54z" fill-rule="evenodd"/></g></svg>
